<mxfile host="app.diagrams.net" modified="2024-06-19T06:30:20.198Z" agent="Mozilla/5.0 (X11; Linux x86_64) AppleWebKit/537.36 (KHTML, like Gecko) Chrome/126.0.0.0 Safari/537.36" etag="MDsOCdZ9UDaPdiO1spn_" version="24.5.5" type="device">
  <diagram name="Page-1" id="KHZ7pjuuOplCE5dSbRwQ">
    <mxGraphModel dx="2458" dy="889" grid="1" gridSize="10" guides="1" tooltips="1" connect="1" arrows="1" fold="1" page="1" pageScale="1" pageWidth="827" pageHeight="1169" math="0" shadow="0">
      <root>
        <mxCell id="0" />
        <mxCell id="1" parent="0" />
        <mxCell id="wV1D7h4lFDxGgGAu4bmc-36" value="" style="rounded=0;whiteSpace=wrap;html=1;" parent="1" vertex="1">
          <mxGeometry x="-390" y="120" width="1190" height="530" as="geometry" />
        </mxCell>
        <mxCell id="wV1D7h4lFDxGgGAu4bmc-25" value="" style="rounded=0;whiteSpace=wrap;html=1;fillColor=#dae8fc;strokeColor=#6c8ebf;" parent="1" vertex="1">
          <mxGeometry x="419" y="378" width="361" height="86" as="geometry" />
        </mxCell>
        <mxCell id="wV1D7h4lFDxGgGAu4bmc-1" value="&lt;font size=&quot;1&quot;&gt;&lt;b style=&quot;font-size: 16px;&quot;&gt;AVP&lt;/b&gt;&lt;/font&gt;" style="rounded=0;whiteSpace=wrap;html=1;fillColor=#dae8fc;strokeColor=#6c8ebf;" parent="1" vertex="1">
          <mxGeometry x="474" y="150" width="120" height="60" as="geometry" />
        </mxCell>
        <mxCell id="wV1D7h4lFDxGgGAu4bmc-3" value="&lt;font size=&quot;1&quot;&gt;&lt;b style=&quot;font-size: 16px;&quot;&gt;MCO&lt;/b&gt;&lt;/font&gt;" style="rounded=0;whiteSpace=wrap;html=1;fillColor=#ffe6cc;strokeColor=#d79b00;glass=0;flipH=1;flipV=1;" parent="1" vertex="1">
          <mxGeometry x="244" y="150" width="120" height="60" as="geometry" />
        </mxCell>
        <mxCell id="wV1D7h4lFDxGgGAu4bmc-4" value="&lt;font size=&quot;1&quot;&gt;&lt;b style=&quot;font-size: 16px;&quot;&gt;K3S&lt;/b&gt;&lt;/font&gt;" style="rounded=0;whiteSpace=wrap;html=1;fillColor=#d5e8d4;strokeColor=#82b366;" parent="1" vertex="1">
          <mxGeometry x="419" y="334" width="360" height="40" as="geometry" />
        </mxCell>
        <mxCell id="wV1D7h4lFDxGgGAu4bmc-5" value="&lt;font size=&quot;1&quot;&gt;&lt;b style=&quot;font-size: 16px;&quot;&gt;Load&amp;nbsp;&lt;/b&gt;&lt;/font&gt;&lt;div&gt;&lt;font size=&quot;1&quot;&gt;&lt;b style=&quot;font-size: 16px;&quot;&gt;Manager&lt;/b&gt;&lt;/font&gt;&lt;/div&gt;" style="rounded=0;whiteSpace=wrap;html=1;fillColor=#f8cecc;strokeColor=#b85450;" parent="1" vertex="1">
          <mxGeometry x="173" y="391" width="120" height="60" as="geometry" />
        </mxCell>
        <mxCell id="wV1D7h4lFDxGgGAu4bmc-7" value="" style="image;sketch=0;aspect=fixed;html=1;points=[];align=center;fontSize=12;image=img/lib/mscae/Cache_Redis_Product.svg;" parent="1" vertex="1">
          <mxGeometry x="197.28" y="273" width="71.43" height="60" as="geometry" />
        </mxCell>
        <mxCell id="wV1D7h4lFDxGgGAu4bmc-10" value="" style="strokeWidth=1;shadow=0;dashed=0;align=center;html=1;shape=mxgraph.mockup.containers.browserWindow;rSize=0;strokeColor=#666666;strokeColor2=#008cff;strokeColor3=#c4c4c4;mainText=,;recursiveResize=0;" parent="1" vertex="1">
          <mxGeometry x="-370" y="290" width="458.48" height="260" as="geometry" />
        </mxCell>
        <mxCell id="wV1D7h4lFDxGgGAu4bmc-11" value="Page 1" style="strokeWidth=1;shadow=0;dashed=0;align=center;html=1;shape=mxgraph.mockup.containers.anchor;fontSize=17;fontColor=#666666;align=left;whiteSpace=wrap;" parent="wV1D7h4lFDxGgGAu4bmc-10" vertex="1">
          <mxGeometry x="60" y="12" width="110" height="26" as="geometry" />
        </mxCell>
        <mxCell id="wV1D7h4lFDxGgGAu4bmc-12" value="https://www.loadmanagerUI.io" style="strokeWidth=1;shadow=0;dashed=0;align=center;html=1;shape=mxgraph.mockup.containers.anchor;rSize=0;fontSize=17;fontColor=#666666;align=left;" parent="wV1D7h4lFDxGgGAu4bmc-10" vertex="1">
          <mxGeometry x="130" y="60" width="250" height="26" as="geometry" />
        </mxCell>
        <mxCell id="wV1D7h4lFDxGgGAu4bmc-13" value="" style="shape=image;verticalLabelPosition=bottom;labelBackgroundColor=default;verticalAlign=top;aspect=fixed;imageAspect=0;image=data:image/png,iVBORw0KGgoAAAANSUhEUgAAAjAAAACrCAYAAAB4z6bGAAAABHNCSVQICAgIfAhkiAAAIABJREFUeF7svWmTnNeR75fVVdXV+45egMYO7hQpahktM77SLBpfhyMmwhG+E76OsL/DvLZf+IXjXn8Ljx22w9dzfeXRSCONJFJcJIoLSKwkQWLf0Wig972qq/z753lOVXX1BqABAiSeB3i6qp7lLHnOyfyfzDx5MhUO2+LQ7Uwm40+srKxYPp+v/q6/t7y8bEtLS9bR0WFNTU3VZ/Re/XPbZLdFSeItFXfLIt9DGukjX1cKxL66ef3KO+g/GSvr9S2OnfZvjZ30SCnwtFNA43h1ddVlx7vvvmt/93d/h/wpWqHQ8rST5itd/7m5WRsaGrR/+Id/sMHBQfhp2bFC5Nvb8c9G/p5rpIYS0BkZqTqRvuvM5XKeke4rYx31DLcx8Zh2/fXNnmksR/o7pcDGFAhgev29AGq3HQBG/9WZiUA49ONwlbQrMX09A2Aho3Dq+Qz9Pcvf2qH3BKh1rYnPSnk9uA75hXc0F1hfg9oVhvL6qqVXUgo8JRSIckXVjbKo/vMpIcPXtpqNbRn5dcQV94sP1gEYJVCfiEBLPARW1MH0mc1m12hWHrQAX9uWSiv2CChQAxdrEw/gYq1mjmtrsAAwooJ2owwA4XpZp5UEOXisbPRmPvm2DGDPM8vL5KxUKtlKFojSlLNl7q/wfDtPZpPMV/kE0gNcjGtlK5aWrADAcUzjh9CKgJDyU2G4UWHGkTwQwMra8SYYVH03+Vb/kcKbDYiSXvraUECyRZr+5uZmnzAvLi5aS0uLTU9PW2dnV3XGrgpHYajvkkc6NeFOj8dHAfFMtZfaUVYZtaXaRZYbfQon6LNQKFixWFyjAHmQUq8DMA+SSPpOSoEvjwIbifAEHNQXYs1jQUtShTnrlCSCMeFoYnDFI5/LAzwqtmSrwJOytQq8lFctDxBqAtgoi1IZWFMqWqYpYwWer3DfsYrfVboh1yZhF79eZ8LKbGQuiqWsFiP9klLgqaKAwIuEm4Sejr6+PhsdHbVLly7brl2D1Qm0BKEOCU2dEpgSjOnxeCkgVxKBS7WfXEr0XW0zPz/vgOall15ykKPrsQ31jq7d75ECmPulWPr8V5oCAhHRSiT4EI0/AWwASvIwRccY/AFgFKQxKS1bKw83NzG7W14xW1yW7dSsBUgDWikUuS5wgqZG+hVpd5SHXyKHrNJKTEvSxOh+eqQUSCmwngICItK8RNNCa2srPhND9sorr9gXX5x1P0sdmsnruWghkOZFpwRkejw+CgiwSGsmS40AjDQxAqM6BFB27x6xv/7rv/bvAjXx0DMpgHl87Zbm/BWggPxeIngJ3i0CGQFmBAATKiHFSAlGmUUZkmGW1yxAMzVjlYm7ZnfuWHlmxoRZCj19lhkaMevu5gezxQUGZEveSjkcEAEuAi+CNFlmGlaRalu5AZCCiuYrQLG0iCkFvlwKROBS7wvT1dVlf/M3f4OWZdXeeef3DmIkJAVYBGDiwhK9m5qQvtz2asxtbGzMwUs06amdBE4GBgZci/a3f/u39qMf/chfU9tFwCqt24McqQbmQaiWvvMVpYAMOsFG7rDF7Ub6lvipcFcaFL8inLHEbG6VLwCT5U/O2sWjR+3umU8sxyyvtIrmpaPbRg4/a7u/+aplnjts1t9tGTQtyqHoAAZ/Mf2SwzCmJeljMlnpfVIVjCifHikFGikQzUYCIhKEmqVLC/OTn/zEnn32ORse/t9sbm7OfWKiNib6ViitCIAa001/f3kUkNZF2hS1S2yjvXv32pEjR2jHv2K+1131c1JbSmsj01/0r72fkmZocGfj93rUZ6JXo8OvVHdCW52dnX7tfr2J7zV/zZTDee9vpE9+XSgQwMbGtQn9otqdfZVRPMI9KVKCHiQ432bc1qNn5KjLPd5Z4QkCBXDy5ErJbHLBKmcv2ae/fstOvfmOLd26Ze2YiuQQXAbltGKfP/id1+yl//IvLfPDb5nlV22uJYPfjKCQ4TdTsTat2HMtKlc065D5Sb/cB0aAqQZogkvw5vVMoY+TLj2+phSIq141jqMjqD4DsAnjIpqK9BlljZ6vl0dfU/I88dUSDpBWRW1Wbwpsa2tzx+wovxcWFkzX4qcq9iB+MKkG5onvEmkBHx4FpIEpB8ySrB1y5JIAiHCnDHQRiAnOtpWbY3bhj0ftwrsf2/S529aW77LFlTK+Max8wHF3dnrCvlg5Zh2DA7Z//7Bl9nbj6Ask4V5Y3ySgg9OvwIrbr1II8vDaM03p60aBqHmJmhjNzKWF0Uy9BZ+zMhpOgRbd1z0JyvR4cijQ3t6+YWHUrsHJutm1L9HZun6V84M4YKcAZkNypxe/nhQIJqQAIfjripkEVOi738igLCmx0gg77nLRpgEw5zEfTVwZt9ZMjy1Vem1iZta6eHaot8NyRdTZN6ft+ufnbfT8ecuNvGzNpLWMrwuLBIFB6HJYkt0km5RnELRBX0/6prVKKbAzCmiWHv1Y4qoiCTYJumxW4mrtBEAWgah5eXRa/53V6Wl6O2rO9Bk1ZNEfRnSIPi8CnvG+rsel8/dLq3UARh0iquWUmY5GG2PsYI2mIv2uqvCTksROFa+nnex+myh9/uFRwEPKOQsMWIW/iUOtPgJrlOOtYhzJS7fFJiZm7PKlm1bAGLSwWrDxpiG7sdpuzw302M3FCetqJqZBa8HOfnrWXp74rnUvLVi2GZV3C+rSjJZ0ZoBD/M7g5AtYIloM14J5K46J2iLuWIZqCddVHS+addfu58J2469x/N5P2umzKQUeBgUk3NQPBWZif4zXGtNvlEGN99PfXy4F6jFAXCJd34ZxEqdratPYrtKo3QvvaeRf6wBMvUouqnciqIn2KmWka43+MBHYxII0gpcvl5RpbikFNqJAMBQJNFSD8fKYPMG0SkkAR0rpXBOAY2nZShX8XQpdNlNcsaVcr43nRmyhP2uXVxeslRgw2UK7VUrjVsBhrYXvjk1Qc7MQNDFWCbSwlFAxZDAraWlTE5AmHOuBisqx1aExt5OjkQE0ppWq5Bspkv5+ciiwfrw8OWVLS/IwKHAvIKY+n3UAJt4UGJEGRuo7fQoNR0QlJhi/x+cjmtLviIojs6xHZQ+jkmkaKQUenAICKdIUai5QQwv6FqBG8FzRiqFVfF2au3dZ975n7fr5RVvEhHS9qccqPQM2M3HZenJF60DJklldtP1DXdbUxnJqQ/OC+UnB7ir4vZQSSFRynxhF7I1algevwU7evF8GsZO80ndTCqQUSCnwKCmwDsCIwQlwzBDrYnJy0lcV6VNLoORIVb/sqbFg9cClcabX+Lvx3fR3SoGHQYGt+pnML1nXr3DIqTY6ALolKcRtqQA5SsVla86jTWkq2MABlkl/Y9neP3rTbk0X7DYApbm5zVY5c6CR6zZrA71DrET6tmV7hkEoHUI05MJ2GzJFcbrOx9dsA5EwTcUYNAHKNJiEYqCaTYjRtMMYMlvRR1mmAGcTwqeXUwqkFHgIFBAf3FzNvB1/aizAOgAjFbW0Kwo+MzExYTdu3HAwIycbOVXJVjU8POyBaaR1kXZGTE8amwh+GjNJf6cUeDIoEJcsB1W0L3SOixjcfCSXWzma4f8COMm2dlr7cIflR4/YdO+wXZtZtEpHmy1nASid7bZM1N6LMxPWuWvY9v/gx5bZ08cyaql2iB/DOGoiTUXqzaCRacqw3YDy89VNmx/BhLO5qnynPjCb5xzupABmOwql91MKpBR4UiiwDsDEginYjE75vSgSojQvAi/6LdASkVLUuojxCfhEfxml04imUoDzpDT717ccVQG8QRwYIX8BgKorLzghzgWC+ShstJiXdoal0FKG3Jyt2Bd3Z22ms99K/Ss2wF4sK8va/BGsklm0iZVbNtXSbrPtPTbSyUU3FbHPB34wlYq2gMTfJQNoyeK8S7qK/VKL+7IeqIR766/HFnvUAKNxzH59e0pas68eBTYfF1+9uqQl3ogC2/G3Rv60DsDEB+T7ok20ZD5SFL2bN29ab2+vTU1NrQMqEbhIaxNDAkdgo8/6QjUWYKNKbH1taxXU1u+md7/aFNiKgYV+sRWACaYbaUAI9Q+o0L8AaYKbrVXkaksMGO0ovVqx2YWKvXvsjP36w2O20NFru18csKHWPmsq8SZaltXKkhULi3Z9ad5+/dFpIvF+w3aPYKbi3azQDxpKmYykkfFNHgH4qxUFc6qqfbws9Ye0NuHa2uvVZ5I9lR60HbdjEKkT74NSNn3v0VNgq/H/6HNPc3gYFNiZ/K6PG6PSbAhgooZFgEQ7SCossD6liZEWRloWRd2NWheBlrjbZNyQqR7AKKPIOFMA8zA6wdOaRhTqjcK9Nii8n1W1L1G/4j3QTy0E0jdF3Q0ARnAhBK3TjSU2amxt6WKX6YJNzZXt41MX7cMT5+3Q8//KDjzzsrUsz1tHc96KPKvtAlZb2+3jkx/YL39/0nY/+4z1jrT6oNIqpMzqCmnrlPlIi5P4xbWwzkllqjFkrxH3M/jPhKOxjuFq1qP3PvixHYB58JTTN1MKPGoKbDb+H3W+afoPhwKRH9fz5bUpNy4Oasz3ngCMEpGmRaF9n3/+eQctBw8etMuXLzuIEQhRQhGMiClq5ibwElcjxZmc7sX7jdqYxsLd2+8giO7t2fSprx8FNhbsDgbkx5I4uQZBHQZKRbtBJ2BhVaYdQEA+V5CSxRYWl+jLuNvmc7awVALYtLqT7sxMxf7Tz/9gb7x5ykaHvmEv7P8umhW2Zswv2VSJDcpKLdbS1m+9uwZseI/Z2PhZ+/v/8+f24iv/xkZ3A1RYdt0mh5pyky3PrVp7xy5bZm+lXAgH482SccASAImblup+C2atranqwpVtnHy/fu2d1iilQD0FNhv/KZW+GhTYHLyo/Per4FingYk+LAIjEgICL9pMK4IPmZa0Mkn3YywY3asHLvVLqiOA0TMpgPlqdLGvXikDeAkDIJReipgAWgSgA9MTJMiDIJbRLK5qc0VAQzPAJadt33m6tZUw11zGV9fe/eCyHT99mY3GhjELHcbfpdnw2cWXBeAuK1CpAwBEkDqwUUfXbptdYtXezDV77+gt+/GPh623q9kWV+esM1uwQhdjhc0fm4gtwzZKmJ8COIn7HgXHXHm/hOXdoeT1Az0BL7rhWx+kR0qBlAIpBb6KFNgagD4UACMNjACKTEMRnGiPA22+FFcpiXQCKhGYxKB2EbzEgjQWqPH3/TdBqoG5f5o9DW/EfhEEf62f8Vt+WG440uAJq420rWNO4f1zAT7orvQ0Whp9/uqivfHG+3bmzBU7dPBPbO++fQrtElxXAD1NoJAsY4OFeVpsZLuIyptpGrZLV67bL37xBr//yv6zHw5xkyB3vvt02ZZWlq2ttQ2XXi2xlhFJ18Ngjn8dwiTjW9/XHkn54wMNd9OfKQVSCqQUeNoosG46F21MEgACMgIk0W4ewUwkUuOKo3pA87QRMq3vk02BoN+IAIZIuXKGSXxfiiyb1sbT8/MVNx19dPSsffbZNQB8rw0O7rW29g4ccPV00OasLCtkAI6/WWlVKtbZkbWhoSHr7xuyT05fsN+98ZHduI4jL3FkSuU80XyzmJQIN+A5egxg/wzfA7QKf7eiYSOg2erZ9F5KgZQCKQW+/hRYB2BilQVO4iEAU79NgL7H3/XP651oMqonXQRAX39ypjV80iggYFD7p/7JaiBMONKCOIzAlNTEqiOwuus8Pvzwtv3+D5+wi0CrHT7yTWtn+fQivmDWJNBS9C0GZH0qr5Z4R75f2haggnalBd+XA9bXu9c+fP+s/f7tszY9ySJqbpfZjiDbXHAAI9NW9VP+Yf72vYKYJ426aXlSCqQUSCnw+CiwzgcmFqUedEQtjK41amTi8zGQXb3Pi+7VAxppcHYOZgLLf3wkS3N+IingK49qjq/1Go36PicLTA7NSRlTTgkQUq7k3Wyk1cksrLPfvn7Uzl8gOF3nXtu95zlASsHmF5bY17GA+4u0knoeMIIGJpMp4QBMSjj1ZtBU9nQP2MsvfM8++ugttDAnbZgAd3/ynU4r9GR4v93mV+atAJDRoXJEnUo0YgX9UG3iEOhcp3lRFdMjpUBKgZQCX1MK3K+LyToNjJh9NB+tZfzBCVd00/36jKK2ZrMlUPdbqK9p26TV+hIpUO9DUt//5A2TxR7kBiRQixxrdYzfqdiHRyft9Klr+HrtscGhZwAl7QCdPOYj9kUqL2MyYi9pzE2F5lbeqBDQbh4ws+qamDJaSdY2YUbaawf3vWoXLs7Ym6xguoYpaYUYdtLTrKKJ0dYCcqbRpgaJU43nH44IzutBeoJa3BG5DszUvZV+TSmQUiClwNNIgXUaGMWA0cojHQIw0qwImNRrTxoBS3Tg1XuN4Ca+F4VICmaexm72Zda5pqaIIEbamNDv+JYAdN8VKdsMgCGoHa+cv7Bkb79zwiany/bqq89ab98o0adLrDDCmZ2Vd8vL01Qix+eqdXW0AGSWcOJdwtk9j69M3ubmi77SaGmpYocPvWoXL16xk6eu2p/+6bett79gPb1oYWRG8uKhAXINjn91XxgBq6BBCiClBlWSh+LD/lx6pBRIKZBSIKXAOg1MBC8ijcxF9fFeIjgRoNEZNTR6Rs/GfZHqNTfxe/21lOwpBb4MClR9X+RrkpzqwwtL7CzNemmtJlpGO3Lpctl+8c+/t7d/f9xeePG7OO0OYPJpIXYLQAXn2zJOL4WCVh2tsOyaoI3Ec1E68nspsvHj8tICmhg2b8SXpqW5xZdqP//sazY7Z/b3//s/2mdnijYzJxAVfGDkP1xi/fUKnsNhNRK/MWcJcAXX3pp7r9fByx4mFKkW5svoOWkeKQVSCnwVKLBOA/NVKHRaxpQCD0QBgMNyaQWtSQcmnWabmKrYqU/G7JNPb9uZL8YwGx0GtAygcWEnatCGTEy+flpaG7563JZEARI0JEFr4hoeBxg8wQ2UljYycgDT0YJduPShvfnWMZtbPGgH93fac4eI1NvCPkrEn/H0BVoScLW+Ton2pWo6qull1j+bXkkpkFIgpcDTRYEUwDxd7f1U11ZwoSiTKLFf5Jdy7vy4vf76x/bx8Wt2/dayffvbr1kXjri5nCLVCZBoc0c0NQ5ggrKyHrgIzATTVIgzo7/55iabZQPInu4mGx09xDYDf7S33jlud6cm7MXn+2zfyJ9YQc7AJFczp94LMLmXZ57q5k0rn1IgpcBTRoEUwDxlDf50V5dIvAXMPsCSWWK+jI0vup/Khcsz1tI6Yq1t0r4oArXACwgHPU0Tmz56yDm2BKjgLJPBYVdqmKCIAVQIxCQaEpl/tCWAovwuLmcxQ7WyAeqI3Zm8Dki6DAhaweQk8xFJ4MOrfHDDIQ/SxgQb1Dsh5dBOIf16s1EwxdY/83S3aFr7lAIpBZ4eCjT60KYA5ulp+6e+phL7eHWxVQA7SZflv9JqN8e0uaIC1h1hS4EOX05dLhP3hZ2mpSVRtN5MGSBRks8XCejUVgD+KZ2LNCNRO1O25ZUywEWB6wR2MrZv3xHMVqt2a/wm8WRafMk2LmP+VjQheZA9mazQ9tRWTyWZueOMmi5qYFLwImqkR0qBlAIpBVIAk/aBp4gCAgmYb/LsTUTMlxl2m14ptbJCaB8A5oBvnVEiGGOZJdPZzJKvUGK3JACEdmBk1ZKbkbQHdRKrRb8dVwA7wBW6vkKsl66eTjaJDBqWXYO7bXpuye5OLwOA8L1B+6JXBGJqoCT4wWhlUtY1MfX3kp/JR6qBWUuP9FdKgZQCTw8FGjUwkVs+PRRIa/pUUwAjjvug3LpdYXXQZVYX9dr+fS8Q+6WP1UOuVCH+CyuCmjA0cZpMSYrxQgyXZqlP/IjB5gRcGEJxg0XMTfk8XjOAoEwTYIR85DA8OnrYBncdtLsTS3brVoXl2Y52AEhBuSLgIn8brWJKj5QCKQVSCqQUuDcKfMkAJlGLuwDQyXKN6qnf26nHt7t/b5X+6j4VTBbSIoTltqKfHCp0RqGaCNSqYFUTy2dDe/GEsPdf5foHrYV0GNGkEmuj36qrQEA4qxsGyDyDikQGmpUSPio8cenKLfv0zBesOuqw/XuHPTqvVhAJo2R5Xt9dq4JNyU09usYza/NXfgpKVytPe3ubLS7Ms7R63sFQHhCzZ7jTBgf6bez2HbtydcomJku+fFvxZ4qrRcqEycpTkVpGDsSKw1QHlgBGYWx81ft/bKNAtxotqd6GR6RrfF6fupYeKQVSCqQUUGSuDQ7Fu1AAO6lr9F2fig+jgHXz83PW3d2d7FStlwNTlbrdzfU+m9SneL5U41Gwht/BkYBr65hyInxwlow+BfVFqySh4rcHORtU6Eu81Kjiut+st4qXo2Cscin1Zbu+q7EcTSWWdUjoIfxWoV+Uc2oP/STkfcWwaXBkrBXBvGGz+/3HfWxPvyjAYiX1mQhGvpZKwBYBDSdDE/Ra5dQ/9u8CFGRzrTa1ULHTn52zazeu2ZGD+62lAFXpq804vawU8X0RmMg0Jz4vBLuTyYkuu0javqvjGgIn2YtwNJBiuzSziqkZTUyZJdt5yiJ67x3psMWZNvv7v/9n+3f/839rC8sV9llSOD1tCmnuM1MmLk1Yrp2kmZF/jkAn9fFq0/a+9DrWXdfWHorHtJOjfg+0B0ln6/wTABKbzDNI+EMyvkP+6rixneM7okGs+6Or/4PUOX0npcDDosBOx9/DKsdm6Ww9vjd7q3Z9u/oFzFAb3/odT6USzPc1BrJOkhVZJiFfgJmZGbt+/TqOjkX2hen0EszNzXnUUQEVgZgYzE4ZrGpfGd8YTzv0BjDjIkRT2frDy5YwqCqI0bWEObEiw49Yh+R15RmOhvTi5SfkcysAoiJuJ6C3uh8EciCNYIzEsvQJQQOAIHDh1nA4ufQn3NO3rfJofP3L/r0d/RJJTo2S/hI7invYhr4XyyzRGHR8gVb6LshHHDq7eOkGjzfZ0GAfEXTxd8kQ5r9cCEumHYk7jOFpnHf1mXQ7vxZNRhsQp7xKq1AWH+gO5nmbHatbmtm1ur3d7t65beculGxkLxMClQeH4VYQTCHfFlpJhdThwwComtGFUB59ZuVZvMWxHYPY4lW/tdl2INu9F+9vnT9tFIFJaC5e44v4QOIhHXyAvJdy1gEez0DtIACZNEbMtO5z6/w3eCG9lFLgCaLATsffo67KTsfXdvVzfumKjxjAM8iteL02iVFNg856TZ0FWKRtEYAZHx+vMrQoWBbZ8U5aGR0RjcV79RlHIVkvkDLOfOoPFU5sPHKzOua8jkfF57Zm4A0ZfOk/HyU4iCxdAhWdWMLeI035jOAv1rpKQ9EM4Ol0/irTr75TbPxdeFkyMvaoQDPVWUAkb0W67rVrZbtw4QqRdDttFxsusiOA9+XqDutKwBFzfR731pV8U1NRmfTU9+OAb/Ul1X127crnduL4Z/b9H7xCxF8AzErFmlvUopi4ULZgcQq5rlXF1JVHZQqDeqMSPcr+t1F+jde2zj+pXGyc+HJtdtKQXPJgrPI9NMfW+TeWNv2dUiClwP1Q4MsYXxG8qFz1+EG/G1nFOg1MW1ubbwkwPz/v9SqwD8zCwoIz4t27d9vk5IQjpHpVUmTUYt4CQEJZ9eAmoieJEQKu16SLs2quumo4XK4hPF1LTtfUBFVzWLZ6D5zMU/zyj+1UbI0N0ljCre5XBFDYfLDG/+V/kVCEixlm/CjBuCJKcwcyufnIz0DjTAUH1TqzXmP+j/v31vRL+kuoHX9Dnwhl1j2AHdoM+aysihbUuay+IzrwR75DC5iPPnj/OH4qq7Z7eDd9WX2Vk0/1vaAxDGnVcEKgXcin/vt6ajUO8LhLu7Sa3V091tnRS+Tf8zY29g2C5smvphWN0KJ1YP1bKbKrdR4TnzIug7QyWvEkDQzt6W0WHITDuFift6405r/xU5tf3ar/bf5W7c7W+asOEXDH8a32iZMTauaaGB1qtMAx/LufOkSPzdtg6/yTJNKPlAJPKAV2Ov4edbV2Or7utX7xuZjfZvmuAzAigPY2iqoeMWBpXARMBGqUcAQqelZMX6fu+14xMOp6NZOe16kCuCsp/CeRpTWe5HdcAifAJ2Fo/iDfnakFBh6E86NupgdPX3TY6thaQG/1ZmDuqyWlLw1McOPVN4lm0UifPvP3ZAK9RTqnbdXvhetVIbF1fo/j7tb0qwMwXofQZ+rLqasOXtTv3CuXk//aXWgFH5bbY2V79w/HiJQ7aKN7Dtjc7KK1A9qF9lbZjLEqLJVQFe4rH9FYOa3Psz5/ASDlrVd1uvGqEjZELRAkb3h4HztUf2KnT9+2kd1D1tmljSIZX2U2g8TApTIGUKr11lFYS5sjEEPvr/qB1Oda+77Ttt2MUWyc2/qrW+cv+sqnJx4JXZ2wTtw6ACbiacwHML7mneTZ2rW6u09w396ovOm1lAL1FNjp+HvU1Nx6fG+f+3b1awQukmd6J56RT8Sc1gGYCELk43Lnzh0XiP39/VXQ0tbW6iamCGSUkJ6JGzzqe/yte/UARlFKJUzWHrqQzMr8XmLzX4dygu37SQcwOwEojZRZ/zvQNvhhRFIGgRcAntBhWKPkVhASEL0qTl8JQF1RtNggLNan//ivbE0/lV8CjbpFMFEFFEEIrgIW/JJqr13Us/i28F3xXRTV5fMzF+3K5XF77pnXrL9v2CbvrFhHu+gTaaI8avkEiuheANBrbbDhbv1fBzD4wSg9AZig0Qlly1KW/v4Ru3TpjH388Rn7xiuD1tUlv5ZWQA67wDejCfLS6tSRjAvAp8xfwSP70WogHi2DCrXyqlX7oNoz0EeXa/nHdkjeqTr16vfm/Xc7Bul5p0dKgSeUAjsdf4+6WjsdX9vVr175sRa4wDIY+o0jfx2AiX4AHSwvlclIifT09Pjn3Nys78rb1l4DMbquUOjCJiWWhGqfmQBiAuNxDYAEilCUGHNiQVLPpqevAAAgAElEQVRJ6thZHd3rGZS+xxlYkt6OW2jTjHecshJwwbnFsbrNDHHrDiIRHAR4rSWT/NS6flECTgLURaifLghxSvXD/WTC/XDh/v4+auyzXf2rvaa+J1dNjMRSoTpadxSALhsmstBOj2oBUZk/J459wQqhLmtt6eGznai5OXxPouko0kI0a2xH9RulVJ/xetppgGoQxsEXzan6rTK1tnVZd++wfX72ul25Mmf79ncxphiGMl+hccn7OFHuAbCH/q9hqhMtkQvyzcugsbiTQzFptjq2a/+tAWgseX3519J0bf6N7QBtNq+6F3u7/LeqW3ovpcDjpkC9AH/cZdko/52OLy30Wcda12SkiOdrB7lEm063JDQc6wBMa2urm4OkZdm3b1/VsVGMWNoXLa6IbEhiInyXmYiFqvJCrLsWIEuYieq6Zv6rtuSMXEI1bJBXL/LFxMVAEzuTM+vkrArgMLttqMe9/3S5tJ4Q957A1k9uLQAaGfLWaa2/C50xNYQqhLm600dcXZoHBKBoHGsXwIsEZ+3wd5/gY+sBHEsvQVZXE5dqof6ihfqi/gms6Q74xJYXWUjOSvKLF8ast3sEOiosQIaVQZ22tER/Z9n02n5RyyvQV/1O17boO9xW+TUJiJrI+BkBTS5fsD40P9eu37Db4wuYZTtZxi1gQlnL7L3EiAzeOiQW1sCTJ3mrfbmj7Qm2OrQP006O7RjU1rnTCtqKe7NDVVpHv7X0XJ//2hwd4G7RBFvmv1m50uspBZ4QCqzv/09IwZJi7HR8hVhamw9gRwM+GQ9HvTSLV+opsg7A6KbASzzqlz2JuCEcmJJVIWSTDypgjyTKEs/6eDAqiPObBFGtspldBiG7sDxv7YUeCprDb2bVCs0Fz66If0eOzfKiT0c0e7iwSuqcIY/g2Fgt4n1+CeW+z5fu4/HNGycksrUIaESf9Rk7FHGgwlUm6GrsUnGVPXzUXhn8KCqsalHMF7PWQit/m9hUcIU2whkb80QRB6QcGrKtSrBV/l6Wbaq3tQalvjYbf99+AKv0tf4QUqEPJv2QYP4EoiP+C31uDp+tjnbiuSD/ha3f+t1nmG9u24svPsfy6VGCzaEx5FmFBhDw0OBybWJiulkL/e4BwKhkFE3p6dBsQ78DsNd1tipYzVlf/yAApsV+/vM37C/+/N/6swsLRevu1NLqJe//TdVl3El5kkEd2mfzRtgp/R9p+0MLmahb8AWKhwCXTMvKV4sHsoqbU2VgYfLj2ivui3nmMMNt1Qfr6x+/75Qm1cKmX1IKPAQKxDEWP+v76bbjb4f5bzcWtst/u2XQ2xUvyO7N+df6Cc7WKW4IYLZ+ZfPMt34vzL7EnLN5gZCQTi7fjONiYPT5nFbYsGcMz2RgWEHQJqr0mK0+t5LA2xXiCbj/4BQEkgDgSivs1ZPTcl35diCZka1NTN0raBGaC20AlYqNT8w5EO3qbCe0PQJyuQSoUXNv3UW2KpuTXX+2euiR0zdmXt8J9D0pmNBKIgC72ntEGlYcVWxmCvPRiXMsne7DdNQBveRTEisjrUFjpWL6us7pj26U971XWCvBMqDJPIC9s2uAVUczdu5cGTCVBdwIcC5XE1PbBg1lNKGqDMp/Lay699x3/uTDaH+BF9VCmspVOqbAi2K/CDgK+PnUyM1wGAIB5NIoamIkxqvFBeuaaefVSlNIKZBS4CtKgZ0ZzB+g0hIVzU2t8CHF5SDyqAubLDNkFYUzCpU6v4YHyOaJfCURhUEYRpl7P58uRcXMAwCUOS/XzHc+5f1RxtlzerZiZ764a2/87pQd/eiSB22TcmIZUCNhLrNf/LchkbYoT7X8G774ZV0Mtdg8t1BKCUcRmggAVgQX3Lg2b6dOnMd8NOR+KFkAjPc9+lkFrVZFy8sdIOi9ABRCX4wE0bWdHmgs0TAWWgs48w7ZEuX6w7unbApwpbZcxaQVzKsaBwLu8l1KhqjKmfzzbvAYzp22f3xf5r2idrWkElrCrj4dqSutosBMLpsHsBDrSMvipX0B0GiPqYfRCjttxfT9lAJPKgXE0zY6n9Ty7rRcCXfcaTL3+j7B7wl1X7Y2m2VWPDnF0lFNmHk966s3JDqi8yKs6qGDmCeA/SU+KpGZ389noJS0KIpdIudUzVDVhG50Qyjg43F50X6HqeSff3nc3nrrDDFH5pnpY0JqyQcQQ4Y1QRKWYt9rGe61lR/dc3UlVafZ4FA8F2/lxEdGofebIdknpy/ZzHTJenuG0MJIAxOdxdQBo/9MnSbGEyGTdb42nvgDnxn6tFYb9fYNYDLJ2vvvn7Sr12QekRO8j4QEtOgzCPfQ7lpFFcyHD577Tkquej+MA62hNC/QP8eWC+q/wprSGspXKZ4OP7kX+rmWplN2b5P0SCmQUuBeKSBtZr1ZKP7e7PNe032w5x7+AL5PE1JknSp+PRvd6Hd9FUPBKx6LRKpys88/w4lxbJpgYntt754uG+hXHA7YdwbVPgG8wpEIF3dgFDPf4eFCr74OO0xvw9e3a6RNJO+Gaa29KLMCC72gU454dmFGXvTg+HJA1QzebIzdjk+cGEdgz9jE3Wbr6T1jA7u+Zbv3SBuBD0FLzXy3nT30Hor0GB6J9NVnPS1rKgnN4gs4y87juNvWmrHppYp9+MGn+AH1sAVGP6t+Qh8M+3TpPQ1yaWGUogBhAIWhcvX5bVHdalHq2r+xqQEvJbYOUPpt7R3WQiTga9cuExV4yp59ps81Dr77tfpoooGRGcnhqTQwriFqrPcWZXriboVAfPIxCpqXUECHbUxgpIWSYsaBCifrBsJoRTMlIJOTD56vkqqj8RNXx7RAKQUePwUiaGkEL9v7GD7qskce9qD5rGWqD6iBiYW43084EljkxvWK/f6dT+xXv3zPfvMvH9pnn0y7o6W2efEUq3vNiFklIEbM28v+MJjX/Zb7YT3/oI0W31O8nRBoUJqqFVRWctzVEltRSqaITz+9bVevFnHe7bW7E3n74IPzduLkXb/fjA+MQFA9+g4UvUeaNgrknVbngd6PbZG8XC16KJyC2IWOEkCIrp49W8bX5BpRcAd8+wA5oslp14WhtHxunhGAkYajIf01IClQ64GK7S8pnyIgZtnBSn/fIJqIgn3++QVbZkuBsMAo0bwIwFTHQXi3Zt568BLs6M2H0P7SqsgRV+C5xHbcAt0CLjqljZWbi75X/XgpsMyBviP4urbYUW3Sl1MKfO0osJFmRbwunhvdb5QHj54oDypP15fsPjUw6xO4ryswZIVyP/PZBOHcz9r1q2N269oyzqV99vJLr7FXTMIhJaX9oKISMC5YNDXj+kNgovdV5of8cKN4vN/kXUvgQE++AcxMPVCb2e07FTv68ZR9ePQcDL8XrdZBHH1LdmvsPCalD62n/7v2/PN91t0uAsr0tDEhq3hgk4Jt/NYmDz/0y/dDPZw+6S6TExXq/x5VbrbBXXvcbKFOpBUtipAbtC0CPcEpOsRbaSz4w6o1Hi6MuFVWjgko9ffvYhl3N9qyL9jk8VsALHQT1d2u184tpIWRyVDHdm3UWPqH+XunlBAO8f2qKJRMSTkaSd9nZ0tsr3Db92BTrKn+/j40hz3ehurwip/0OOv9MGmYppVS4FFRoF7z0ghM9Hunq4geVbkfNN0HADA1JlpBCGpGr8O/r+Fu+iFzBczHn2P1DFcm58zOX5m1i1eXbXaGfZfKTXbh8oJNoD1oIyqpGFbw65DqXGdYih1mn8rpXpVGdezOZ9U69KlTZWtkh0k9kifXIqX6ijW+V58uTNb9duIzgQYhreio6DqQai6bfwl51v/Vsywm8lmqBMFqpQCMCdqXCxcW7J3fn7Qbt6ZtePBFAMwRnERn7dMzt+2DD89ZRycBCFt+aC89z147zPoDBeRXESLzhpaUdia2W12dXUMR6hVXtNfu1teVAvoN/eGsdoja02vfk/Yjtkn8TN71NIIWJaSlJFVKgQ7RUO9GoKs8dWhPIy1FztrCIuH7mcpfu1Gx9z88ZZ09wzYwuCfxfQkzEg3o6EPk2pcNyhvypmybAL6Yc/1nrKODzVqF/ZEWVoY5gGFW1N7axpLidpZ2n7fx2yv45xQ4tZpMdasBFoUeCOOsmnJDtnEUblSK+E5DQUJDrSt+aM36/hnbJfRqrDmhTtBK/2LbhO8xueQd9/eqtbF6UBHgmG9i6wa9KwdemhhFjN0ax0/p0wl79913bWh4wL7x8nP2yqudgM6sZXFiWmVvqGr4hEaiVrNdWwovsfcv5axT5XVEFN9IP1MKfMkUCH20foSF/piMJe+n9Yf6cL20im/G58NnvCqHd70QHP6DztfvOeOGJxK6JHhMri1BNYc1Q2P9OAlv1cpQe6L+2cZxGOujutXnW8MPur427fhOqF9MsVF2Zv8njnpy1X9XXAYdcbYe4loEYSaWqvDs8jtUsbRKoEQAvLaWAoHwVhCyBZ7I29QcG9Jlm22VadfFmxX7j784aT/71UeWbzloe/d/z25Pmo1PLlh3/6jtO8TKA3wWllg2kpeaGe42N7+E0MmDHHO+ckEIso51OitaewaA4KRBCPhJCeUAGSofCR0+A9Fq1/RkEI/6DAAsfGqmGJu+di80id4PzFpxSNwc4aeu6llpSYL5RjAO5XlSHgKeebnqTjqZ9rsRm5X4bgKpNJGQ4pUoyN9SeYZl6DlbhuuXy/jCkPUHH5bs//kPb9nHxy7ZHoDL8PAIwdLaWS6cMy1Nz+U6bAY6f3Lykh3cd5CVOKTLi6WVjLU0a0vyEkJ1CfBIHVkN1gSolAz1FdrCC5S+qUmUkZ5Cvhg6A1gL33nYf1MmzDLaINFjqSBotLJGvk3eRoFMicMqdfaYH6KgYtcs42w8H2bc3qNEPamaSKfa5ykzwlyrWAJdlW7sDSqn0tM2F/QdhOMSvi+/e/uK/eq3R230AJsnEgG3KS/nXQWaUwh/kCADWyZL9THfLV0SmvyCHwZ1oj767qduhNtepPpTuTceXuc1J/sxLbP3Ej44JcU/on1aGS8Td27jrzRuL730DDFiiOejfp4v4fOBuamiwI8CY4wnaKGJgo5aL439O/Qpt9GqDbzPQyUVWWBDn9Qtr1U9RTUu8Z5ob00RKhrEPCM/FAFY9wMK2ZBTqGVgiGqXkLO0Ir65qKsDw/v+ptLgc5l4L9rbKfixqH1L/FvmcfyAuLNMIEHVZRmXnwuXyvbGm7fsN6+fsQ8+vm5fnL1LLdrs+ZcOE7UYfkCYhYXlu4A/9SnF+KFPufmP/14G8lWf4zMA8NgnVF74T0bL0+V7JH4GDbXaSxqd5HR6bgaKdDM9Ugo8FApE5pGMMR9rcbzxqdsabj7GNKyCUA9jL/zWeETSwlcl3+Dc9OWlZeQwaWk+sAhPFxubml21cxev22efX+J5Vj3uamPym0yiGaOaNGgykZE8TcbQIpvJNsm8Th5r+VsY07rOWkDnvwEFxJWtKpV4fzIeE1qFunCPYRj5p2RdgFVKUzxEV4IUDOmHhSUhD6WrRT8qd5CfgUBOJD+2BDD1y7HiCwIpbsOGETjDFxdRdbWSA8FQxsu0BQZdRgjO4zTa2l5wkHPyszl7570v7J9/8zEF7rWBATHrfS5cZ+fmWO47hbxqsf0HWjF9aBZNVFIIWyA+Rha9+wr5ylxSy1P5Np4qZSyPvq9thlCHCA3is/Vp1N6InSi8E/8KNITZe+hAzA4d0YrIsGtmiQIUIRV9EQSRkkvOmRLqAiFB9IZuq7/Kqe6fSKl/DgISDZSELL1jlaW+OWLozAM2Mpk27/AnT5bt9ddP2PkLk5St1Z577mVU8C3weQlo6Mf3bKYFbVcJp+kJ11Bkcz22Z7fuwdYJdFdBSDZLsINWmgCbanfVI/omCEHJd6MsM57XSWegdKirfqleAlqADMq5TKwamWkEEnJsqKgxklQ2TLwVz4bocsVVCTpMCYw+gdbwUMyjllfMULtLB/gS7kXKeVOro5P/ouQVhZllQ/X/96cf2JXrs7YPANPW0eN1CuxBz4e3qwWrMhTPzYtbO8Kv7QRdaM9qirHK1U+lF/y9WCKsQI7Qf3pqkj7Obu97hm3//hBiINNEJXBmL+PUK4dXObcrWq9rEOqIGfNTutVe5O2nX2HJfehH+q5+FWC42jcDMfS+Mx/1a77rPW9Lfz+0aUw7/IpUSeiRUCmWYxFEollgoaWZdtY4ztjs0gIgBBBD+0obiw6GDSzzdguH81OnV+3td67b7/9w1k5/douYUET7zraz1L3Dz67eDuvoUowYJkH8I2JOKBsViEE0VXMf6QJSTofYdgI5OjVBCJOxMBZD//WH9azTJdYrXk0/Uwo8bArEnlk/htT3Yj+s9eFkWHEjgAn9jmJbwEMvydzsfRf+KvCiQxMCsdGjH122j9g25fjJ83ZzbNb27jvEGGJxAzEklZ+/Jx7s4Ql4Cf7TzHgNkKS+3qHM4iHhCJPzUJpQomptlK7LrDj+ks+k4NUwFXrOJ2MCJuJnNY6c1LauAEpNlQsVlKQNT4dc1pmQotYlhkDXLCVeywEkmsr4EGjmL7UADEWzKs2upObON/NNFLR2Zr8wrDKClMcuXyzbb9C6fHTyss1iKnrxxWetr2fECgCV3q4RZqM32Z33DJ+3WJX0V/bKN9os19YCmpy2jmYFvsoQwROVe1vBJ8gbH7F59RkfEtGdtfkrzuATIFG7zj1/PODcoGMJd2tk9dc9hZwYZySoAwuedcGHtoMVViJw0EnpefKvBPASe19GDDhZNRTL5dqLpJzBhhkEjxeM/9JqyIkRSAcgYLfvVYQ94OMay29/+cs37d0/fmHt7Xts7+gBIs8qNH6Jc8mj8fZ0t6NlgW6AhVJpxt58+yMbG7/KCpgf2WuvSeADMCtqQ6W/Qkh9SXhpMaSRUPbB+Ie7sM9YszwfwJjoFuta+9TzWWm96AsShk2kqVS0yWKRdd5ZBJHopzsKTBaQtcAZT/nzoe2qtHcBVGtbUboJSocnk6f9dnhPSL/Ektwcad1AQB47fhLaDLD6qIfAfkTl9VU+j+dQMXP5FrYPWMTfpcv3Zio0d7BSbMjGxy/YieNn7Ic//AFMhrpAf4E7156gqRJj0aTAV+8k5PAa+584qKX9inVT40EfCfXqRbUTaWbD/Cbo+UifJpcDvSYlrkFTog4GdIrGoTUCOA/phyt6FnombaRxmqfsor+UPK7lE4DPsMKKYudJTvOvq9dmGe8X7ZNPbuFcPW23b9PzlltteEgTGjStxVm7cvWO/epf3gXkvmo/+clhG+httoUl6q9+RZ6qkniBepKXl0Nk8QlOAmRi+X0ndn8k1CfUIP2bUuAJokDowkkvVk+Op8oYv8Ov4QuK0l1hcqNJpe6p/2vPtzLX5V4wP1exP7571j76+FP4yiQhG6bsT77zlzbwTbQ1UkQyXpuJHyYeGcNxVM2zjFAVRfy1Nlklh4Tn1Hi+ntGTgV+E4oeShOv81WTJB6XqoENlJV34mEax8/CEN0VJHerqan8/xGeCTA7lCvert109sO6on5G4UNFMLcko6w4YJMO5gsahjKMo0ek5YIqgOO2lpNUFTdi5C/CSq1fK9i+/PGHv//GczS032wvP/omN4mBaBkWuLM0jYDvs4KERGNg4S4Cn7Zc//yOq4h8iXGUnb7U5KF5A8GjJqQjhixG8QesOJ1Bo5EjI9Q/oPgxQBKwyZ4gj8CCp5zPTCGJih9GnmH44vGF4N8xSQzoCC2XqWyig2XAthp4ParJqy8XkuFPrCEozimnS9RuiG9coT9DwJC3v0oX7OKIuoC5UNNPJyYq99eZJe++9k3TKgh05vNdGRg6j+QgzTbWZTH4rRYGeJsxKQ5iVOpnxHrUTp64BgN6BHD+0F1/KAzwRpraI0FlEmAl4SpsGKPV2VznVebRPFXV3UtWVWzTR6Q/qKXXoMDj0W1qjEFSO7Nwjky0NqKfaPw/i966jHEi3WI0W7Cl6agLGoQ2C3gUR6WmoLUSSKj3VdpRBTdmMpJxjCfWx46dtBjXM7tFnWYGlmb0CJj4+AKMaZXEiLpYW3D+nRGfO5dtwWN1tN2+eZzXSVZua+L4NDvEcwL1YWqY/yKOHfuX9UP0v0MaJJiKp20DFsMS6eqF22y/pIbURqmbXRIQ+IqOONC9SIUuTqMR8nEdNj3/W8nQspG4frvIZNBuCvqF80jACUPHzUeyhEthVK8PBrPgkVezOXbMzn48BXM7YsWNn0cDIPNYD6N4DTzjAqqwRB97zC5M2dvuC3bhx3X73xnE3Y37/+4ds94iYNGVwnyD+AcpX6QB5JlbqEU4PL50YZGS6qgN1i3Wp9jg9mx4pBR4DBeIA8qxroyl04ChvdD05q/06QIM8fFSGnFV4dnBZEK9vgbe1Mf606rLCwoBxfOukXe/07Us++OA2k6ZBO3BAE0dpv8UFgD0E1sy5tl+jGW2v5xnKFbg8vzXmdPKnHq7oqZokUCGDDPXi6qUkqfhM4CW6GyZFkqXhWSWkb/VnMpz9qnJVGeqe9zw2WHLh4brrDgnT6tpx0TbSlQwlsMX4ZOsWM5xfXLA+goQtlxUa3ewmDpT/+LMT9luYULHSbSNDh2xo12H3vdAsq1RcgLEt2eBgF0zoFbt5/ZId+/g8DO0YwOb7xMZgmwEEsLIU44zqsVqta8SuK1hS+ljQWBkXeTymM7nmzFpMO6kXn9rCQIxeRAtMWawydCo9VmblRGDcVBBm3YIfg8tUv6n3E7DhPziF9ARonPMjwD3PWKb4MyFs6CWen9v4VRRpvWDPENo7URO0nSPa7ttvn7PXf/uBa7kOHXiOFVxDaBowPwh4qDA8vIrGYwn1vYCHzDNdXb12+MhrdvPWBTt6/Bxtsmj/JvenaLwAh0L2uXYKBr1du6bsJaD0XQJDlkh1vNDJ/QkXjBxORp70gZB33ygno5sYNVjw3VlewrSDpgeBnEc4yz9HwshNGZxYxqyFnaFFiZBnQjeuxIEUWlB0DB1ZJA9EUjl0BsEF3rVbl1dY6faxDQ3tASAMk1cieVXYx3ZQbtozRE0GsCHkFXG2p3uQumvZ+6Rduly0ru5mJgICyjKfCmxAAfeNCoAykr1aDUdxob/VNhPVtVjXhFL0qWVAkcyF+ud0pa3DaizBQvV1yigw4zQONPPkY3JKypOL40KA0CEpZxZzEROOFrZJoMtrZdwiwIVmt8tXWH145jzA5X367xz1KeCg+4Lt2nUQcMlu90xW9L6bjbo6uN5vt27228WLp/DvesfujJfsv/jXz9qhg5g+pX7kKGFmW8Vk7SBX48v7isZf+PRZnsZ7tJ/zzce697L0SCnwuCmgQaUjDrDkMw44/4z3wzfNj+VXJl6sESgYksPHZRXNrDiFQka88cZpu3OHzZdbDzFpVcTvJfvNb0/CX0btv//vnsdJnjhUmJKk0ZxfmGOT5qy1YIYKWhhxAA3xZCyFqQFXyIuxJFkk04/zjqR4VS4jniEbvR9crRY/flEyuh/e0FhMWEn1lXBFz8RyxFsBOoVftb/rfGBkLtIsTJuuTU1NwYDYwpdD1xfmQHzLWikE85MlAQIv829yccqu3b7Fio9xZkRoTeazaAgK2LbP2U9/9nubmmlCcH7LBocPu128yCqMdhQshUIFATvrzowd7b0AmzLRUueJE3Md59MMWoVhhLKEfiDK0rJmrKqyZuUiSmDacYYeKx1+1xHNaxCEnkgffuo+Z5U765GggYnXguDUmzViZuUE6Q60EjAQoU6vrpD1VTcO1xxwNom50rX81LWk1VztDtPXdQkpzSr9PmnzKaHibJa6h5pKLY/yvEhQtqOT9tOfvo52a8qOHPkmmpcjHtUVC2dQCbqEo8GpT9xgU+mtQPcsPkcdXT126/ZNO3f+C7ed9iHg29j0UJou+ScIhMRTZZBoUoou0qq9VWVXXUQdARWZgxSEUGJQvkrBkVZd/u5EE/bYc/SHE3b23B3KoR2ZO8lTHV5+OIEsIQ5QEIg1LZZIojxEh6DBUTlCMQQ+RTOVhTKSmBw8dfOtd87Yr379R2y/OO/2jDLr6HJahoFZE2CxOiTih35Xqxgv1n0GAbjBjXu4pF4kP64i4WZz2QLaMkAhBG0hSvL8/JzNzU0yS8rjiL3L+nBeVX1FE/lNlbQLuWvERANKGFRhDgiDCUd1Eg30W/1aj8XPUDhnPFlWoTlYEOoWOJYvjtobc498oByE1v8LIybSJTId0d3NRwm4DXMvfHqY7RVXW+wyWzfItPn2O+exx4/bx8evof27wgaaGcb0LrQpz+CH9QxgZZA+2hIAJilqX1Ix6RaWUnd29nhgu9vj0zYxsWh3787b6OiQL0UvsIO3fIi0fYbYueorjaN8sAJv4BJfHdC4BibUILTfWt5Qr3EOlEr/phR4FBRIRlFgpkkGjBwXb+Jlzv2r14Mcqi8Hzq444grAhD4etbMFwEgWwF+2/++n7zHuztHxB+AjL9iBAy8y3nrt/OVrdmdijHAFd5k8NDGp60Lm4syApsEXPkj+MJbDFDBMGqPcUzmS0UO+8ActkiAN94Pljerpk/cwafUxmbwVQIt+e0XDkchd1xz7dw5l4n/q0vaJVOT34bHaw5SgcRWSgIsG9OzsLCreWzDVOf8tIDM2NoawWSSaKxUgouvt2XE78cUpe+/4cTvx6Vk7e+mWXbg4YZdYJv3Rsav2R2K93J3J2PBudv/dfQizRdiFVkLVZ5gI97KkvuqAZkF+JC2o1KenZ2FYOJw2tUPobpiZmCukg9lnsd/Lsh7MC/q+9oxOPjXQEYkfPpsSgVfP9EMBItsTDePbsREklNW0IqycE/HLAbzML5Qo5xKxK7Dhr4CJ0ZLkcJQKwpRZKatI3FaZQZXHKadMmWgCmOF3k66hlfBncH50VbxcFQVmVI7QndS1FmmXhcUcK40m7df/ctQ+O3PNdkS9Z9kAACAASURBVA0csAP7X6ITdsPoyVedirJr9+MyS4gEYHKUKawuIWVouOL+My3QVk6usyD1u8TmUZujaiyHma0LWskF71CoK+XHQ1mCKUPlx1CkwSbAQIctuxaOlqAd8Un1c4nAbDOzYeb93gc37Levn0SYnbEvvpgCtLZaR8cofinQC0CqtMrsVF5uwgseOgGfyTcOZNFefkSK36Jl0mqeKLQFDnUGzYGGs7zxZb74D//wpn1+dsxG973Cxol7eCb0veBELdATDq9i3eFk3+SeLgcBuPade/0lukqzJsdm+bOs4isSdsNW25VtYvI2cWvG7JlnDmNSkR+S8lN/kv+Sgt/RH7y+oQ+pzwQAEUBcrQeHWqi/imZBwAc6itnML2bwg1qx8Ttzvr1Ec0s7ZuBIX/qQz7QCFTQSwlcRXkmpXSIY13exXKWNbxbAKJdrs8vXl1jS/xma1xP2Ic6EV28s0u86mOkN2DOHXwRwH3C/H7XrUtXpFw8yeIJ2o5ZjuZzA5bPUQ+TkttYextgKvOUCZudpzmV8h/rQ5Gk2qsB4AUCrqN4/qn3HC8zvGuMMpvDYt0LLpQAm0CH9+6gpkPTDKoDRlwBcwmcyga6OucbyiMfCaTWJRkaoFzMdcPBy+vQt93t5HU1LqdQJ0H+Bcz+TRMYHGu88i2FWCaD56acf29TkJGl0M4nsAtwwOhgmq/Kv4zNIHHGqCGLCGA+rRcUbADwCFfH0sRXOMM4C7/GSJ5OGwDiS6867xcOYdPrkXr+d0SXpMJYdHCkvfUaQlMAYPeZHSG+tvYjLMiG5cyXcc4Gd8PTZ0dHhtvLp2SlbyM9aSy9RYJfb7PyNi/bmB+/bsU8+RRiuoprus5X5Gzjr7bLx65iVVjrspRd/4LMt7YFUQXORp6AizswU0g0bXouWwlAHMehOdk6WSUrM/NKlU/arXx1z58vvfa+b1UzoF8RjkXZVIeKaBlU++VRnqDKrWNNIUOWrDhIEXiB6JJruBLDiXUjJ6eB20D2EC3pmGfNXgb1s9Pgt1NqffnKB3Y5X7ODBA/bsczBV75zcTARmECq6GMwxsl6GzhDSri95DYqpLJoVB6GC0gXfF7VHxl5/46gdYzl0c2EA7cIL5NPqArujrTPxm6FoHhwMkIF6fVlowouEgxcduY1ovHPzyzayex+q/iai9L5rv/zVSZbxmj1zZJ/98Pt7rBtlRW+vTDoBlEir4c7DTg8NHnVqaVyUD9f44yeX706zVJgsJwggd/5i0U5/ctY++wx/hpsTgOJO+k2Z2fOktXdcpk/sR1gzG9il5dxy7lXPkMYvIO7QZaPWJXRZHxNqQ885DC61ehxyAlEzOLGdv3gLOmDOpCz55nYvm/aKerwHWjQAe4vMrPhOqZu48KfM7Tj1yn/k3PmLrmlYXpHPDpUVSKTSWi4pCsX+GOB46Nuh74b+qwEf6LG+pspHGo0b18uomu/SHhOAiR7aoMMGBwR0tQpBh8ZA8HtyBuP0DtfDWNM1HaI7jtGJ9k20152LF2dZ/XDNLl+dBcg2E4Oom/40goP+KBu5yoFQS/v1Lgs8AR9Z+msZDdMs/VL3WlsZJSxdLOGvlEVju4sAhCWA943r8/azf3rPJu++yBgcQUvbQboBpIsnKL5RzbFRJYmnauUdJz1SCjxBFKBfVrUPcUyFEbi2kGGcO/fNifvCY7V3WAm/Szr+7TG2jzl22379mxOs6G2yZ589wsRt1Pn3+ERYFXjoyB67TLy1+fkB/NDu8O5HjK12+853+pDvyAxmtM1MbMNEPY6VUKYwIVC5It9N7jcMKZ9GNs7w1lWHpxywBK25cgj8K3yKR+l2lMGBPBrcrnbiQNhFmvELl4+quE4eoJg4WN69e5fKzjuIkSZG8Veeee6QTS/ctu7Bbrtw87r9x3/+hZ08d8FmMStNzSDwYCpLc602O0EgsZmc7R48bN986bs4JY767LwJRJXndH0GFZA2QmpoEahJkgkU2JLvQphO4Q9zHUe+iyy3Nvuv//Zf2U/+c/wEZLbC0TOfFQgQatTKmBDTQ9VXLJo8OmipwbVqR6roELpcs1lmvzgdrxIPQjNZMXqp8n1lByo0LR/WMwuLrMRhaqe2kdZHmgrN9JSffBZ0Y2amYpcurtr77x0D9YJoqfxLL71g3//Bt+zVbw472OpAu6DyiolGZyum3Eb/CzFugLthl111x4B3FTMFDxHyR+DyJo97Q87g83L8uPwHLtjP/+ljtC7ftAN7nyWGSDdvskxaZSfdIgV0E5Y0VFHTxK/Qh6SbohMQn2cJhCFxV0FLc/3GVcw6XyBQF627s8NefuEZe/7ZA/bcs60eGZkFTAhX3KnbgBO81EW9JATniags3waBSk2A7+JUfJM4P6dOXaLdZvDluI3T5hw01r43aHwoI0OEQkrzQGyf3DyRVrMs++4lYNlue/b5fvxVmCnk0VYxU2imHQVmVwUY8XmQLJcHfTarmXkQ0UW8RF2jgfYgm21zQS/A8rOff2r/69//gmXTB2iXH0GTXjfVzAJsWlukJpXNKhxrxqAGD5f9WvK9+qB/SUZXQtG198KvrfYaKUtThOlHTu5lTC1ZAIs7z9JRV5bnAH6TqH9/SRC3Pfa//Pv/CkCfcTrL1KbxsrA0Yx1oSxZXlhijTAaYVXmfnV9xcJbLtcC01LIaw2jtoBfN6n4oM6jD5mYzAMs29l4aoz99wOqfK6wI3G9/8zd/ad/5VodHApaPs9zgsior+zZJYylHP/VjAWKBYzlCy1c8h89UBiYo3zTlL6fk46eK9uvffmhvElRxDo1hX/9+tKijDmD6WRKtpJy+Gv+uyRGqFGMMEwuxI599iS7iFGhmtcllSSie8lw6/xH84Sp9pd++/71X7V//9X7v87sGeUvmOLa5aspoqYVWcJGWTExaUafVk55vklf4te7vBuxwzTPrGPS6FNILKQU2poBPy4Lqmn4ID0B2uSDnMzjha9yihaerSxxKUys5JdmpUVOR9SGnbWKK8MRdvnjmk9Nl+6efvY9bwXkmphn7wQ9+7DJEgqsi4SWFAQzaRxV5Tt+9ZXfHryPfr1kPQTN/9OPX7Cd/9RwrWOWXmox9LAOuBWfFZgafSmnzK1LfMxazTR3wA8kcjWLJXG3IHICNFiZI0SEFiOJqSb4VYRTiRR4KQoKC8afFCVk5PfJ/RStTkUnZplZ3JRA20VqPFfheKwBM2+NIxszNzNmeUXw1mQBJtrnsVCTvRlLHASxGLLORTEgqkGxlU0RDW6jMYvUo2xdXP7dLt67axOK8TS0CWFgGObOMqEbYlkqsoEBYzSOsZpEoPSwHlanAnRAhkpaBiTllxFi8acTEhKzEpPGJgQvt2nUAgVXG/n3B3nzrpHX3fcd++IMeWhgTiLQ0vLhalLlEQlue1XIohmnDzDW7k8NsyQEKOTlPl/qeTsA9+kEgPvZE2dAFYLBg8DzzSeqpnXG11F79RmvnRViBCGkVPv3sDgJ6Ef+TMfYcGrPrY9RzniBBpybs5p2P7Pgng0R8JZ7NwX5QcK8HEGpvR7MEo9f8uYhqvEinUtqidUCglFegC5qITn6PG7PkOQa6/uLsuB398Lyd+uQiqnfUgm397nDransNCP6rijIVKcqGhE3tDBRWjd3PBsddxRxRoMEmzEadnSPW1blstxcniIZcxlfhNg6X8/b+B2pztGJdZWbpHQgMxebAMawDHwo64gptPY/mSdoWOVpPTM4jEGfQIFyDfqIrDs7tgzbYNUAavWhdtMQcOkPLJRzHJiavssTvMrQ8RQybC/aNV/bakWcG7ZVXDjMDbyZvwAuEmCWPGYBnK34iPk7wDm3mU8KqLLMjwEjaLtFBQvTqNbQL524jYAs2AJ0ygBu1p45WtyKF737hSz7Usj5LoX0EDDIIb40JMS/F7ZF/WGdXP8Bv3s58UQFEMpjhRQIIAuJl67TForQTiuUT+vU0Gq/zF4hsTdCq6ekFfKJehPZZtIJFaDyLL9oMcWZmA4CZkym4z8P230Z7uLDQQvTbKUw0p2FQ37FXX8nxnZ6jweWnJhqA7pwGQ5F88XibXQLQdsOA2hgX1Cg8RjuiNcVR9z/94zv4Vy0AhvYS12bIevqGGc8dMKFWgCc1FxDx/inmHVYx1ZukwgROEwwfBZ6+r5LSmF5thi8c4TJq84VF++N7F6hbEXDUZN/69j5i6MjUKSAj2srZXOUGzMucqgHlicXxsXHjpwBmY7qkV3dOAdcoM4EPfUx9O4CX0M9Df5egj2PAF4PSbzUeY7A5Dz3JSsbZeSaMhNF4++0LuBXA71b67PChw/ARJhXuVymmIUapPh/krbT6fX1EI8dXsozsnZsb4/3TziP+4s+/bd9+jeCf8OcSEyuXKImcFDDJAzi0anRuBqtMeYE0pW3RyZOuHAl8VXWrIJfFjzVRU9BILdWWUiAPn84zGS1ybQU+rqn9CvxAMg/Fq2uVGK5EKFd9DX4m2XcH39tJwNUc+GMXvrSDPK/xHei4DsBI+6JDglwgRgXq7+/35dFzBJsrwxxKaE7OX71oN7DXLyP8F8h4kYZZJGpuGdOSEwh17hzakhmcE5eJsJrXMmMBGE+dUPbufKeaU3FXU4sApA2qamvpJEZMG5U7SCTfu6xnv4AwhH13/Mj2Djaznw/oDI2A9rXJQGxpBlRhnW3EitEnwYDd4VUCVsSh+L78eJFVO8JP4mfKXoJfQLWIz4ZmldPM0gPggaC8OzNXZjnnXeJVnCM2BZqhsZxNTUsQKDpqF9qWXfgQSIuCUJgoAWJuUjZC9fVdsuGRbqINDxCcb7ft3dtjAz3Ai8UCanSypkwSQspb4FbaHoGt8ausFKETTYI8r12btvPnrjsouHrtFkJoleXlh6yzG/SdV7BAOoqkvAQihZY/gAKfCcREU5nEpWoZZrbqUCtePzlA6rMLR8ndw4cgCH4GrA4Z3bOHdACiS5M4387a9ZtTCMjr3F+gPZYAZLsZePgu0NNnZua5FlYVZUDc0iCNjOxzQSx1ZItC5QNGPbqjwvoyu1BMk4FdnQCi52x6pg9hd5kw+jex3Z5lg8/PmEFMQa8h+8Y39qN9o6NLTapGopNLE1bCtBK3rdAkXdoC1VDR+Rcxs504dduOnbhC/butu2c3eTNgWDMocNPThQM5jrOP7fCuHg2FahWYlXxKBBToCAKV3axIunnrPH2ezSe7RhHKYcmjltVr/NwFRM8wsKfxCZnFqf7mjTsM8ku00VX6zAJbEVynX6lviBmhb1xCSyWND++vrhKRkwjNAvK9va0A6xnSuG1/ZMPPRaIW3x5/zv7ix1Iph9nPapmtPjQJgCfItKNQAU2Ky8SYW0Wj0YTGR/137HbF3n1v3F7/3TG7ePkuWroR27+PZdH9Q5gtBSDDLE4+Px7MisEXnIADgHHQncxGXcPhvDDMsrz3kokHdoQRDu7aS3yjAcp6kzp/hlr8A2JKSZvJVgx9zwPwxfzEuzQOpIFJeINPY5VaGA+b9YFUw7IZZdLrO6VAADDqfzo0eY390Q3+flX9L8RmAX67plbXxKslMJj8lecJONduV8aLmFM/hGdeIakB+PZz9P0BH48ZZHRF4TDkY+k5OQN1MFFBY99GXKzR0VaASydy5XN7661TrixYXv6u7d6dQYZiQWDxTHO+Q6zJFxCswucVQK+TBSA8yfiX0kF8y/Wl/j1MzuQkoUUH8CsHYJI9kkvwZ16ZAXitEoW7rYNFI0woVS3x5lk0LnN4ldwdZ8zy8MT4IqaxW3b61EfI2klkQTsuLJihR3uslUHtVhJotQ7AiFloxVEB3xQBF5lkenGIkB/M2GTW5ilsnswXkLKKwdDcDhODUboTIIWQ/kdRQys4ta6QzgoaB5kq3EQkZqIVKt50Yi5iaLrOyaeErceZgd661IcD7xF7CWfMBcwnNFT5bftX33+VvX56EYAs/Up8NFxbIr7IqQaUJmV6uswMf8Jnou0Edxsa7CAsuVswxC4dLKg8rtXiq8LOo2xipcRNBC8aE5jlNBvLXbl61a5cuUJa46jocD5uO4Kg6Wfpdy/Cv5/vMHTPVyp9OWJes7mFcXw+buEDcMU+Ibro6OhtO3hwvw3vGvBgXnkKWcC+JI2GMl9aQpuBtkvC9cLFa+6wODm1iKp83s0x+i4TSUfHLgTciAMD97KFSFGH48MBxK15unNtJ7Y+A10dwavmdEYJwgrmlxXMZwpMN8QydgVWm8OPaddAWPlSLrMUdmU3IHCajj3FrB276fQMZe3FzFa0ccxDEwhMLQMeGe4CoO0FMPS4tsmjAGvG7NIjKQu5S9uAgUxwyr/3MuBaWtpsCqE9MTGORmfKfv3rM9Drjttrh/HPyKNu0bYIwyO9rlJUh5UqVDQX7QQC1ZZzAE+ay9774IKdPT+JB/5z+F7sUk6APTRfpUUHXj5r8BYPR+1b7Xe81njPn9jwYjW5Lb94vpQ1DPig0tVYUN8P6uICGrFddg6N1LHjFwH9HXb7brc7tS4uMXmgX8+rX49NY9Ydp6+pb8zzOQcQWXIAfneSIHmdLd4OWq7e3SuGJQdafjMpaCmgOcGsJPW1wOzk5E00Z5eh2R1Pr4Qm5pkjvWh/mhwMZGFiJVYVMVfyyksbq/3LKky7NLnTXlPvvHODbQCO2aef38Qk+C3adZg2GwQ8Si2NmVd9jvHhGhGl4m2gkz6rLuJXoQr9WfxHzC4Abj0sE6G4si5i7oVcnV0sL89jzgZAX75yBuB9hwnGTfvzP3/e1c8C0NK8aXoUhIa0vXIGVO+p9UfPtuHYDsBsp6FpTC/9nVIgUsD7oviwM6/AG30PNvEzXUmYmgCMXBt0sQnrgjQcLtcYKMUi4AULwFvvfG4fsHHv4lI74/U52zMy7JO4jGy0AvzhdZLwwZTkKV7JuINpdrYyUcFlIId8v3btnB0/cZWJ+qR985vPAmLkF6cNgVEIYL4Wz9YkW+N0iffFvwWIBLo0OXENMhlq7GiyKLN2FrcBBe2U1NGxJDMzSoL3j94EmLGFSrtOhUlZ9FAq8/MoO6aLaJXws50t2thN5C0Wn7Ex+GC+aC+8sB/NL6ucyd95g3ADx6YARhqYARxQBFwEZsRYentYEcDsbiWLHwoaADmGyilRoeNzBZhRiwQTmgkAi3QSGCFcYBeoXLMQCVSQH4x7MLsKXShCp9pKTqG8D/ORHW0ZxFeAuHtHCXJXfIFNCT9ihve5nTs7gVPwAETG10SRecmrhDCWxkEVyytQGJBOarGxsTtEJVyiDsSgGSYeyEA3ewhNOTMuY1dXnmLqWkY2j+lpjhnthYuXYNJigGoMOcEuuYmqu/cgJqEhqtCDhmgXCBV1GNQLmh6p+lmc2prDAXY/ZrAhmOsg5x062Jxdu7LCeRawcIF8pTZEa0EsjjYW40sAK49lAUIaR+YOaY5kE8wjPAQKmhHi0iS0sy1Dns3/hLp8CbPQLxxbNREdFWXW1YfUMGhh1Mg+NJzG6oJafStH6hJlKOGLwguACDZ6pKP29svsJgEQdGM5wIXMfNlMP2kfdG2POt8kJonWwm3raptygDvC4Nm9e4S6A/pm2e9Ggkmo0k1WsnFqtRGmPz5XIZjsoiXaV747rZgX5MvT070HWi2g8cEsienjjTfPIbinKfMiDsd9duDAHkBWezBBQCdfsUV7q/5lHMSnpwnJzwD44uwNm5jN2SHaKIPKUhpFOStrxiAwJs2To+PHctDv0TxKsOpwL3vv/gIztKmAbTNmUuuy05/eABxMsYKvB7+eWfr5oms4W9gGQnGUxFDUJ6Qy7gIAFlqlZaoA9Pa4Q3B7R6eDImm/xKRkvhETXMIfJi+NIf1AtuzWtj2834GteYwxcNf+r//7Vzje78Vc+xLmvD7MQPilseqwRPRtbQ2i/ZPkd68udYaYE7/6l49YcXQa0J63w6ww2rfvMHkBsLm/zJ4O6pMFHMcVXFAXlzVg4iE+IC2U6CAqiDEJxPhkJnKGRHsoQtGfVrSfC19l6trLKov5eQW9m3ETprSsoouaVyZ68SBnoErXP+JYiOOhVpT0W0qBR08B+l3sg3RIyYHQPYP2QnwgbCEToLcmCD5P5SGNW+aLdgcNxk9/dtT+wCo/+Zy+8s1X4Bm9TEZZyIHPnO9vpPGjpc5hyLnmRTBEGnvJKGnNVzAH51Bt7xraC38u2JXLF3C8v8LeSTfQnkoDfsReeP4AfL2ZUAcByLi/I2Vpay04DxD20gKSIoNOJib5S0p2oLNgMsxYB7AsoxjQ5GpyAm0v7Pw3v/kM2bwEP5n3/d6KqwRPpaDiZeVijnoGHimfmxYCrLYzYc9lkQGjB3EjUaRhLQDQpEa+QZLgGxxKMDrjyHQU9/+R/SqHaQivBBvsH0El38OKgHHuo4HBX6JA6F0JIYPZFhC+PS0t1stMsBVQIudVOenKEShQVoKWI3BwqBEES4jjEYRfUXEpWJrZ0zOI5uEgGo2LduLMpF0bY1Z+JSwrLdEQQrFyKgpqeFWpCRv5MrP6Of8sEH78yk1QZ+cMDHDKmarMHWoOaVAEYBZQtc/NLcCI2UCHLtNKI/X19eAcOEr+aChYIaXZawX/A5nI1CXUGaXB8QkiP6Xy02c7NGtr3WO7+nehsViiAWd9abh8Rs5fvgoT1/42GDk6pVVpcbo1N3daC4CmD3oJXDU3t5FGN8wcemMa0aqMbE4AT2wZAa68AYaa5Wagk68agZZhdsszlEM1DEMkzHcdPCLAFXlRgo1qQw8cQnm/rB/SnMilhE/VQ/svVfA5ciwCrVRPgbaezi7fu2iwf4DOxdJ32rnCoJieXHb/FTmcStiUFamZQbpKLxfQVbgzrYqSeakVLZJAcAXBKDuoOrCA1JHDfWwBcIOlt1cIhDaLarFok9hd77L0r5kVcKtSM6i8ms2Tj+ohFeX8HAge5K6Ir21tu0m7m3qhTQJACUQVcN4tUYZMBg1RXbcXjeoP/Y7XGu/5cxtebEhkk58eVM2FdUJf/61upFmFgChxfnB6bmnpZzXXXbt1947NoNUUAOvrA0SyxDwPs1L/UsA3aVUU2Ve25kVfeqwgeD2AGc1+AKm0n5wCi5hXpOVTe+SYLckUpPaUWlgAsJe02wnMNDfXw4qxafv8izHMpPjVXN5j3/nuszhCtwGkpVoG4MKwcD/BfFNm1cP79s4fTrhmcu/eI7Zv7zOMJ/llMTdjJiYgW8D01MwEoIKvmrSxvi0CnSssw0wmM6KHwAy08JmVN0KY6am367sze9oxDxddQFOomDidHvCOScXqtDNngTTn9n4qHU+ID01H9SnGvjPwsp2GZpOmTy+nFPBu7Yd3waBFUL/2biq9hngB3dwdAOD34TrjDTBw8RJuDJynL8zZhx/fYqLYbINEsO8b2EXfxyeRsbWCj5hr2b2Py2QUgJAHV4W/iPNI4+HB5hijWsTSgm+anOxnZqRVX7QrN67hRnHbbqLlOXbiEvGo2tDEavy3WSdak4N7+/nUSkFNDhW8ds4/W5hRdDBpUiT4GXzxxu9MYbWYdr+8yak5j+82P5/z6MBTs/JTXSFN3ClwMSgwQWrFbUTrLPsG+ihTm7XCN1pQiMzNXqO8M/a9H/6ZjY40w9fkKgETSo4NAYwEksxIYkTRD0aq4BywS+uGMjjpvvLit2xsbtrmsVFV8BAu8mypGUGVWSDzVeti9r6XWA8jCLk2rUCR0EZweEwRkZKVAmGljEoiL2mI70xc9mwxKjng4mgIY85h7xrd/QIER6Bjpulif59OhL/aQQBGYjoGbFuBiQvFtnQAqlrYRA7DmwRlO8uMFTBsoFWzMQk15SNVl2xp7O7MezLj3Bq76RqD3p5ONAuYbHpxvkUtV8T/YwEw0tGCAK3MI0NVVhEUD2qEuPqM6BXLo86niKcFgElnexd7uYTZY6ncSZ0EYMqo2rUMlC0XADBtIOM2tDp6T97Vbvt0PyHSRunifF1aIUesmkEHxh6uw+z5HWKcCLKojq48rDsCM88DQF3NQhqKESOd/MqqQExoa9k7JWTljyEQRWxUd6zyFVHM8AVOWqGBlr/LI11I2Fd4IbCk7agoroeED2NHe2e5acTNbAIdvKvZeyJIFnHm1WyABxDMADaCuAm19/TuctNFd89eNxMU6EtdXWyhDVHaoZPaL2hgwgo0ebwv41i+QFyeS1du2ECfTFM95C3tg+LSTGB2w4wholYwvDpdH8chIS1GIsYSVKECouqHQVzL96wL8+QBtCS9tHURjcYI4KIZzcqAa6+kIdama1p6rPYVeBFQaW4LdnSpnKXV035HTQB1dxYmOw+MSPvksY03M5uQZm15ESq63lmbvAlQNtu3XvszgP91gl5dsT/88VN8lMY5X7SXX94NWKD/oUD55NNFtC7vE4sI9S4xiF7YdxBn3RHanHEtGw/5uEmVguTpsxU0oiVeXKXf5QC4KrjGedC+BPOOwLWuCjQ74+Z9T0tAWO1NmgqbLvCb1Uo1xl4zwG5gALuwDcPAb/rmkENswyC+IDW8hyxQUgLf7sgY8vACbHJsB3BSALMJ4dLL90YBdT1n2qEPBtO+XlW/x3yqnY+9n/KXrwI0k5NF9kk7bW8TGPL42Yq19xzCN+4IvpB9WBRQFmAtacbvReBEJl6NLMXN0oQoaF8CgNGKvyV8G5sBDL5ylTEinC/teA/+gntc2zrAuFNZivCAFc4pxtJdeArhDxiP3W2KPi++qpAiy/DceUqO3yoTbwEY8etFQkQswlu0qgkuwPtYcLJdyACCqLKhbhYn3O5uVinv6bb2LjTzTDwkJzRR7sLc7X6d8MVcEyuGMR/lWJV75Nk2283Y1lqfChMyn3TDK9Zx8ghaxPxl1pAGRt8lnKTalaATA331mZcJGz5jdybvWvvtu3zKz0UsiBkdTGZXR6/tGRyyXmaE0hQUYWB598ZUqnYDQgAAIABJREFUA0UGEj91LZxaTbTMMtFmgtcJIiiwnkBCfz8rMJaZbcGAu3u7SBfw4LEkIJ8mZ0qVPzJTqGKaibe2ammqZoGgQ4SAr0LhGTE4feo99SV1FE3sl1bwufAVVwq7r9VDSFseUnkE5FpZwrq0TAfQqifse7LtC32uyrHGyy8BpIaQUBIAQywpceovgIXYsQP79jooE4Pv6gZpSj1PJ1QcjKUF9obhPXXCAAwEtKRZCcvptOIq7BqdFJ4PQRVRwb+RjwShHxDDzUwuLMNMV5ebAGyKyFsi3Rxl9XLpPV7LEd+mCYm/iIPuysqilZi15xgY0oI5iucIpr9gvpHmTeYbT580BMRUbvUVlVV9xWfbPKKS0D+Vgucd+lnWN+iUhJXz9iL1l99GJ3RvxUeoBR+QtsICwrWdmQBaKnqr2kwkVR+XucDbj/SlGVjC0bsCAxgeGnLzWIt2X+UlBRtsZsDltLRPhuTGQ+TzktUd/PCJzJprekIXN0ij4dHNfnoKCfNS39XgD59qxSyaFjkps3qnt9ufGxkhthLgUH4gCs/vO3w7IpEKNdigBYJEFF+FlpjtSgByhQ2QTVzxdkOHl0YMJibToUxZMJY8zC/sfRXaf6BjAA2O7Ns4kV/HmZiAlON3Vlhuv2wHDux3BvvW20exmX/K+Oi2555/AafsYfJVGAJpWnz+6Nn5ZERlBrhoNMvBviiAHIggQiS0VN2d7fpvp7AzeRVbYD0UX+BmBXOrHOa1ki6PzrqTMVQq9aERuoLmaNJe/oY0VTzv4CeYrD1ZT4RronZCf7/ecGwFYJSs0z49Ugo8EAXoQc5TYocOHDHwmaBJlqz1R7wP02ORS1Os/Dt3cRzNy3mbWhm1fBvbj2CVGBoe9JAUs9hmtD9SF5px8VDxEWk0NR5jQmFsoZ1GCGpCoAmFTwrgGbJCdHW2wiP3YVVBu05aeVaaaJK9KtM1K4MX0bQUCWIrgDJDgaW5F3jxSP2MJy2qaWP1kPg3RiY3S2kBh1YgthL3Ko+8zGqFFFuITKHtyaGI6OnGosN8pglvX8nJHDJRtFhE6SAfTYV1cF8+TE3S/GtVbidaGed3CYDZMA5MbJs4mOOnZtbLrIP1jeiAQjPlOdRal+yGnApvLxEX5ZxN3cVXo2Wv9XTgdNM6gNBB+MGMPF6L2kS2Oc9AauCQk5BiELThTuB+oXFdskoIM2N04Sx1sr8W/oYUar9VN68fzE6nO/4hVMNKBvH5oJ2IOdd/KsWwpj2mJyaoq8kpE41HD9Rvdcakl3kidWUPiSZ/dT05mX1L+RF+x3QDU3XmymMOeHSQdvgWmHt8y8EXh9+rPhPr5DUID1T/xvdDevIz8PqQgL7pb71ArVVDOXiL8UgCgvSsBJDnUSunJ5P8dv+FJI/YbxxH6QlPMgiocCX+rZVR6eh192VIBJw7iPGeSONtmgiixjT0rrRX6m/RlKb2qvlb6QlGQgLG1r6/PrXN7wfKbX5/izvSMNTdDimF+gvsBVAWfqvODm40DVO/FyDWu06X2lH/UzT2EVLXb2M7h2tJ/62+pLTCGZxo1dZyvi2h/p1BDYxzL3s0admya9goizS0wzDPPXt2w2TaKLPiDgm8a6l7AC8qo9rP03QQrTZRfTSuVaJwzz+VvxdS7+iLyp/UQ7VJ6qLaKyaMa5ey826e7eoYIWbUOM73J4ny223/7t//GTPMDE6K9AP8pzTeWuBBopsC47nJUVk9wCEqaTKWHikFHowC4qXJm/JVlGpbvEimHuexHHyM37lh/SwSmVW8l0IXJvWK/Q//4/9hR1mZ2NN/hFWaL6CB2csED+daqcY1RjSZQeXhWwNo8PgZjzC+ZNJlFPjzgYfomcjjQ7/24cd959XiOcjtmL7G5jwuGXpGwOUOJm6dmoz24KupxT4DmLQ04sWzFYRSfrJB/koLyvgWg/OyabKtYogfSaaEVYMK5hl9A7NoYDKZu4CjOftv/u1rrEAkZerJVM5ZmfJYp4FR8Tc/BAoUDl8sqWx9mBCe3XPIRtHiTg6hLCLK3+lT4yC4IffpUPAyFdY1Ql5Y/ZL6WjmIqAmRnVoNgrfKYPUwRKfBQ8PozeQ9L6hT2r/54UxSDRD8QfRbK17CRnh600tSfbz+S0ilsRy1J8Jbwdk45FX/9sZpJjVPHof4Ktea8q8tSqCNrsX06gQel4KqPb5TyzN8Uw02nyF6zUPPXJtpkozXf8NqqBMHQOnCcQ29a+XU6+WE/iGppFSep5omEVb+a+2xtl0kqoJmwt/jHy2Y0K0RoDUmFO57TjE/N03eX1ffkAzVrOr7X2NNNv/tPbMKLGrPVfMiWalvdYQdz/mia5xiHu6b5INobf6NpfHfnoy+1e6K8WjDTQcJ9MPwkD4DzdQ3ilrqjq5Qy+Lb2/thkG0wxnYY1x1s49Nuduwktk939yjgBW0NmtKV5QU3na6gsdVMMAAoFVp58zspgvd7gRoVzQ8VMvSoeDH5VX1CX6r8godksy/iACiGp+X+Kru0odq5/sbNaV/SvWef7mrCJB7A5qLY+t0PJ8mrylrW5HIPP0Q/leceHk0fSSlwzxQIwyA8zvcO3CMUUbqJ1ZNaeqzQSdPEcMoV+lnAMkooBG2vE5YRqzcGsyY80nlH4KRxbPlnZAP6KofeNQOgNv5VgMhaoqnUx0xANdxEY86CGH0WZJJnLLaihRWAkaakA/OPzNAhnVgu/QouDzJjN7F1joqjzVzFG7y0AkkOYuD73AwrBuH4gBXhBalLBK+8bJrM6UPP8XlfXF0vFFANyYESw4mrpntAiF0EKWtlY8ahXbM21q/C9TArY++FxAFURJCzaRRBXoJHdETC69O1GWKYEmTJ6fDxMR5bCfHHWKyHmrXq6AK3TtDWf7+XzB703fvN517K8mU+E8tfrYcGXfWQ8NeFNRfXFK/KbDYtdPJu5ADVtGrjQrM5afrkVC1fKNnR5SOmyMfSbPX2sDUAMy6BF8dCPtbkhBgYqGddZZK6llwXEtnh8FOUhSXs67JGawWc8pRGSAx0bOwypqQ5YkVoWw1lhacMtvUSYR4ErJxum5NuU4qlN1IKPBoKJGPDJxNx4rnqbhszrMDMFwhZwSqeKaKcT7LKrof4X7t37wHgsO2IrCCJn2rw/5TfosT5zgbYOv6jUZPwc596SxMu30LGk/Jtw3lXAEZjsRnw0sh/ar8jH3i4lLwvAKPRL6WNmKiWTmuWiLXK58q4PPiqBq1Okdq24lFwhbyk/QjgxWeVawBE5Cb3w1Xu7VkR3RvjPqdbWwrAmPUO+oibsrbgoo0d4OE2985T25I+dZ19o5y2e7fxnY2e3+ha/Xv1wCk+u907jfk+7t9ryu1DJoDBCBYeXAqHDuzB5LwPwjj9Uo25yKFPWmk5ycmJNsSB6vKx1MsmWSus5BoaZNk2S6OXcJyWDV5bDQQwIRV5mCFVabgm/Xsbu1vRv+hL+fGBcce/4G8lADOI6prQS3b+/GX77vde9pUNCnwHm5XFP9TXzT8qw4MPYNcQbfH6V62vbUXr9N6jpEAyFgRe/GsybuTDxgX5schrUg6tZz677ivvDh0axc+kw8GLfEND0Fl83AASLlsToLGu1El/VTbqn1uNwkaeqd9RJum9EmNPVnxdF4Bp0f5j1clq4vPJc41yLPwOfCzk76VJ6h7Kvq7c93DhPgGM8hNx5ZInQRxmXbqWR33VigNPCU9D+SHI4iB1lZw63YdBb4kDOzG34ABbFnor0tderDGRhEgilRp4h4dPIFX0B0xKrwXTwOYJNDb8Dov8WF6PtK52fA2a+6T//T4fK6r3HvTdx0KsLzlTH7+ufRHDFOBQAepAh2ss3VWJezBTxrAcoAcIKtlLOAEFrtJqPmEBOfkrSKUc30XzNXOTR1EvyiTwIhO2wIk+tepQoR16CXmgsA5XLt+0u3dewukbM7dvqConxcDmZIv3Qm4+/B5FqdM0UwpsQAF1Qp0CMALYySFHVsnTZD+8mSmzYx+fwQRKMM/BPR62QghCygH1ZY1V8VnFF/Odqrfp29vc3pJ36l1pMt2JNpHhAjFxQKkcPj7rChHz06VQ4x0I0BqVqt/uC8DEiZuDF8UN4VOWZdFSK3Lz+LwEL33dB7iIyeDII6rK0U8E1kqJ2lGt3gZFe7BLmwGAqjDdJtnthF/oXtsksoPb2+W/g6Qfyqv3U777eba+cFu9t9W9xgrez7ON7z7O3+qrKrs+I9QP/Xc79qOhtvkzYfIhhiNmoufi7E9XAlPSiiEJes3qdMkj9vKcO8zhR9LCMmjxL60wU+ylLGpjfWrVmVYaNmu5wKZHrM2mD2xzI5SxhRVqFWzmvuqOwpTIW6psxbO5dv2aXbxwk6B67PlCHQTNxPS1yk118g30dnB4O2xRja3ov4Ns01f/f/be/Emu48jzjKrMrLsK90kQvCRSt/qa7e7Ztt7LZszabHdm/r/9dXfHbHate7t3rKXRdGtaolqi1Doo3jdBgCAJ4kadWVVZud+Pe/jLl9fLqiyABMCMwkO+F6eHR4S7h4dHxOOCgeg7Nk558GAcsjvPlQPcCVSTwMIJE2+9eS29+/bHOiH9onYKHbddthjCc+il0wmywE5Fqx0akxyjMNSpqFH9M2jPsDzMLMNWVnJFSrTKKA/0IgdRVpRX/GYxJsQZn0woZQXdGgYL/hW1HZQs7FicSBoRhELoYQkJ7UtDxn9sV0W0MeNZ09WgyJVQc8DlnEEQjPIzoh8YLEUe5j8qv/sdHnAM+73f5X3R+fV2WMof5DcMrkFtF3GrwiJODJpRA3VY+V+2/7B+sV//0fA74WSW5xoY/w6C0mkr+Wg26Lv2EGKYgGj7v5QYCC/s1mPHAzuPgM20rkGcbJznp2D28VLB/UcDLxg42ZljGdD0cpAkJIwt1TUZFh/VOU6301tvfWSHP1LSNvvr+eXCFTmvt71O3AQDXx4GYozYMEGA4Uh+WZZi6CpFAGYYq7rz7J9/9rLdgXf+7FOio2g6UQ64YMASapnO2W3P98ENozWMHjQsTGh8GxBjDM2PtmPnB80sjx2wasoZjbj829k4cB+AzFkcUIBB+HJ11a4OTgH3zG64LJGJly0XqWHanIOieHaSq9ErRB22UVlN7h/0A3IKJldmdoP8BiTdl9ehoD8c7d4XfI9TpBioj1OdRtVlUF8d5Dcqn6pwRqNrYIilHl2aWGDLAt7tfCOMYUSg0LAw8+PcJfo/B0za5Zw2exFRs3cZ+HM7W1l4Md+yO/wA2OZAPAlQW9piyiF+XJNgF8pJkJnXycT37m2lqx/f0pkVErRUHCeDUuoud7T0gjP5nmDgS8VA5iZi8nYztcZTyzQauixXAvi6Ntu9+sr7GlNz2nl0xu5CY6Lgxxl0T9SLU+jp5OWnVL/98K4QXgahxeiQLVMxcYAesFUaA34JLAgu2R8/O8YiP9AJ247dax83qJAD+g3U9wIoRAwrZwha7C/v5M2SkKuwOIEVq2REE7N0UR1NBa0/jnIHZpaOkNVYs0b91RFiAqX7QW2UXk2GaMhe15lVUk51+t60g75tKW3iBmKgLDj2akHKYQMTy7Ocpjd+b37D8jiM/6Dyy3AM6l/l8nph7oXFhLJez/hWQN8sSn4dmJS2EBCGZVLt7+cAEUed2ADhPz1ZiOEcF5tuFJMNiJaPWfSvLBPZ0pGthUsoEEH1s4u0PCPBwkSjrA62uvYINJX1B5IKVTK3f8xq+yh0aUFXKVAH3rkwZldC1OnTZ3V9x4X0zjsf6+A9HXqlu2HY0YFDuOKIGnZRHMaNgn9U+x+m7EnaRx0D6P9y/4OHWF+HJ8KzjEPaqdoyOZNSYCq98cZNHV/Qlj3XWU0g2P3rqYsxYtoBUvEjzsryb8X4iaKrsDho/FmfJ1/IROafLFeV2SAwlNP25UN65Aqb9Fhs+3OyQ95WCwowR3qntR16Ev4Rh7HWJ8AYQZALC39+g6gSVkdNpbLsyGJTZ7mWhWRYRg9zGTxAK0WJ97LfsBzwn0gOVdiZhN0/DDy+jCjGkBO/zpjqJiCdcVoec6iOwTH/ZcL5RY9Jm6kCkxN9QInDGTFOnp09ousO1nSb+efp2WfO2FbvXZ3ePS1NsckuRij3S2+6+5PTcAjq/etnk5y+whiwU51h6J0+zV1inAq/ttbWxcWfiIkvynj+lBnMc9UMekSTW8J9GX3xIWLDfQJMWOxDwONOJPxAoAso+OtuA0spIqbZmL3pp2UqIieMTmSCSHrciQASvW7y+zBjoCy89Aoyvd+99agO7xUaPHXQA/t90NzR1IflEsvUqIoaRryYQQFsOW0vJnq/I25VGb1per8z7GQRpylzkmdeykKoWdEhe59fu64DNd9Lf/5nZ7TEJEqkwzfntcZNMm5897X43rxHf4M6IKjSwI7S0I0u5eGOUd2/6b6Had+Hu+6HhQ7zW+tBpnZgR5x8tGLAUW1MB1w/M6tTbnWNx8ft9Jvf6MZpCeQnTpyWphHNJ2erHWTMHRbiQelt8A0K+FL8+gQYjudGcLE7DuSuX79uati7d7nxVSda6m6ZI7qnZUH31cxwAqbqQ5Uw7kOVzEmjxdH0CihUTlWj/kup+niFPlzNN14dJqmGY2CY8DKKcEeO1fEyASsRgC+W4Ef55fr3EqPhPRwS67F705DfoHT44SJ+JhaDkpdBqngPCPzgrwwNa+02LdVZNbpA9s7tT9I7b19Kd+/8a50aLOaAzFWCoiL7SdAIDHyx/XUEMI9cMH3U1jE1JNzgllvoEaixf+HsF2KIzabXX/8ovfvuVWkR/0RCjO77wq60UBCUKl4eSzHchuBlRPCQVN3ePsrHy2m8VNVg9QkwoYHB7gWh5fLly7pBcsl2GqB5ubu6obtGdOreHLdIOlKnsY6mTbJ6FyJjgozS+DuES5jO9MuJHYBFlQ5atUNQwGp8jA6lGgcFt5Trlwj56LpNYhQYGCbI2PkLFa5KgIkZmM21Sp3IWO9hOlUFPN1BsQYdvk6ObBx2dcxSBy9NPDxKLCMpD/Mgbo6f7WiGg2M1HR68zxCHIy8hWY5Ob5jRclrpkZVT6fPrV9NHl6+lc0+c1RkaOvAOsJUQ+x1fftpnYaVovoTk+QxL/cW047DSJ/4PNwboud30w/uLDOeNU7pQo8WO9Mrv39FdX9i/yHhXWsPlZSkVtta18gHLHjKGlH1fSJ/HITCUx/vYWY6dcDjMQwUY7F3Qvty6dcsM5Y4fPy7DuYW0cUum0WaxizmO34bLceOy5bVT+kIDY1oYhBgjLgDga+b3h4QNr9AXEuIU9OBFPYAGPDgQkxRVGOgVQHoFmd7w3ryqw+k48ZRSijNaui9IiHEY6Iy5I2fC1E/+FGCDN8fL47iAHHiLBXkCezt4eaDwHnn1xuvF4rBvcBT5dPKAxrhwKKNdncAL0b9+vaUdHG+k73zvSDp9nAM2/awqu6zV7l05uLOiVd+STNeXyeO+hDRKgH/c69/X4AfwsEtl7SJCNsCgbanr7jiJNJr47+nUa4x5MTT/5NON9MEHV+zclyXdNQRtYAcgt8vHxaj7LrY8BPedaFTEMcfvA6BxfQIMS0dIhQgta2tr9s6yElu31nR99hTHFuvh/AXUXrscOS4kIVdC62yMl/5ciJGnCTT8jFn5UTidhE8wcJ8x0Cu8kH21gDIq3EdHCARf/Gw9yme0Mg7zWOSnclzGmA1qyO8+x7HlfT+paLlsCIq1SlEGn8vLR1XkdPr1b15Of/W/flMCzDntnhITkEEvt2x3nXxK8n26/Qgw+8zqkY02EWDGbzoXYLjMkGVNCS/KimG3J8FmT4bm7DLa3q6nt9/6IN2+s66bnb+hlY2anbfU1IWpfqD0/RxLB60Loyueg6Yl/j5pxgGy7hNgYtshdjB37twREk/6tfUrK0KirrcWMbKbnW0Dk5aOuBJcBITzpOz0TgOSWyYD2FCZRcUhNgeAsBzVZqi9xHMAUrry78T3WdqYZVuyQeUfID+BYlvHDpCkq/pjppskOxwGRgkt+88dTQtrGT4WbEKSexXCDEEcAFXuHzDN+Paerv/H7EAdgSlKBXLyGzCGrFLd/p4qyvdtkBbN0ndGvPmFjwkv5XzG7/8OK8a45Mc0CdqCES9FgEzOpNHVB7IZaKeF9N77l7UMzuSKu9sUl+3fRpv248pI9ndLR/ONif/AQ8DfDUVVph7mOuycyoDBvzedt0XRpgWwkUe51MBEFUa68582dMvP7uwBGa5NSG2d0Aw/yFnxy015tE9snSWIVutyGb7eWgSuOr+RqlznDtzFW1dGvbkSK3hUzsel0px5xC/hxbz45uEMFOrEONaty2bHovpb38OfFYjcHylHQjTCStRBOhR9KR80MLrmgmNe0bzo2mU95Debmqvt9MGHN3VlR0P2W8dk97Kjm5+X073Vu7YCwkpHx/XWrxzGewc/EXKY0Uceo0rshaD3G4jcWBlIwAVgBn7tIz+e0stT3FJVIha/fQJMFAjR/trXvmaGu52Dc1C/6hZqbfVqt3TirrYmLskeBkC26JpaQppu19W4uip7Std9a8v1nhqWventdlw9oA49LgWw2nTWvgc1UMDfqb6jrON/2CYol99d2ugvb4X+bjU65STGF4OBslZkkIak75yWA4Llbd/fB2NQMqB7+0fnuzfkgIUbFWDIR/nl/PaRt9LbWU+lYn0oV6UlzFM44dJnjh6CYVlAHITzKA6tStLMFXrXnuJm7B3RFZaDxCLFTGAQnE81P99Ix048l5rXtJ36ckoXLrbTyhGp55WOW3SNieCGCW4FUwPuqG0mu1lYC5gO8ov22ZcAyqm6y7DyDLwyluObegYxR3iAm0V6EiEaOZ3t9CLCEfR4+N8X3Dzc03TiRh78Rr4uKJrgLeFwSnhucOHn1Gra1u6upFPXp6YW0+1bU+n658302mvv6tj7Y+m5Z3Vz8rmZNMvuL6UN8dYPR/Q6ciYPQpC3eW4TgxLHdzD/CDOdv/yLnhSRi/x7GbR/Z1wK9j34U5EKOMgPXDp+HM7AC+UjiLhtimtQ6G8SQHYlcJBSyXZoV12pwTb9dtpJm62NNFfTBahpRoKIpvqsWiisubmTFud0ezNoQ16R3y5FqHwubmwKlMsftdNLL32Uzpx9Pp09f0H9WasfSdoXbZjhcLt63k1nhRuOqE0v7jy0O07E6tS+HGu/71HifuP3QkKl+bP72HgznPFuiHCk8EMc5Ibi13uwC8YKp+mULKcqF9N5p2PFCX8caMfDAVfcd1TDcNf6YbnJ5WFSJyfyetYufdM5HOBqZA+Go9838uoP6fehwcpPf4yD+5TrcpD3g5c0SfF4YcB7Yh6YDM78dI+PYX3qfuAiiEWZOeC3TwcBKj37G8+d8do7Gg/ybdRGDAiG4oJTzO6hL85oIWrcJXPixBNiVkvayfG5GfDC6iXuWLyhzsCM8MGQVaQemm0nIOO5D4we/BdLbr0wQLQ5e4vHKW93Tynn08F5lO9L+4gwaE/i8R0wjhfwOOSx4+73tMTBVFVLHvprciOyCQXT6eqnzfSzn7+TXvzZO+n/+8+/TC+/ciWtazswzzaHhCntxsa9LvwXAuxAzPXgxOJ0/Drt0I0BUFc8Ahm5Kx4uIexqv8iuT2D1/lT0ldwnSL25taYJfdNtPl0ZY3Yrq9KcrG9z4Yb6p4S6HcNvvptI5VBugyPrS84EGEkzUhFY/2wq/auvXU1r69O6Tf2I4muXrzQ0LQnpdrN6TYoBc+V+Uc5x2Hu5L5T59f6oTn9PGlbOKP9O+3V6b7lViwbJtfSSy23m9NLLwb9PAxOdygYI1KDLMYvhaHF1Wtp44iYYmGBggoEvDQNBWjt0inM2d7b3bOl7TrPd3738Svp3/+F7aeWo9DMwHBlD9jKmbvD7hYb7Vb2CffaS1Sig8A8YS7AWE0AJL0bR9Z/FL8cNjUEIp4TrvcgXTUgwZzx5+HamFhHjizIQse3PtvAKfbMqd1rsWbicnl7SqbFLaVO7Zt5/93r68Y9/rQMEr8vUYC2dOXM6/emfPiteoVzE4RsNDFW3NasWE2ZyC/jGX5yVUaUOFAEbJRbAW/m+JGOv9lWkMnQws++ekxuqjOHjuvPq+A+bx5OOB+HNcTWt1YdpCRK7qtP2znTa3UrS8q2njz+5Itzspa9/4wkdM7KgAxQluGldoq7G0jWiwsF00nVdtqLBX5IgDg+1rdGyc2FpaH0tpV+89C8SknZkvLuiPOZTc+eeBCTXUtnlpBPGm9vSf/oEmK7QAR+mQjfhxgP5ie4xIPrEa4KBCQYmGHhAGAhG12FMTpfYtVFPp0+eTpev/Eonml5LTz9zrmCQwylWULJgXAH2faJwAeag7Hp5qzFbInZT2CKaneIK4y3PJBVqecdvJCeVnqy16dS/A0i5+HgvfhUNlT/MdnZGTBu7Rwki87qeQVdSyeh0T4LipfThpduKo52qW9ti6Bvp08/a6emnlUutIc1EMzXmdb1MvqqiS3hR/l2T5QyWlx8w+q8vYXZDWIa9zbaePic//TNsEtylcckBtoUZQEjcwUsZv4gijbqWgBR3r6YvrQtdv7Wbfv7Sy+m3v33Dbmr/y3vt9Kd//s20dLqmJbZV1XvLzSpaEtyY+Lcl7SHUaQXDtvZLeJGZrrQ3Kd240UzvvfeRhL3TOmdtWdG1PCfNC7uTTJDMQmRf9b7CHn2i5yDNC1qZeEJyCQGm3NT9GpuvMGYnVZ9gYIKBB4ABKE6Z6kQRzriwq2CStbW1mc6fP6/dlO308suv2+3U+dDwHpgiPwSBeO/9vZ/VGJW3cdhcYO9v9i6ygPnCDXnQavDNU6pTrJ+Qqy39YSuEIXTnd5plfz38lh+LK03BlOwXp/Y4q0S2L1oc2W7tCMdzYsZJNi976W//31+k3//+47S0fCE9+eR3ZL/xQnr/0p30k59pN43jWA6OAAAgAElEQVRWjaYkTN7b2RTjh+nrkQABmLakY7ACs8MAHP5Ecyjc6sCvNEJKOF08EuHk3SWP9KKolI0Fma1LtLV56IENxoMgwxO4Z3EH1Z3byrAMucnlpepMshVPd1bX02uvX0r/8pvLOjn3Wnr5t9fTnZuedlbXAFDWtJaBpmuqPfXAdkuaqCRr6Db+Wm4Cmnv3dtKlDz8zm5njx09Le+iH19XMxojTenVkCTeUDuz78v6KukoNTCG0gDbraCwfOaai3wXeEGgmAsxXtBdNqj3BwJeCAWd8Ba8piLszxiPaxbG0eNRO5b3+eTtdvACREqAx+yrF72YM0LoH41iO6aeTVeUBcGbygGTM3JdguiA0nkm80lNw9ojpAoxJD+bg/vETZYCjPK+1eHoiS71jszGlI+13Bcblj/bST3/6Znrpl+9KK7OYvv7896Q50CntS8fS+x+8kX72i9fT1184l5a0pDIte45tCQHkjCAJP3Gj17xwlLUL2dzEgaJgYzSAkeFzFYr7Fe0HzDlaRk2uVo7X+UGLYkKM1Q1och27YuYyzTKFdxd4WFDD6ooHvcmOvK9cvZ0+vbYhA9tFgbqoJbTN9OEHm+mZ5xa1/Rl7UV27Qx6qdKslbUxtR98IJLJ9kYAok2jL/dq11fTqq+/bVRhnzz6hy1JlALyjXUsSYICB25w5soRLkieug4GR2OgebPQ8OoD3K/qSCTYFQZigdoKBCQYmGPgiMADx0WNECCbkDnrEjdmcHr7XupcWF1Z0GOfN9OGHa+nsqeU0v9CJ2w9lMK7ekEhTlbY3zfBvhJh+1+sXZWXGrTQsI/jOI1ge4VnrYpllRltoGDKjNv/AEeQeI+gsoJCFCQhAFOVEXMvU5AaiWO7SxOylpbS1XUsfvNtM//STd3TWzqXUmD2Znjh7MZ08ddaWPJ6QsLKhs8Ou3/wo/finv0+LR/8wfeM7S6a9YdcPu5I4ioNmQ6CgzdwShhIdHv8FgLJfrrPVkXhlp2/Lz+tBjp44fnM+gR8T0qhYOTzyw6+cv9VePkCppSDVEQjefX9TwtsbOp1+Kj118bu6WmdJByjeTb/4xdtp+cgL6XvfX9DW53kJfE0JKpg+I7xg3EtusiMy3DdkS5PSx1duS1P4jg6vu6iDGE8KP7phXcbPDZ0Bk2TE29ayna5NynAZUiZOGMg9uYOLstYllpP4ZTcSj2tihNPcvvFNDv0ziwmOJxiYYGCCgQeBgWA85Vk0M1VOB29qJqttqTLQaDQWJMg00qdX72gbq+CAbsVyi3PHDJwF5KcMby8jPAzzUP5d6x3DyuzBl4Gg//QPNhjLGQURJnohxCG4KE4+l6RY/jA/mHB2Vg3Yvfzwt0e7i/Srnej5hFjt3tI728/tUQrsP27e0lbfX72ffvDDX6VLV+6kp57+Rnr2ua9pt1FTws2GjFiX0vMvfFPahsX0c2lhfv3bS2l9A8glAOn8lD2WRFQfYGFphLJdMIulGi/JNR8lYSXjAER0MKc65PSGG6tnrj84sKfjb/W1v9zahtNBD2WgO+nsFOQbCLeFlDvr7fTKq5clwL2v3UNz0j59P33r23+Ubt9tqr7vpF8JP9dkA6SNWnpkAwTD1HpXFkOt3rscUaLqcWXAjRub6dJH17T7aEm2NBJ6OOmeJBJkzDBZcHJ4rENK200cGOgTYAbZwFShqiy0lIWZqjSTsAkGJhiYYGAsDHTWGJTcOHt+IjcdYadZ7/r6nrQvy+mpJ5/T8tE9XSvwvnZ5sHwjRmw3+mIYydHtnMHhfzu7fsUAV6Kw24MzW3i4i4bNH9PYjsQWZmVUnuDtl24iYDkT1S/vYmzlZxuOR42UPwavtgMlw8rOF/yxIWEez03GyC0s5+zqpY1WgQoqbLe9rfNJmq71MBaNa8voVietywB1SjYYWzur9th5OrLN2NpbS3c2rqf1nbsSWHZNaNkUfNsINFLcbOv7qpjy//UfX0z/8T/9WGmOpj/4w3+tHV4npHFZ0/142OvuqIx1MeIZCTXPSztzPP3oR79JP/j792WHpB1iu7Kr0bJKXQ/nfHDnHqLRNIKTYGaze+IXoQN7GWkhtja3lI4G4MwxLd0oaFvfW0q7o2UVE4Ksjgg7bEre1v/k5QLRbntT8ZBeDWv6cwEo+o7JRfnpHBQ3LWEMixfsfqbTJic4SwDbUt+Z0nLQz2Tf89d//RNpUY6mF77xJ9K4HE8z83Ppv/+LvxR89fT3P3gp/fCHb6ZbN9sSolkyou/UhWO2TCMIyRJpRnYuArkpUH/wwxelHTyRnrz4lOqmtlNf5NiSPRklI8TY+UXZfEOAPDBnu6QO8RwWsPKY6s0renHZv28JqVoIGZRFbzGT7wkGJhiYYOBBYCDmypF3j/DCpzExBA4/PK2uXSNHVk6nWze2pIVppwtnxWTRJhvlQwgRMxFTqWnGW69jb8DBYxi5umbHWKOEA6wenOEdjgaS2tknHBMYSk6Bs7N+1gdCU2i5d8VVocssOazLOHlG22s5sG5H54bYooZWGZBdmjoVbVuMr64tyzNs9zVc+PmviGPM6Mk/zoCZnUUggKHC8MWqxZgXF+cltOykq3c/kdZkW1t6pTcRDtEM7GwvpL/9m1+nN9+5JeZ7Oh05fkFCy7Ll2xLThdUvLetQu9s3hc/FdPr0aWkXnpOdyLvplZc/SxfOnU//3R/PCzYJLqrTjAwq58XEJY7omprVtCTB04Sv7d20K67e0OFtNdV1bhYhckpX22gJpo7QhqG2n0sG9nawy5FBLGbJLp4g0MniRssugcOa2tS1F9FnAvku+mRLHBMSaKOW+kSjMascs3groVELOjqgbjr99rWbWiZ6K929N52OHn0yHT12LjV00fG2JLSaznq5+PTX0vVraGc+1Gm6C+nf/Nun07lzEogkETZquhhZedJywItYdOkjzpfRUXYzaF4EgIHoohZxXWOY+z5hh+uCoGyoq15F6cXd0Gzua4AL+IOz7BNgBkeb+E4wMMHABAMPEwYyMTU7GOAKyu6E3nZ8KGx2ZjGdPfNU+uSTz9Kbb36avv/dJ8QQg3mRijM4YCPSr2iGj5Fq3aQb2L+YiNZTGrFzQb7OEJ2DVBP7YbhyhtlhpsGNvB6UidYFV9fprjhSIJDVp7QjpSEDWoF761Yz3byxJuFiKZ05PSPBQ/foaMfVwsJSTiMNirQZLFPY/ZXaqmsmANoNs61lHjQcnKiLLcZmix1CEuIkFNxeX02vvPZmeufdD7UcgnGqWOj0rIxKdSFm82j61Ys301zjqXTq7HMq98m0oGPuWxIWbPeSNDs8bBVmB9Py8rF0Xgapt27e0jkxd9LfNX+Rzp78H9I3XmBnk3aKyQp2dgEBATsQNDEIMKqn7D7qEgTwYuONaaPQVEiz8dmn69JYtCRQ1XXWzHxaXkJAQ5iTTkN1mpbWBkGspqP6EQLQs+H4n+sk0Gb4Vwg73m9c8PElGg7oawj3tVxuWzuxZrSTioWtT2+0009/8qp2XV0W7s/I4PZp4X5JWhm6m46xm5lKF568aP3kgw9eTz/80b9IM1NL/9P/8mQ6dUKGvvlvY2tDp9jr7Bctrf36N29rubOWjh09I/gRYBBvVGH9cvIyEHKFD3261qWBtKo9tg7BxRSK2dnYK33j3SfAVA9KNfoDlP4e25aYVGyCgQkG7hMGegmQM6BO5i7AwPBhQDOygTl75qJO5P0gvfnGB1rGeELnl3Riw9SnWszwxTDQwtiuD9eR7IrBTnHqeF5o50JIGHQQ1dBWV9PMAdWGCZnNSj9FZtkI7YtrgzxtqPSntYyg1ZT09jvXtV337fT5tXvp9KmL6bvf+VZ66ilpV8T/2RnjOiiRdjFrDD8Dfopr7dXEZI9kPgBLll5BB7Np0cL0MC/+8sX0m9+/JgPVyzpFV8s3WjdqSojZ1vbe7XXZZ+x9Mz37xJl05txFuykZeDGaaUjAmdKFhBvrmxIqloRKLbds3rNj9C9eeCZd+fiz9Nor76Rf/PyttLL0rfTs09JIbOoKGi2fLMzU7QJOhMddGWDPzaKl4KbmadVHgqWq0pRwtiq5659efEsXHa7quoiZ9P3vfyN9+1vHpOWQZkNH7COcsBwjNFn9EAbBhYsl0qBIGkJow3kbmmhY8ERf2uO6CZ16mxt5fX1HN5xLcFSyTdm9/PDvf5de1pbpqfZKeuaZb6Rjx07Ykg+GyZyai0PwPHPuSdOWffrp2+nvf/iShJjp9Fd/dcGEMXYkbcsQelN5fvxxW2fIvCn/BQlkT6p/0fcEuXYd8fiJ9kpDl4H59jBwK/A+uuq+TOHx3MdCB2QVwktneTVPHnrq3yfADMhr4jXBwAQDEww8JBgIpj+YmDoBhpH4ZItlgCMrJ8TI59Ply9fSqg4aY9aOVgJ7B5kZ2N1urT1sJjrEGSEC1mczYjn4NNtaZyTkhA6lmtiPQFefEEN5MF8ZbVqRXg7amF3ZX1hZ4sQYfL72+s30gx+9aobJZ07fkbakmZ64cFr3PTX0JC3r7MguZUZLOCd0pYIEFuXHKa9rOu5+c2NL/tJcHEFzoQAFckT9muw9rt26kX7524/TOx/cTZ/rbiMtCNkpu2vru7ZTZndTyyNHV7Rcsqht0XXZ2GiZRkjkehnuv9PxMMLrtHbSzAtHuyrvnkCeS2dOnRIC59LO5mr62Yuv636k6XTs330znTzOspBrSea1fLK51VQ+02lDxtdsMZ4WLrCroSmufMox+5+nH/0jAsy67Jsa6XNpQ27c/IYECWl6znF+igRWltOEPbC5J6ELzQ31RyBhKcyxTDiCi8XK784ZbWlHFxVZiP7DDgUBalPC08u/u5V++t+0dHR7Jp07o2UhaZeIs7G17lo7tQ8ak10Vuiw8ff3554W3tfTBpQ/ST376bjpy9FT6s381ayfyckr0tgTiN9/6RAcAfiYB7hkJQycFPAKyhBfOmuHaDOqCEa/qgWHvA5dgrMSHzyG7DVKeTASYh6+tJhBNMDDBQAUGgkGZFqOsYza2g6pdywjs4pCF5JS4V12Hrp06cT7du3slXblyU0z9pBgdBqRoOthhCX9gOcXTtkgnpjyjWT0O5QxlLixoa6uYU2heCEOw8NmiM8AKsB22cjRbDoja6BcibRnABNHEcNBZTcslrjJCW/Hm29vpnffupauftNKtOzMymG3psLiraf6NT7V7pS0tjM4aqW+mxaXpdPbcKWmfzsvuZTGtr+6q/vfSstRPX3vuqXTmvJaaVD2u16nN6UTZu1vpfeHm1y/fkPCymzZ3F6VYmZMWQdqPHfAsDYuElLWmNCda28HGBBuOaS2v1ZUJmoKWbDxmZUe002yKkW9Ks0M7qBjV87gMfWef/4P029//ffrHf/itbbv+q3+7JG2Ya3jmODNFWpwZpTfti/KWMifdvN7WreJr6Zf/8mb6/SuXteupKS1LI83ogLzN5pX0vm5uPn/uSPrmCxd1+fD5dPZ0Q8KNhBldHSGbWgkWmeULsbQzGirsheg7vvoIxq3lDe8sKSLccL8TK4uYJME4X5fQ+F9+8PN095aExKUn04mjnOzMEo+uC2iwRoeNEX1J8NMntJQ1v7SQzl+4aEtXlz/eSv/3//NiunD+f04XLkisU74bqt8r0kpt6r6oi0+etrNf2lNCuC1WYSejX5UNVPRHk2IesCv37d6ivG9GH+0N9e9DCfUDsuzTwPTE6RNgTJU61HXUbUOjTAImGJhgYIKBLxIDxntCMuADuw2OvGcmy24e3Uj9xFPp0gdXZQfzjm5KXpBWRvYIInWdWZ2Yjr5jCcfsQ5TVndsbOtvjpuVz5MhiOnV6xfIfh1A7A3D4Mlu1vPwdToUdy7YEAr/0D6ZVz/Y3n127rmWde+n//E+vpE8+QzPxRLr41PF0ZPmsndpa066i6fpWunFL23q10+jTz++my1dXZaPyudifjqqXFmVNQkqruSe7lEvp+Mkj2tSjenC3kX5vrd9On9z4XJcyzmoX0klN/rVDRjuFmoqP8JJmlq1FVzd1iaO2S7dVHvYeewg3YvYw84aYN0tHLQk4GNVydyHnnrR0YdCMhMj5Y8fS6RPPyMD1vfRPujfpwtm/TM8/j0GutDsSFmo6IA9Roikp49r1TS2VfZZefvVj/V6zw+I2NufTqTPfVpvNqRx2iq1LA3NXN2FfS59cvZl+p+P8n3jiWDq6Mqslqid0NotOtJVGprm1K/zIJmdlOp08g8AJqr2/lDUxtIO3Bmew6A0JRz8fXdpLP//nX6dXfv9eOnrkLwTD8xJmWxKk1g2HdWmUduhkwjNrTWzr3lIYdkZHTxyTkDcr+G7pyoV3Jby9mf7kX11M3/nesoyAJcC8+pYZSB87fsoFIMMAu6XiolLrFgbvFBIYAD7Gztol1zGEqSqh6sACTLGe+hgjcVK1CQYmGHgYMVCm3ij7EUCYnfLi8E5L8wIbMm27JBIYFFtST548IUY0nS5d1m2/m9+2c07QzMOncC0JC+RTk/2CTdD1rGp54+33bqXXXn1HjLyVTonp/4d//6emFYkyKQtmzXyZVHYmiRzFGwO0NxgPcOHnS1IsFXgppOHdcrIlj5q0RthcsMwFW7x7p51+9etL6cf/9KoEsC0tD+nclWcvSBNw2oyUWeJg3rnT2pDmRRcN6g6e1t6GcKPdPNIm3b27Lu3LLQljLWlgjtnSy+3VVRNC9moSMGS7siXD243dRrp5WxoEaQLq80taBFLGqCEkfCTd5dPWTdS72qGU7FA1hETZxuhmZltaqy1IgGGZjfuC2PaLQa4EHUmBrjvYtWPyn376OWlO7qY33vo4/fSfP0wnTj6rKx+kDQNtwtGalrreff9zGba+Keb+YbryyaqWWrQMePS87EqekVYFO5J5CTtgRktNrTUtVd1Q3T6RZupG+ujKDQkrexKULqcnpIGakSDaUh1OnzyVnnrmdPofTx2nFVwosN1m/LF86AIDO5pmZLQ8Lc0cS2I3dObN7175ML3y+hXZ4Eir9cRx7TpaSPW5tpa6pO2SUNFSP9sFB9otRcYsq+0KL3Wpf+ZkmHTk6JyuCmirHY6l//rfXuFa6nTq3JKEr7Y0SnclXF9ISzo1GjhZOvO+IXQo3yk7z0c9R0j0Phf9xqoxlvORMzgp1zsMd9FPh8epFuzL6QbVoxxuoyU7PxNnEGh9AgwGTGhh7ty5Yw9uYWHB1KQbG2uy9t7UlrALWrPzjsBpgXWtE2L5HerUQu3DgLY/GmMQwB0QJ28TDDwMGKgegNGPHwZIH00Yipmv6EHQi4PUxHZnyMVmDCd5JWInCaAuAWNaEeZkfLmzg4of5nEvrRxfTi+/8bv0+rvPp2de+AOtD0yle9qKvAyzEoPY1C3WcIo9nfXB1QO/f/mj9MuX3kgfiKG29+YkMNxJz379j9PFi7V0/ASMSgKQlqFsV5Nm29JNcNqH6B1LEKJ7MkBFI8E+G5OWlL0LVipGgFMaZ7Jg/NmStgi7m1kZfdgyR5Z9PrqiXS8vvpt+/I+vpdfZRfWH/0a7Xs7IjueobTPekX0M6RqNKdFpbTuunZOgcEx+0oJYJlqqOLqVji1JgJEgMyXmvCJDmTksmaHZ3M4tTcmaznG5tXpby1GttCpBZUc3IjfmpAFakjGuvtNeU9cEzKR5tBk6N0brc6qf7kQS7FPatj0lfCOq1PSO9mBXCJ2S/Yvfv4T2QEtOKm9JAtfTOh/m3ffeSn/7g1+le7Kr+ff/2wUZ5Wp57K12euPND9Nbb78je6Wrprk4dvyFdE42TEe1BHVEj2x8xUsQOPjl/wWdunxBy2VPyGMvffbZZxKC1tIn19fS+5dv2jtC1InjaxKUbuoeoz/VLqHp9MyzgkU7tzjnRzvFBZ/qK1TUZf9yc/1WWl6URkSyxI913svf/M1PJCTV0oVn/yCdOH9UZ7kIH8JDmpqRMS7tJx2X+Gbbdo9pFxvLj1q2o5F31af2JNycPrksG5fvp9+88pv0v/8fv5bAKMPmK5+lmcXn0unzz6c7a5uy4TmqdqOvcOWC94ukpTg6+x42MWpPMxb2Tm846HVV9MuSVaT1vMqCQ1/uI5NXreD42EXwRISik/ukAdselt0wmNcwUD/RWT8SAlE4NVhW02yD5V6WhW25NoNFXfsEGMI4XMgiKgId4Pbt22bMNCd9HAILalY6j42xPEj4Jk1YzHNzqc1yOKBIceImTQAPItSLnsn3BANfNgaqCACwVakzv2zYH4XyywJML7xBc3r9O99Q324KbMSs7OWEKNMb1xJw8NjMXC3NaYvxZ9enNOvdkP1IW7NebDj8LI670rbcubcnereVrojxvfrKR+n11z5OV6+ua/kFEaQum45t7Sh5NX3vu+fTd797Op06JQIqtYOdiydmBkWUnsFEGJZ/pqWu5s8mdFKn2HKWzmphyYTNThBoTsdFeEHG4Rh+yDs7jWCMN6Qp+dk/X07/+I+/Fw2upxde+AtbMoI5cipr246Y58EuB00D2h09GH+yrRlBToUsIKwcb0hI4JwSLeUID3XZ95jQhCTIpF+2Jy1pQI5qN1B77Z5sYLZMo2ICVh2BRAxFGoLjMk4lv7ryzTojReKAPZY9XJ/hmifggAHwD+ZEOPnp7BftXlrRluFPP/1UNjeXpNmQDY14xMdXP9Zy3XXxkCkZwb6gLcpntWRzlBY2vnP37pqENOJaTt7uCIa2NdqFxFOnn9FSkc6vkfXxqi5abGvp7fPrN9Lqp7raQEtom7svpqefPpK+/Z2LWko8LnuoKRkdz2lCPk8OCXlkRTdB4955d0/3Ob2t/iLh59w305NPS3NHW0pjA7wwXP3ncPCtNK41UU6qg/UBxUZDRrRpXcVwXBqnz+58kH768w/TzZvXpdFakEH1KZ1evKK81frWdpROT0CykrBYdHIrIT/E6XdVAgQZMTxyhv2J5VNN3yzx2M75PkIe44O6WsUElfqvxgHt2hFJwCvhHmdYoQMFGLQwHHg0NzdnWpi7d++aFmZZhxStrWrDnQQclvww0AdhbY1gVId+ciQzCT15cPjx1CCOBgEBEwFmWGNM/L98DEwEmAfbBr347f2+H6XHJMqZDAfU1Y2WLS+d1C6kxfTu2zvpykdtnXqqk2W1u+X6DYwsL0lg0BLE5U90bsm6mIuWS7R0sbRwXgabx6WV0eRNdg2/+tXV9MF7unX4d2fTt771tGw4VtL5JzSb186mGkKAri2oo5XQ8gz7eHw3iZPh6Ton5Eo6QTKQAMIJshw81xKza0sAmtbhb2bnIJr90ZVW+od/+E16SQx0fb0mY9yvSfP9lAkfzFxjsgi+bCu4MVSfoZb9CJvR1hwmoEvLGJ1yAiwclSUnTn8R0xAdb0kQWFqYkXHt6VRnd89dnXIrexyW6Oqi3ZgOyORF4WfF8I/4bqnMDFm2g9n47LjDcIJXIm8460OAwzB2QWeenBS+72i56JLhfE78piVecvzYUWlLjtoheEeOHDG44SvT0pC0WNMxMQMmqCpYnfmOR1oo7WZih8/KSlvpV1R3VgemtZNqXXXYlWbnuh20d+nDT6TxmE8nT8xpqemYtGpnZOh9zIRSmPy1a20t2b2nvnJPeLmo7erPKR/ZTWlpKMo3IHpcb3/mG40C7cDFjU9rv/v1W3e0hPaGztm5nU4ePSLhDKGXnU6bvmXbhKJcNxBnS0nVjDzAqBZAlNUIGWRU+t76HuzbKpOTSBBEmyRXFmA0nziQGyjABLJsj7+cbyXzpSUqGIJKXVK/CTB5rTXiHwiCSeQJBh4iDDzYAfwQVfRLAiVmiL0Eufd7GHj7jRftGL8+KZMB7vQpGYWuS7Oxl868N5Vee/NyunzlA03SbsrWYlsMdk+TtZX05BNf14TtlLb86nwSHX+/ualj4XTS6vo9GYxKc3Dpo7fSG298rK2y53UHzkVpR47LloHzSBAoYD7ScIg27omGQqCRS+p1BJsdP6JedJwt0ux24ZJE09YgSYjAv/32RvqH//rr9NJLb6nMxfTM09/RdumnFcK+H+xk0IDDADi0zZkjDBIHfp2xOycImmyMVHDBLKkjf3Z1ArYsGAuz5CZ7kWeffCItSFuFjHNXmpgdLV1Myah4TttmliR4nD9zNh2RBsVgFf8hbfAk+BHarviDNQGF/w90aG20bVtpuWST28Lv6EyXbe3RPrK8YHZKZg+ic2QQuprazbSms1TgPzM6wG9K2qOWDt0jU+sHwqHzdWb0DsauhC4rRx6sGJySzQtLa362DpotaZc276q9b+muIi0NSiBZXpJx8Imr0vYcSX/8R3+kpbZN7Xy6rBOHP5TscFyamuelqTmvreibMrhFs5XFsSxUlPtktIM1RpYWCHchU0Li4nR6+uKTsom5LXwLr6on281PSLNF+3i9MpMvhA0w6CsiBf+3Au6/2+/4Gqfk6A3WgHKU5QYmnpuN1cMKMKjqeDY3NyX5a3+7Zi+ntI+fBkDzgiaGDkXhtB/+3MFh6p/cUCYRm2rPw4hoe9nlz/8HhHEcXE3STDAwFgZGCTAPcoCPBfAjlgiGGjgc9nuYKgUDoR2NQOYJF3myTXdh6Xx656Pr6a//7iXN9Jd1psh1xdsV0zwtrYBuD5YxBjYiKzpFlu3XrL1zZP+CDiLjDLTN41p2WDsnJnddSxQ3tb33krY2X0nf+c4z9vzB9xbNHkUKH9d8iEGhoDCqJ+LXmOMSvy1bJmnIPoYj7jHA3dJWWs5c+f3vb6V/+NFLOtzsfcHwRHrum99Ni/MnFWdWtp+cGizD2KyBsFl9FmCop08mfQeW0eXs1xFisC+Ar7Ls5Boio9mCzpaLtKy0vHhUx/vrLBddKXBv7a522jRtmW1hcTEt626p40vHtFVaRq4Qf/EbeI69s2WLelao/WFgDaXl/J1ZaUpOn9Tt1ZoEc//T0aOudaE+NU4cFr9A2Kmr7JvncQEAACAASURBVEYNw2r4j7RXVkYwOvsAuXJMtgMmX87ie0ZtUdMSEXhmZ5kWDsXfTmlnkoTRNe1s0ul4Gzob5/r1HS1pNXWw3Os6a2dbN2nf1G6otuxmTkrrddyEi5lZ2fTozqgqGmCihuALxhz9EP89LZtsybbouASlJ8+fT6eOHZFAsyAhRmfDcBDfrPqCtEyev9eFmvFd+OXaDvvpEqD6Irl26cviwLSWDQJrRJcHzIDdHvw8Rh/YFR59GhgEFpDAEtLy8rIJMEjENMTq6l11Vl2Sps6MhTUOSRlFEOcpRNqJAFOB8UnQQ42BiQDzxTVPFSMYBsWoNL3hZcbOcsPi0pG09cnn6fKnmn1LE3Dm9EXZWpwUY0XTjIYDbYmYpbYntSQswN7ndGx9Q/QN5s+6+czcibRybFkTvJNifFclBF2zG5fffveqGOD3pF2oacauLdenFuxwNYQZhBjYak3rMC1tA4ZYG9/X8vuqDpi79tmGrgbYSP/lRy9qRw23aT+dnnySmf8F8WiOykdjE8yss2QEnmLJzJdapNEpaWGCobnmC40N4W6Pwp1QuCnToqve2C1q2/SihIuFM7o6QOflbNtZ/hgJN6SN4lQ5zJQlCEhgKeQIWwkQphCGbEmnw4pg3MGWEDVce8/hcpoYa2fQEQmLaL74ZnLMJBlYMZBGNmloWQ5eg5BH2oYd7BJCS+Stb4ABMquTl2gylgSqPbMXwo6HTGXkrbpwBcLxo2pnnTK8rjuWsH1qNne1nHVF27WbsofSZF0HybBZZUYCBpcuYu9kWqZcfNHXApxcMv6AY+0AMrJAgzlFQ/VEIHzy/DmDaVZLXPPSFAH3jnDNUp0JgUpvgosx+lxAhXBIMbje/h/+OTRidXuXvqrTD022rwBvlWgf2kQ+eFLP3BcLeXRfOapNBsWj0yO8IKggEYdDFbcrKbgmidj6C2XnB7Up6Qzphnj/NeDoSTlmDinynLxMMPAoYeBBDvBHCQ/jwlqmJ5HHKKHxIGVF+/ALPQoGbt8SQlaOzqavP3vemOXZ06d0gNgT0nRMSYiAce5K+NBZJGJ0bGmN3SB72pK8ur4te5Vds0HRIozN0VaOicEdfVbLASclgHymbbE30t/951+aoLO0OCsNzxFbwjiyIqNZmLBMfDkAzrdNSwgQAW9qC8ytW/d0x88N/a7aBYpff+4bOsPkGcHeMC3AnA6akwwlTUHTDuAz49HsbLafiXHQX4JC0xX0mDCEFL9ZG4bvAofpCiREtZEQ8IbB283HEtT0LHLSnXFT/S+tEYw8tAvOnJ1ZI7xwIi/O/QsIVRRUH+e7aWAdMHGEogXhKTRHwDo3zw3MCDBauuJofiVEucMvAiYT6JxZFGD1cueQeZ1VRuZHWCmDDzscUNon7DO5zXpKgiEGwHM61ZeHatJHVrXFvHENW516OnlqRUJvzTRRCFcIUFGbAoDSS7kvO86dUYb/og5D3NBy5JmTsquSINnSMt6sbuNsqb4cAFjP91yYbU+0q/FPNIquVRtUbvhV0ydvhT4EVmV4n8McPuDIj37AkOMHI96DuT4BhoxoKFPlZeEFFR+NwSBscFazOgRXo5sRL0gWghkYoao8GAiT2BMMTDDwVcFA0JQg6L3CS+/3QfFC+sijzNAhnJCzk6cW0zE9CDA4HTmmo+AbWr5Z0zbpJTsqgi3YviOC3RF6FyPV6kGa1S6hPZ2UyrIEzBwtRE1CxpGjx2SEuixh5WJ67933pJnZkDCzptn8hsq5Iw32gm+zVV5bZneCYKVttyKd2zpfhiWMdRlwbmlr7ne0ZLSwcFJlyg5kVrdLyz6EpXyY97yYLAwP4k99ynUtLyVBh13jAml2Qc7jilFI9rILAs0f+xlot+mGTBBAeOF3V+WSh93SnfnADgfTmEDhdjakR2SwFQD+UDNRKefZpaYLkact3OmAQQlM5N3SgXjsUC2c3re15dg0F3qfkYBDG9qmEPnRLr77ytOY4GLqkPhm+Qy8+IYSDqNzviWtkQSfEH58sq1kCHQSKm23kC3nJZ01czSd1VbpYyfmdZHlhnCuNhfSuBphhjsATJoa7gJ2F6Icz8QG/+AI+6Nt5bsiBcHOTi2t6hqCKQlKwDQvVZ2gt8ypkd+CHmXJp4yrISCMGj9ZJhqS2vvL0MD7FOAw+ji1nnFQqaUER58AYx3HhJSO63wjfnuBuU97w9hggEBwwJM3mnVoEJ6/HUo6+H3CwiSbCQYeAAasz07cA8PAqEnOYfEPcWT5GxdaCPxgLCxzH9eukzYXMircaZROp9U9SNyt09JZJ3UJJ5kdijfyngmWGKUdCREaFM3cpzg23oSBGWkOFsSAVtLWhbZ2MN2RwLFqdPTI8ooZwNpsXGXu0r8kvNgdS/LY0nIFAs+8LivaksHqiRNPapsxFyM6FFweiZg1xcFtJlhRMxdeeCNfHHUM3ILDXk2X02VgQFNCJqqPyLnf+SR4JMAYQGL6ouayz9G34UmPKTgkfIjJAz9HlRROWRUKoVCElIK7X4FRNiTytKWSAY57iwwUYBGukZlwjg6ERr4cN/a/sSP/NuSY8ONnhkQ8NGpENLxoJ5AtK9mZLZbYkun8X2mX0NKB7ymd2KsdYbKXQVNFem4od4G11Ccov8qVpAWHEJzrhinZF23pokxwu6hVDW8Ia1W9e98kW7MtsroBkwU5T60qc0SYj6+MrxFxH0SwCy/jl2/92P7c9QkwDwLoSZ4TDEwwMMHAF4EBm+ka4R/gmIVz+qyWgGxGLnaWebki56UB22yA4xcmxy+MhXeYjnE7uU4ZHRaTzK6D03GPHpGmRgIMy/AzLB+RBUlhzjlLVm3grRzX39zStm3toFlaWpQAhlCkMNWFHZ7YThiTNUliCOcHpH05F2KI6gwzErmwQuWmCsabBRiLQqXBbdTcmWoEdWO8FBbZF3moDt2Ru2JUfoBAq/+IDCh+QBQEs7bOWeHX2lb4NINo+3WYfXlP4dYPsIlC0OTdG80OkuMMkzEdNlYIxh3n5bpPB2/+HfH4jbBhuB0ToEc82USAecQbcAL+BAMTDHRjYJgaHcZhQgvcTWoEbEmms0RhjEqh7H7p4n7GL/hPj3YrebwsSFhakVDbMUMcbcFe1NK7jtFfXpmxJRCWm2D6aDqwBeHeIWOXiu7LUPyyTLKgPBYkYAkK41tojbSMY8JWhqA0oyfGwZ3pU5TMGaO9o9UBFsvMtQswc69PxPNUhlfTEHjs7vLDz9NEjt0x9WVC2KD0+6iN2YXQPlUul99bBN5qrymdqFzUk2P69di9Q3bQXmCB/OkLxMc2JpdpWfdmXAVLd1hgc1genXDSBR4jD6tA/hgfhv1D+2jEnAgwj0Y7TaCcYGCCgTEwUNbGIL5MaxeNTaZh1nlmbUax8U5gSYgps4opzd4RVVwzw29+TMKAOYsZyv6E4/VruiSR2TbLFc73EVvEJKVywe4CIBBgpjlFFvtC7uURg65hZ4N9iOJhd4ENiq+pKLWWd2x1ZUznDBpBKmdglQPu+M61zd9lwYYQ0lmQPrqUCAU8XdjyiEWYXqKcst+B3w2SUioyLX8TNKAgAWwCSQE4cYRNs6FxgZKlJ0O3CaRgGqNhb/FOEd6eJQAO8Or3QnXgVV69oPZWrcg9Rzy0EHsAcB+BqBMB5hFopAmIEwxMMLA/DIT2ZdAyEgKLDojQrLrEOMQw/DTX4CSw+Viq6eEupG9jXxNaBBLz3vlGlqnJ1oY83PiUZRdsBMUQtXy109INxnYQGpoZmCRHxSM0uRAlSx3MOCT0YHSKcSmCjRvahlHt/jAxKBbCS5yRQr2NdXdF7Ghf+sUCi2j4soQl5/UxDxMIBqTN0pAv35TTHuS91B5d5fdKAQaI/TNncU3vpoetzbQPni5gokUzYZNorBAR04QYj+m/ORtbQiLieI5yOk4l9kkw3XX04OzXVefxyn/cUk0EmMetRSf1mWDgK4yBsIEZZAtjAoHZNAhBpjHRrzFcZyrG1GDOxsD4xV4kbEYQOMR+mckHBytsJ2BqLsSQ3Hb2KCWn8JIlQginz+J0V7OKRKhhCcuXqwCFG42BGeNSDv30nTEIMB7HEjvA/jru/6UlHGpOLWNST5Vjech4pX2XHOhBOwUOigDPpRCEItOh8Hn6ocH7CugtpAvKTg5WCRzhglkVndauM2sUKqDHBCrVxw5jLeoVgouuMLDlJZbZPLMQVSPng/yCW8ev58VXN+SB/U6uwOSxh9TxIAA8hnEnAsxj2KiTKk0wMMFANwZMayDuE0sCrmVBwJDAgFFm1qQ4E4enwTAQHpiJ+69d0GdfsBQ9bK8t0rof1wPohBNPg52NNCs1neg7pauN2SVUs0sfC86qN5gpDJJ0CiEohBv92hIUpUoIcs3NIVioyrFlrKwlsfIoTo87F0NCGInwCKXmhgFgAlGRGvjzV5HVwBfFMruhTokDow31zHi3crsh78+zXEZ+x4ZpStuWtTTHYpwJk1zFzTKewYUjLm0RJxXvZCEGzRX9QNdmDz4+Lacf/dPBXBnTno7W9t5BLIfbxanR+X4VY0wEmK9iqz/SdYbglypgo33/BLF/jvNII+ORA94ZdhlstZ1T7L66eKv2Bo5qQZVgGo5On+DV/LCQ1a/nGPl2/zLTLoQYY2QBXs5TmflknH7YDRtsnOUftkCHBoUbptHAwPARYDjV1TQtihjnmACfbR/WS2z9RoghHvcp4TgK307Rte2/YzrDC2kz3FShL6tefPdFGNZciljCeacUz8DKCm0Sv+M4YOutf38NOnCUw/y9S0Sz9tMDXkxw8Nb2HhZl4U+Z6NQ8fBzIy2kCw55fhAyqRydVN2YPA0F1OYfJ+X6mBcquZ2BfPYAoyYDjpErOUsAFfWCQMaDNyt5H9v2sxySvCQZKGFBHk4FkzCCti6P29R5p/9u5FkEhLCA+FBtClYnVMLQOsp0YFnccf5hjB6KD5eCzX9I8GkSot3ZsA7azVIxxlMiTSRj4wPg7801vKxciHGscw0+64QyQ5ZuOK7W9vGFMe2haiv5BXCQHBBufgZfbxnMq9S8FcvCa+wMwuhhSdFJJXtGXayi42JBSd3XODL817Uhq6WwTcyrSGKVlJriKbDId9QNPpLEhXP9pR5LLLmUIPavy/9U0WGmt/3sN+lOrJFuy6riumBRtwlmE84InNSnn6jAOLKWTuKuc/X8AX+BgYAk5q94w0kgLtocGJcOc+1JHMPHt0R3oFd+0TszzPY1pa8Z00S9yoxdCdhnndjBs4XKZRX3je0wAKto9cnyQ9M9Gdrl6pWpEa7XRYHLBKP1Jcfk27Sg/+sY/HH29rzV6Zy9Exo8Dkzg9kuO1yYOJAYcR2UFK+q5ppHF4kgs0PggZ3P7nedAJfIANqcW47TJJ99hgYOQAsv5b6j8iiAwKnzXlzt1LuwI7xSj5ctDFsgSQH673QwaGVfDLqdf+S/X6D4xftCP4MVJXimakP/tQ9/Ew6KmghGX88d6Dz4rsrf0seqQZ1RbWOQ8A86DCB/mV0FN6rZYPRvedyr6VqxotMRiCMm6Gxdh/fQbnMArng/FtvciW8Lrd4Nzw7Rdqe9Me9NuFpUjlJQ/iuZ18B+FqMMQHheWhih/DJANFDePBC+GlR+FpMfsEGO6giGOpiYDmxTKIkTFkhBBeLf1bNhM3wcDhMGAal5gllru4Zxv9dNCwh3jIjKHSjRKgDtvHuwlYJSgDAlV3xt+gyg2IPY7XYetXjT/aDbsQr4DjIhokWCf1IzweF106VX6AlR8HYZM0EwyMiYGy4FItxIxZwFcgWZ8AwwVbuCBkEKQuouTTXQk53dhBdc8dShHfZH2IbZHemY3PAUZwka8A4idVHAcDzryHszBCynN3fVtX6zBMn8sP73/VDJichpduJQ3TkRbVBb7h5VdhxatSOUeuSr6vsOraZUxWgF+FP59FIcB0QHFths+uzFt5U8OI4rjiaxRk+6reA480uv0PB8Ko/ONqgXFLqWo/8hxV/rjlflHpRtVvFByj6r/f8ICjLLiMSjsKtvsR/mBhuP9juE+ACSSgibELtGzpyGe8XP/NRVTz80vqyCJE8BMR7N7GMCFmIsDcj/70lcujegDR4WIV1AdDML2OkFIaJIXw0vFrmd3CcA48isCNGoJV4V6qxlJw7QO2LsLTA1bAjBQTRtnwAN8wR8vVbCdPx7kwA9Ycc50wF2L8O3zBABrhKiwPK33iP8HAw4OBQXzz4YHu0YFkoADD7dMbGxu6XGzLhBgTSIwy+U2ax4/r2vO5I2YDYw2hEGxg6nWs7XVdvPzsKf5Ccnf/CQF6dDrIQwdpaQ3I5YDcp4wT+mNaEjql8bkOswvBpVJ+qAwcjQ1nsEPi2fKX4Bm7jKjLA2TgFRqkDoaH1M+8h0swtvU2Hovr+rBoN1fNRHoXYLqFTRfgqkr/ssOqBfDR0I0UoCvaxzA6Inw0BNUxHnT+1aU//KGj8DNMcIl0o9r/QWNgFPyHK//+j98+AQbNC1v5+EWIWV1dzdv/ZnTJWEO3aK7pgrIVvXtVTEuT15NAvu9W4tZWdhtAr/jFPsZtaTh3ofs0wsOhZJL68cJAlQrc2T/aQBemO1teEQoQWtiayk6C4YyePOwg1CFuFAEZGR79fED+frsxSyjDmfyAZCWvECGqYx0mNGzeBuVhsgeorgDfD14blNp3EHCQnOvQEE1cmxK/RtwR8aAX1sa8u8bMQ+SDd0X7DS554jvBwMODgWFCzMMD4aMDSZ8AgxYldhOtr6+bXQsaGfw4kIl3X1rySvLOTqdd3dOB4DMRYB6dxn8YIa0SYJxxicUZB4W5ia1lwcX22XGwmHbJuZZDepges3VbCLUZ6nAOOEpAqYRPOSO4D3MmwPAYcx7XDYd93BzL6argD8xVQTDNSa1DnB3lz300/BmeYjKj90KD5sKLHTRmwkve5mznogzJeOJdYODBzqAffUQfFj+j6MN+MVQWYvabZhKvHwN9AgxRms2mCS43b960ZaTjx4+bH+8Y+bp2pplmpIZBaGnrhMOdnT1L47Yzsp8RIzECpDDXwHCBGbe/wmCGE/l+ECc+jxMGylvty/WCMOyHOCAg27HsYnjtPY755s4YDvzaln3Wpvrglp1VVNPJYOUzQbiLhnipJUPzQ/S/UQSwXtiLObeN+K5dAOwQwAa36igBqUr4IkdbPtunK9cl3msVRiwmwKCFqci/rMHpbVPu/tnTibQuwLnwwomnJnzmNqnVG3YmilpZR26g5q3b2S8cCNdo6BC4XeIfRgCsAP4hCBo1BkaFV2nQHoLqPfQggN/ymAXgwDm/0K8qN4o+jBrfo9KPav8q2Agj//JTjl+u+6h8xgmH7rbbbPTBfhZzE+Wi+Q7nvlSQncqi+gQYKocQwi/CytzcnJaLdAGaSmAJqT1Ts2/XyCCScH08x1zvmrEv/hAqu/nTBBh+6RQ+k4oZWCVUk8DHFgNlYhCDtexXWXHjW8ZG1Z9iBs9RUyxZamDI/mpr/Y7ZY9mjQ7e8DGd4OqVIvRUBxg+sqixrSOAoAmMQllQF8c4v8tNMY8aVDUPyr/Km5r0HjVXFHxY2CL6IW1m/LLxUCTC9ZXa1t1rKj55ChPGj2l0Lw1H+WfQKmlGf51rDNMUx/GhhJMS0dZDm4yy89OJu8v3lYGAQIz+s4PDl1GR4qVGfXho8PMX9CSnj0d4PORfpE2AAE8GFpaQTJ06YhmV5edl+6/XptKsZ7vz8vBgEQovmR3ZHB0a8zHj3I8AA8yGhvj+4nOTyJWGAQWMMvSR2874fIuFJOssP09LAcLdJkgZmb1eG5xt37Fj2ugQYW0qyE6Lhj7J9UdyahBwuaBvXVTJ4ZTpMOAj/XQ6DPJSzWt03V9bYjKrbQQvtbV/O19QpU5YNszEXYhBKaE8gUd3s1mbZ2y2s5B2Qoi8IPiIZHKM/nS9FPCgsX5X4+xlDXxVcjFNP8DeMqT8OuI06DKrjg66f8314//3j/33UlEqgYcEhwODiGwPJ3Z0ZCSszEmiYDXIaL/Nafyeuq8jYnmS6IREefukUrI2zBu7meZbxxH3lMBCCSy+z3N/gyazbbF9gejGL3xFz04653U15bWQlDTf5KooEGDQfDB63qHiwGpjeetHAZb8p0yKMK4KI7VvS4QRgf3jswEROBTEj63244aX3Jy7DgwCDAEIV0Jq5JiyWlF2AaTbl35hPLS0fTS3saYIkcVNp/AoBlVwSevtL+/J99ov/cSF90PmPC9fjlG4Qjgf5DarzfuMNSvtF+VXBWBV2WPhsSgkttjHsj436Q4zpPgHGbkzNVwLMzEjd3ZN5Q34sHOUDeos6dQA7bDUn6R9nDCDgDmLy9DOeQWGBDxOUtV5qQhBaFG6XnZYQo+WjtIcAsyGGt5sakpVnJFjXlR9CDEOFnS/Tlj/DqHod+zD47xJW+gam4LbLbYYLML3jrRsW6ZpahoWhII5aYydhGcbe91HpXRgcWvzQAMpBgGkXGiiW/qxVlMY1YrTq3vqWoQdLGVueloZ3akpL11qCtrOnWEqqwN9QACYBEwzsAwPDxt8w/31k+VBF6a1HMXnJtKqK/t6PigSdh4YhMxzW9QkwkaEvGXkwNjEsKZkBZab9UbgRJlWesF7kHBa4SfrHEwPRT8qDZ799xyV2bobVckJpGQINTGtHAowue9SdefkRE0QwgiHaJXRxGeBwAWAUxkfB2UsQyK+or0FdvXzFjcPDnTPvKh3mKPgMHiMemXqUiIiJdhVGiiYIKn4V9noFok5d0B5laZJZl8GBYNkBAN95LV/vSWjBUJsdTRJDFathv+hsXNi5D5SvA9h9fdsP/g9T4IPO/zCwPQ5py/gdhz497O0DfFU06kG2IfSlTD0MV1XEZB/A9AkwMQMrE6KwbPfGceJRnlyijSF+zK55t6f4i1mf+1fNQPcB8yTKI4yBww1w+h5PPu8F+xe7qVRG57qtd6+1nRo1GZ+jgdGv9ITGcG2er/7oi0gawH2akf0jdBT8cd4R8kEnbozSPC6QqIY4dlYNdy6yDU8NeipDi6yHCRrtXtVqCRgTBKnXcAA7wlqGo6sclvOKxNSTp7MDiWwbtUba2VMDKojVtnZLrSZ7u6l2w9JWHhRYAddXJWhU//yq4GHceg5j8ORXDhs3/y87Xbl/MDbL3w+673QEGBdk9kmqKlHWJ8BEpdC6xL1IaGNw3HdkAo5KDtW8XXlvTMKvHJjSDNioj0GHhCXiwx+2MGZIaV+VQI0O3B+RHp3PwWNU8J59ZcYkdHx3qMTjF9uXcnz8mw6BPmN5ej72XgymUXl30uRhYPlgE9Nu0WdZOpLwon7GMoQXEwI1XZA5/3h4tJKNA3t67wu5N2ewW4LBo+T+Tx1LnWZK24TBwTjObEgwcrVll8GuLDAMjuFYpwZF3DIlGSHcWdQK8KfyNvLIv1yO7X43oGgB/qAJtFJkqLdd7SgjXILcnra8J+GzPbWjmL6rUV9d+PQ67qc9FaeAu6ICw5Bm/uO2XCfTqH9lMUMD91PPoYknAQfAQJUgc4Bsxo7a1dJ0+d6c+jy6Iwzr4ZYsxnApkgkv4d9b1n36LpMW6EgBi/Ivh5V5bIAI3xzEO/sEmNDAsNMoXLzXRXytYGU2NYVQI7IixlHjjAZ97e1w/ktT4sumdhu4rUxi5iTiY6dvFoxrTIxYjRGQxnNlhI2TA+kPlYejoIr+jwCL5hzOvEYkLoKHde6R6Q+Jf/IvM9hOp3WIRjNfZ3ptCdLM1Ge0Kw5r8vWNzdTcbMLe5deQtoUD7dRTsrAxrW1Jdoz9IYQXg135SSFgv3GeyzRCuR4bE2pZ7kJFS8AJ1H4KdefdFkzsLiBD5EBXOQtSOW4MP2Z66lAqNfA/PLd+EEeNPsd5fzr3QScL3UDgRHABj0GcgUwiWl3Cp+x8tnebatdbUvnU0+IyLZvS1o7snXSMQz8MpPVadPoQbeJ+/msNZGVUueo+CPzlRa+qnPrDHJp+6PtjDvMBdoS+YeEP2H8f+HvAENyH7FWJCvx1tX/uPxGd1i9PRgYBY3GGuIHo807RBRNenXHRXSRjxhi5iuktqfhWeI7SB8mezlGKvKNoi5QnMV1+falHe5QFv8BleRx2wawP42agNRfMSN8TTYc+cJbXrmmkNepkF6Czcm1BuQxjnwAzCsQOkhiI+QsA7BUSDsEWAwkyI0Bs9mTCC81L5FGljAovoBgVsSucVIao8ZIfqKwHEzmAHx+Bg6TY/cMaiPvyEGiCCB1IICDItDQgd5m1Y9yaw4zJKApWMr4TDq2FpzvM8pEtdljRzhwRyhEouvVJ1sus9xsMGhj8RrmxjDUM52VlSG8cP4EYBlbV/lVh3v8P03qj01aUz7UiuVLggZN5XTMrDLIUCHXgKoi8NDglzQvG2Un2TdgGsRzodjC9ZfDtePfsI9x/fdIVfqNr0Iv38relDmpbFXFAGAS9F/IB0fbhdX9y2UdB3VEMkQdO9XAl8AYcD6ZD1r9cdPTYAhB5GGp7umeguxftvb24TBIirIijxLwX+fdmNh42BqcalHfJrxduMiF4UDLCoAoMN+hu6Rq8ouwDCTAUXiCiKLYMUgZDXoUaiHcj8Z7aiXlR/hgvw6q6v6xM+hwzC6+7VWhsV8bW2JmMmdBa4BCwj1ns/U2mxoORs514V+eC7JoAo8f2F9PLfGZPx/d5OxXOgow1XNUcaQSo6jzY0sQoME2K/jlbshfh18Otn1ufx3kYpVv/C+8RxfUGk97L7g3pfHuc4eEGY0XwqCBLW1FIRVCpYG9DF8g8O8cJAg5iJ60o7DH70jJSW7ZNUzobpmYaNBMfK8B0XFsEBAaWrot30vFdgYGKICCNnWye6cH+9/YfUX5llpZDfiojPrjAKgn7wZV6H3M+JP5G1b+i/zhNgEZU0IDerg29yF06xl7kU0bKvgUYSGEF/8SajwAAIABJREFUjIdHNAAz9PzX82McUrGyn4cUrQFO5MXjdyjmeue6h7oE0IkT7kACjCXKGdprOSc8hEUnLp0AF1wIA/g8G7WMDuH6Cu7kVakCFggQoCr6VQ2Vw18d5wGHHqLzkfQQyb1ivW1+wOpWto/yql5CybuJrJex841To10DQ9+bZouuaUS8k6OJcYYVv7n+h6gDZrSWi1EMz8guH+Qb5YgNUv7nN5ADtBrEwFikGoy40fjxoTQ4NWHDWzjAqap+Jf6pOYmHF1EJnO0ci8Izekygs8qQaV6gkece2hqMs1tNezjcbloP5ze0i0x6sECzGGzCd6YRpvUovXtpwzFQgT4rjJTDU/fAM/Dz8DkMzDZ7VrV/VboIG9X++8mjKs7DDl8V7IQdFv5C+BjUifJY6B1e5e9y+i5/gCvl6aOpVBuFRd+uYJ+jqr/vcCs/F0ifKsrsqXcxGvQS730CDLDnpxeAgwswvTkMGM4FUBmnoYFxhNNKvU3Ul+lgD0tGTQYHm29VmEUQND1IrMhtYFBnZj0weKjnIYv1fMlkZB2HgHBfABiS9xfgbf1K/9mj9z0NkJbsIlpaQkJ64K4cR45JEooU4gLfTD0AUnHHxB/92BaMVG5BSJSf6RetyCyu9/Rv/9Qgzl2/6jbsKgY6JthdLWM4rMioqotQZ9JWJO8qq/eDvCNtIbiAE2AiBMEla2AwxN7VX2uX8322ZOsrAca2eO+v9F7BxRlz1K6qlr1Ql79pYdz+YBiUk6ccv3zPs6r8qrBBEB3E70HmfRA4DhP3MHU4TNpoOU28GEf6jHE4rDdYaaXA+OZ3UFgBndIMghS6Ocj/MNgclJaxV57A8W71tf8CeH8HHqui/ovgEGCYpxR1HVSQ/A4pwJShyVCUMW6FBghUQivYUbkhAFV7W1Xl4rc/dpWE7KlcR9SfcrSPMy3VZ3jxlZnAnKKRKiNWBR6iB1r5uVNUFVEZdojyybeqfQivbh2EB925ZQPCdx21dtk+LT/VqyGDT21jsT7meeWaBMz8WtuNWwkXXozZZmSa0CKkkmP8kn+np3qNQniJZZMMWd9P9QyYsqphr8IvKU14qshiP3ctVXX/6vKFl5y4g5/u4QQmiWO2QzL4bWn5aFcnLM/MzqmNdZkj7d4n5RUNq3DSuwDrQowLsZ6mE68P8dmjP+9yTEdcVf2H5Yu/pQ4EVEWsDKtoPMqouA29MtscWN3+UXY1DFXlPFj4qkomjJYbH3bSdvrR4LKqxq/TisF9sBDogbIEYhnaLsjH6ISDSx5cj3F9q8aPj8f+nLsUCqpXbwtR1Xh6Ux9YgOlHQhmTXow1VFESs9UskUFc9Ixvx69M7UqCitYboV457BLSYcdAuaP2NsaD/rbhq4apwN5oEA6VGACqixi2OkAqE37zbdJ2Eq+WFmx2vrstI092w8lyQqbqxgStnjYPEM8I01Fycav2aigGh1q+5JeDPXf/KAu30cZuuA7cIcRYCwzOfJ++pIa5D3NlmHrjkKyjOeoNzd8VeQ9J0eVdVb5TZmuRnjTh43TC8KxhvodBry7f3OWeKy7htJ2PaLyq648hcDBiBJ6O9kXlDk9qMFUFG9TWhFWxLJvBLgsvY6b2PA2I4TmMEnAHA9bxHZ2esoeXf/j8q3MYDV91+tyAoyINDQ8bt6ERurt2XzSnBE5HCCwfDFnmDX0YzvmSnrBBw7SQjRWhr5WK9Ercl3kfmIfyCCEmfhl/Ibx0wQ2cNp6g0blI3nnVr53h1fP0ovfAAkynZsrKEOFZ8hqCi70bRO4b20p9bwbIt4RjuJxnhZAyqGHLBY0KrwKKtMYKe7FYlagcRmPwPW7191vOqHjjwn8fYB+F/6pw7E/aYmbMzF0DI/sIbbfV/n1DrBaRFIN9KoHgzLyiK1q91YJVhVThTtl6j1YJyqNDhugS+UsRyJ6ijDjl9xBi/C6j4YVUzeDYopxFsuEZVISY8AI8Ve1fFVaR98GCon16U3nhTvC8nfakUWMxqY3mDUFUGoZCIC2yCaC9dQz7hRBDuxAej43ACjcMNpJEi1fFGZ41EJByfBRH/YaX3+n7w+GoCqlOH+VX5VAdVp1/dVpCD5c+sD9uC9D+5clQP7zVObMJwPthhy7k/iDQymmtheURLR2/ka5cstWKuD3dojzOI2xc0tdf0yE+5S6S4Yl6heqB7wJWA76Tl73Kz7CkX2io5qb2cMRcGUdE7RNgXFKaSjs7O3aQ3fr6elpcXLQS7t1bTfOLS1qLFkkQdrab26bapcA13aE3resGpnj2/LAtP9TTZ1XMfE3zYqdxDiYiZfUT+QcxLyQ6u8rAL4PDL55yXFs3K4VFfYCfynPOTS8SrHIlV07fFQCTVGIMR4lDXlyxQPkc/BdXLvTmF9/WKNYrHXb8yycfc+LxoLtoOngh9WDcRRlxjxXfBd4CH5SvCtB5IgzYDScZ39QB14t/jy9RVDtDGBjl8Cgr8BZ5Rr74Uzd+2UkS+duLXKSzeJxT0ANTxEHwnZur24F125sbqdlc006kLcUHb9LJSLiBcVmHNKeyCmHXcQ5DBP4ynoEtHu7/GuZMKOekWI0NDnckj+hPYaDLSbZBZGw/FIMQ3IJz7wAFdIPKoe6BD6tBPhjO8E876g/bn7KLtuC3fGp2bxuSpkX75vRlPEcb4Yez8uSijnHb/Pa2cJzDo01JE+H0n4C/FxbahbZi/BsqwIuPCKWJ0eHls216ZqaedLSUxtW2fnXOjwRVtDC2hAic/COvDDPvfuhmh3ZYpFJ/h3YF+qgbMAIzeTCWCYsxwHfEoc5o+Fo7us3cynU4DRlyUWfS4AiPPkWYtSNlKA/TIdGW+enA73kG7stxOu1hpVn+0Tb4UG/rk+BUT2/+tA9P1DXikIa4fBvMWpKNekeZURenb9BfZ+KRzurLX5Sb64c/bjq3EeE7jA/94qzMnC78yn0mJ7efgKUlw27qTVsU5UWDKh6wRx+kvsTp1DFYaDnn7veg4aSNvhEHuRq+rTs5LYv6u7/3wz0EbPqcXMBn8POH/M2N6gqvkVeOCc3gpnXys8NjodFK01KCXdpH2WH/VbMlcoUpH8Kija2cXJ7hT9+cocKhkgFDjFXKsnLBfX56+0oZI9EuETfGhtUp4z3i4Ee9cvWL8IgnDyUCvs74NyqT4bdyOeNLmzGazd00q7E6U+c+xum0KLLMFTF2RoykmsBxnwBTrjD53b592wQYCFez2Uxb2zvpyJGVNCsE+amgNI6Va926yWF2KoDTwNuc3aDCWfdsZQbWaKhIRQ6EUgZlRieIDpybvGgkR7I6I0sEeUBM5/zJI5DUyHc2gWjrFPqjIemQRjxo4ApHuDUInabUyFYGjwjwjAwKiRcdnDDgr2J+UaTVO8NguFZAdA66PR016sJvGU9814X3oodEpqXfHTH3gc4Gnjsrs9S5o23I3whtxCsRBu9ogs8OhcvtqXYkTbQfwlGukA06Bhnf1KGXUBZ1Btc4fvRuy0DK02Dqyb8mKWAHIUUPBp67XB+gv5bahEOOaiqUAWRtbm3IIHWLGe8zPgMy+HPdDNfEFd7BPeLPMAcOIMB7ypP7euyMaZLz0G+UF0ftF2ph2ll+Vg+lBSdTtF+u8qBywH+5j9DfrE2A03Bt9K3PUQ/KcDR2iFNExJ84s4yPzOysH8qPehu+INoQCL0XjDD3V8Y/6RlXwQw57dgAwkFoFbeR4UfIijINJh79By5Mg2LnvTgxJjltwtKPadeExLaQ2FaednKg/NoIjaI/jblFEeDcr4zoK61iQNzBU1sCMM7qUyDaGTrfbdGnltJZHYWLutJ4D6H/OG3gvk0bCxLWEZbbWagHPzPQZ6tbrreV5vHtVwIOaam/5UE5lJEbp7mlmV745bFmDAw8ky9hehx+rwdJDVdWLmNDtE3x6cNt5WG0TeGc62g2Jkrg/d8SOq1SvXe3LScb+8BEHMaUV4Wxz11hjBGdgix87+rBwVQNT4rrt6mbtzvFxwGb/QqugN/aAxgDXoXNKK/AXNEPlc7qbW3hLuqfP4v8rc8pn147t8AfW+9tLCqhTZjJOwt2QpMmH0PoYy6Iu7gQmLe3XBC3vk6Zcl6PjpBoMFK/LLRbn8cvx+e36CWGV+HSdkoqjfioTeaVr+GW9tCzwzgz4BGoVbZOFqdXcqDb9jY8jf6h8Qrvy21ILQ3PerhsWW9OP0uT0UKYQ1gPqARf9FPDn/7qgo86xGP1Vr5Bk8i/TM9DYCPPct2tPyif8q+hRd7eVxgjaqesDAmezi/1m51F2N5QuG6kV6dYvddOx4934Io69AkwABzA37t3L3344Yfp2LFj6ZNPPknbavxaY8YQ21hesnjNrZ20uraXPrpyPV27fiNtqgFaNan2a5otsXMAtECsdGMwx4PX7XhwIVidCkTgaAgQbB1YT7holKJzqvK74lQQKyRtQ3ZuDJBP/JY6BUQWghuSOHEb+oPlMGiq3NbWVgFHwBSDKRDPNzBRBrNxHMLLoNu7e8sivueT601nLNXBCJ1c1LlTd+rHHT/gpxgWvdlrpsos1cN7OyLf4IlfiBW9yTs7W5Eh7C1pOKRRsxJyhyQWg8N7nqVrqR0pJ4QS2gwcxyDxXuqgRWfvFWCirWMQBswQycg/pP3oH3V15mmd9MwyEsKLLGDSDrMV4aSlgbALAbD2dcIQeHXByusNehm0wBX9z/HhBN2hHvw/uW4bA/a+agIA38qvrt+anln6MYWISbLNG9xFWRCmGfVd2nGYY25ifFtjhLSOJ4edmk1DaPIYsfYs5w8caofedo+yKBfxlxutWyKGwG95cfqt0lGWwLY2ZuLBA5Ghz8LQYszWRORr4uQ2GZGLcYpwYndOUW80aeCHb+tv4Jf6WAKbBVI+h9nRtdiawQ/tJ9lQQhXRhDD5WwjwTjVTvSYalIVc+iAMiXJrM7OprjFYs/KiLWOcOJ6o/+Ymu5qcBtRzmuh7U3YNhJh6pktIs4zxvax14pjl+qxOei6Nr6h//No4ymOJvIxOKR31p37zqpPBh6Bh5xjt+sSwuWV4PrJyxOKGkBiwFeVI+IvJpI0pxZ0GLtpEfS/aotyno4xtCYCmIYIpZ5jK+Ru89CeEF8XlwdVmZ1ODR2WhgbXxlXFAeJlWrd65YwIPdIQ0Vp6lUL6kU5sZLlQO9aUM6mG0VnFnlYa8y/lbesXnWV1dtfwIh94S38pQn7WrbnI5xNmTMMmkuymaTlpOkl/UCkKVm1Jbb29spC09wNlYWChoInik/owP4KVBqXuZ3ywvLxfw99aDnlxTXdk5iXDYUt+1dhK+ZsRXGzMSnkTLdtU3eJBcWDbeVb/cUv/YFK9VLTRWnddYm4sXl+kZ9Yd+boPbLMAAK21iOC61W0wQyzzm9r27Fo/4JrhCT2wEqrIaTgj0Rp+Vv9GFPFacTk1be4QD5+V3lt+2mxLg0SIxKbGBrv5l4903ZyAezNRamijMpbW11bQ43xTOmiaHLK2cSydPSSOTM7X+OqwxAZyBcu3aNQ36zXTr1q00O6frBUS8dyU9GkFSQ+L/+psfpdfe+TRdvb6bVjekYp+eTS0kzWkQTvUhZGKsrEujQTG65h2S8qOhDaDc4ctwFQRS+ICwo/nxxhgs8IBgGq+vASF8QZyGVHxDHTeIB7/lgQQcEB8cg86IlX7BRV0q7saOE6ohWRfphjFO/CmzjJuI637iNUFMqwrJYQF7uQ4MdFzgPJhrMCfd6VzUOdJFR/T6I3zuWuctCyXWHgx4dfpwxI/8Y5BE2dHhrR+VB1VOE7glD8Ov+gWGutO6pqKt01lRdcPsIKe0yZ7iiAwakTTHjx4Gns+gc72t+SB2MDVvS3roFIyyBIdn0v0/87pt9T9mrQgSoiipprEwp/d5ldXQr2ioMVFUxcCOFgptkql8BcJuFhAH5Y8fdY2+Bc7KeOL8kx31bX7LbUP8aL9CAFVdBtUHmMrEJ3BrhEppAt/RLsAQ8WM80ca7ZeaUx3KkDXiI733GCT7oraMHhha2IYyMR5FcE/TUklre29asy0hHHW0Acx3FF6HbqgnXM5upMS8Kp4kR+Ta1hM2Eg/c50aY5LWd7nam7t63j2etFu99bXTO6hgNX83pizJXbhPpTd/LfEhMk31kxzLk5EWjgL+GX8nlwMJuY2Fga4QnmZLjVH0w02oX8ibupMqCxvLdPnjR4vL9nQVl5d8aPrllQPOBieQGNI+0BMycNcETcGJN8kz/loKEmXjC0aPNy3aPeG0qDW9C1MuAKnKDhoR2j/pQX7c37TfEDtCxcP0Ma4CIdjnD6ROAb4QJ6S/qoQ1xbEzgKuAK/N2/etPqRJ7hldSCYJv5RnygLEwjK4LuhdmifOFmuat+74SnjCjztLC2lHQkxMS5pfJ/8depjQpIexkk6ccJgiPETeHIEqE9va+IuARrzCwRdBIoQxBAq2UKMXnkHIUZoa+nRKDI/WPw240b9f0bCjgnGNqFlHuXtznssPcUECliAGVho/7IDL4FbftfW1g126o6iIvphuT0647ujhIjwmWaH/ncVpA/kAI5FcNmd6aeEQIGPxrVWpy9LWNuWFndqJi3NLqdbd28LH0wE76bX3r6bpmfvpL848V0loJ2db/QJMAyO6HR0tHD4LasxtyU92kCjs0ggoOE+vvpxuvLxZ2lte0EE/kjakhjVbG+Yut+NeVErquMqM7s7JhduM2M5Q2KerbZ3nBBEw3d3ZIifCIGYl1rTXLmD8B4NYo2SaRikYyrbVozSwLRsjZ2Zvn5FXMkzCAJLUg0RIFTQMVhQ8dHgks3TxraYK+VWONSEHWLk8BMdP54yzsvZOB4Ei2YVdIVhDkJQhqHcOS0N1EeuF87A8/qWz07LeA2cMnhZf4SIWR3iD64tfo6rt/q6VNEmUa7lPURgYHD0OjOA1WCfQj3Q1tHyGHYqnqFaAnVNmoAWzB21amZuATNg8Q6IuIKwiEFGnSOuxVO9hjn68q7q30A9sNNM22sSpO7eTXOaSS0p/1nBxAyOGbztmNIf3ZSFEVPVCvXc1TS89bw/hPAGLE58XFCnChAzhNCAnThVAky5jtSLVkOginpG/lFn/MttH/3S2juHoQEJ5tjpGw47/a8MD+HkZ3i38ZhV2BBiPaw1O6EFSwjGmya88IAzt3jRGKtpZq6JUX1G9yNNex/flvDIzJT0CC8wTMYm46NbgIn+LgFU7WP0S3nD+ELo4bvsgBe/7TyL5zuEhMi7F7dRV2giZeBIA06I68tk/doL8EWbg+Mb6k+UBY6jr5IvcUJdv6O4MfsljjGbvIRGOYZ/0xQojOmtHPUAJsIjfggS1rb0Kzlf8u/UG7/1QggTZmE4jF/DsdNbyop+Qj12VG5TMFkfybTe+kkuIzRowISwEAIM7QHMuMCtfchF+5B/4Ip63EVwM62mek9ePo/+hl+0RbTf5qefk3tk2/cLTDH+SLOZ68477VcWXmgPYDdNUm6/rWvXi/FjeMqPVwITCB97XIECztBEmqAggQQN1IboSmiUtzVR2tP6SX1hLi0fPaJVD/FWJo7KbFo2IlPYhWV8qaBOXUQfrO/Ycj/L7miJXFsyvUOJHVeGj/fGyqLBRRr4ODs8A/cWrr5cOJRQKsv6DxM0lbW26f2+D7Hm0UrzWhoyOgYP0Qu0yDSzaju7B1oYaVq5ugtNWvZ5RWrK3nHv2t0088F6+rM//5biRzugj+pxBULkTwdBwqUT8E4jQTS2m3XreIsLSwJGEqSIx6yIh05r0N+8JMBZzY41aGXMy9DAIewgsMCf2pkAxs21EEYboIaIEsETwsrwkA/LR8SJARPgR0OQDwSGdJHW4utxLsbMb7hTV/JAlR2sjJm6wyYbCcG+x6xR+aF2Z0ZFOdaBWS+nnAqH1IxqPTRBxCaNPfJHk4CLAdzdwVSuHdo2vAZ7ggkXcBR5k7+FOBMLMMk/cMU7s7py2d150XGAzTVTzB4if/DO+7aeSE/aQXkBR/iX4TPgBH/AU257jydCb0KMRs6e8AhBIS8EYT2o08v2PKRhTd9mJ7nyaO8oG+IauCVe9KfAm8EywJlxKWnrm2lnVcRXglgcpodKGCHGbCnUljQTQg9EH1MOzA1qIjyxTDgge4dJeUxnfIJvx7lgVAsySwn8Be6AHcbN94xtNXb8ltsBP9I1UeGDrhynyJu+p4f1+LLrfMGyVG+qpYysD2MrQT1zXobPHQnh9AELjx4HPE6oIGI4YDB7GIQYRYu61Jg0kE7qF2aj2BRZfW0LgiZBRrS9j9Y05urS6JK2LrrUYHJjRTqDzRKTw5FhqWuMzgSulL6hhUgceQB/wEHf47tOHMaE6oPgyvirEmCMaStOg26qPGta+uJySm8LljiAzvES9A5GGO+zqofhMZdvsKlshGLvwyxxSYjOeKcvTSs9SzM4yg9a6t+Oq7riz5rWUTApfk1Cx1RmplFn4seYawhm6oCbYdlekwZaIhh4uW8Z7Lm9QTNLiJgLTAu4GGMRH9hoP1wNkwTaWeXU9VuXdiL6R6QjXhk+2gKBCb9p2dZo4i7h1vNr5DaOtiRtnbawNlP+7GSzwTecfnoeaucYBwgKBle0m+qUczCbN71j9m++0EUt81jc3Ib2EU5+At7GfyxTWl7CL0uv2Hk1EFqUG6hnfKGBbIjWYXM6vzivJWwxeKkog87Z5akaTJRH2yHcWh9EO4O9nRy8SVKlT/ro4xkea5NSX7M8JBDa5BB+tuvCCdGjPtSO94J+6hvYow/sUVY5/9K7KGWammXSQn9SObY8rNqKZmEzCwprUxKQWlKMgFsJbq2GNFuSieaOLps2Cu0SuGvbbGiAAIOggkOqRNo6d+6cIWZlZUWquE1Toy5JE8MN1Ej0C1Kvff3550UGltObl+6kdS1RGtGmMUWcIFQASaUxzGvp2UOQUUPFdkjbkio/1PpmGKy4NIyl0ROOjmkVtS5E43gD0W9NQJEjf+ClA8aR4z4AFAjD82mgxR3kgiATRjr/jfKwgWDAOPND2EBKZtAZT82zjUH5Wj7KhjVO1vapK846kVwQsBg4XZ3MYuCEtxE2MOpZReyAv/DQCwKKjbWM3+jEmVZ1wRWwdQiIkK9/gBzpydtwBgIYhHQu+ZWJSDnuIJgif35tVmh9RUJjxk0nHAFYh5ntwfRodHVmwUJ5GmuqlvoHSxH4gFalBxqIi5dLn1IF0OjwEKlAtOJb1/P2oF59Du6tHFl2mFH/n1+WyL7RTPM64n5ZxHhmupkWlSfMwnChrHaUxgYe+cpvXoX4TKMvd/MAThha4MlwZ5UBVNVEM7Lo62W8xTv4w3W1b84XeLZEDeh6xDdBMY8H8qYdY8Y+CA9AYcy01M+j30Z5Rixz+eVf3k2fkqU3TXuMPoQAY7VT25nOCjyDM0vDJIiGYYkL4Za1fBdyaTvX3liRVmcmFDS+w99py8Dn9rZU16oD4dA3oxXCBd/B/GGyOOuLCos62UnACDFF/l4u/0f+9j5HXfwJvDiuxVBhNjk+cFBWPHxDT3G9+I/8QAx1Djpl+eqxcnOb2kfJddL6WCV+9JNeOElG2dTZlkTkwBN8wWfZQSm6iig+woaQ/EkT8AUeyJN3yqUOlMM7fmW4BtWfQlgOwpXjU07BUDPsgR9wW9ZWLSywo7bTLwbVgrTRr8vhsXwW5Zd/Ix51iLp2p1V9VW4T4UAB1l94PBMqlPZEzOrzc7Z0tKUxsCmBS3JHqktwWZifNXsX+n/beCv9S3AqveGK9HrY0GC8lAlDzh6euadb3BVgfRdn5ee0pAu4V9EAkTd/GNgKt1Yf+pie6BPG00t0ifEauzQtY888/4TQNJ208GkTToRx5AB4pp2tQxkqF80MbYltW2NhVrjQBEN2Z1/79rPp9DEJOkXmXu8+DQzhVCCEkwsXLpjwQie+ceOmEf6Tp04QS+qwVjp6bCUtaldSs72YPr75Vvrg0+upKaC2hac9qXxBE5KXreIxU2AJJs8Sy0gMuHyXUX8H84FGXnSQjtGv+2cVKwSYgWaN2GGAkTdxdyW1V7kYXIGHiBudktk2y0gQflSWMQBj8O1gXT7EWZdRQ1nnECyRZ5SJX5kYlWFwXKn2GD5VDMBdOrMV0/nNr+aH/RIw0ElsNqV3Xz91glJOV66GlY+gmQWEiFeO0w9vJ7TAn/pAwBf1ppMYPhSATUQ4r7OH+bvHMeJimhh9WzrLQP9cIxP5Wz6ZoFg/BPeWrpMnfmUii33PMEe77cigjJ0EWMpL9ZimxHBM46eZNrvcMDblvBJmoJAXkRobA4wAK4u+O6wA+Vsf0BiLupf7A8IY6ncTyhTPiDR1AgfRyLmeFBE45504wDEvbWlswYy6RztYnJyXlZvzLMpSGKwdbzRRpHNbok66eu5XvYTc85b9nG2FRo3t49jOxTBD3ugXEFkn8ryhs0CIQYPLDBfCRw9hZwgaUPIib9M6GOzU1uvub93/Ax8E3hisBCGrA0RT+UPjGM+7NpnCz+uI1otv1yK7gN2HW5WNMw2D8o72KOMTjeW2lrxsC60eyuMxzSt9mpkpQhKOeuTKlNu2bRoLBB+PVu677uOCF/7RbsDEO5m2mZUr3+hXkSby8XiKojp7j5EAg70FuFZkliJwEY/3Mi6iT0V+hDu8rq1ze5VO/6Ufed+IPmTZF+3oX53/FxcXrB/jQuuDYS2wmhCjP/tWfekfMP26lpjtW21c1zEIuYv0Zm3fwA+TNmNyfVPvmNRH/wI3UefAsdVRD0uGkU8UUNSPXi8DXDaa+DI8k0nVRgVZP4YeG22SIKO+Piu469JYTImRt9UGTfHNddnONKE9cpavFRYlIWj4Kof1J9pc39EW/O5KG4V3EU5y1bn8RG78Uudy+/S2F2Hl9rcyc579v8qLe80MYI33rKxAA4N21XCi/tWQRq3V3Ekr8xJkFJ8ltq89+3w6K7HDd7h1yhxSqXGnAAAgAElEQVQowABQnP1yUkZl4U6d0rvga26up1khtSaDPKz627IYfuGFk+kXv9XauCJor486Fx1W0hYdR41kfoIbASW0KqHOZ+CiGWCg+QB2JHRb+9M1RVDEPAyhspXhcKtAGNbzhhg6njWIz7IC9ohXRmpRsfxCOpBYduXGo7PNaAY8RSMI54QVzIhk8BN1nHDkV34HQuxowp9605FwdC4rv1A3e/6E83idsD1QLmgPct5Rr4CTvDyulx3++FEG8zvKkBl8gFaUTRybIfFnOOzAT2TmELUGM8C8RT13XgvTO52dNgv1Jv5BKD2cJQqYEYy8lD/tmR/waqV6F+CtcAbX/9/emf5odlzn/U7v3bOTIS1qsYx4zQcFghwjCPJn+0sQx0C+BzCcCFbs2AElkSKH26y9d093nt9z6rm33tvv+/ZwaFoinOp5525Vp85Wp07t8EwytuOo+wU4SpTnXFGLsYKAb3SjNxFVwVZulkOtDtvuaO5l7wLPH926e/rt7mgiq35qHdENdEflgAm2Z+rhuC+jvIsDwJR66QzzpGjNAI8uYXBaFWhdFweK95cjj5VOuHmIDkNnGZX2WW86gL3RWeBeow0DGfnSsrJeNj3D2Nek44IIj+p7lY3qQaUCRs+QO/9N8jSvwYcfhjr6jcOjnqo7mqAHiWPPCUMZ0itgQZWHlUoD9A5XpXAlPyRAi00WjVpaDaFUfqBQCNk58g+A9Rt5Q8aSBT1I0OVlyBZGDRnQItSIv7vfS1ZlKDdVeQhhD79ZliWajuMlD15cM/mY6yjk8NpfVRntYSYqmFaCcKf8E6Px2+UFesFROpSySI+jj6OQnHgHrNjTxPEKFqeutNcsSzec6gmsPUVaLzJ6PeKKk1Z6eiU6OH+KQO8hPWeUqWtmWDeGpkyYAvEU243zR771Ls5U8RPb+oq5DopTuDIcX/kRPzrJfXAa9RRZKpyengjH9CBVD1nSpvF2Jce07CoNwqmcML2SM7bgn/nR6O7zhTjmnYR2VjZmWB+OpnfOvCAuvEZ86KTe0fyJHKx/LRCXFXdbGjrZkP3VZAyXA5x1HGQaRFUfarhIDSP2GzpVXbGlaRqv7+0OTxX/7ORQ/NecqgbW+bfyRZ7o9JUcFG/FITo91MbwFIVHAedlS3PJjLC1bQQ0YjkKt72ZLi2u4MVBBC69odZD4QFv4uyNOgWN5rN+ArGxyb5xuhfbWNGUUOVX2xSop+nly+fDvQN1Emge7dXFoVZB3xse6Jy733souyo2725oLyb9sbR8qQNzA/fuhVvgpkUMUiWyuyeDpGc1LOTtMgehtv3Go6KtifljzHXDY6hOxvB2tZj0GMZjivnd4eMsuKBY4bBd1UUc58YgmyJyLQYqriuCxcCbKnSdknXpXQFjSCSQUQnb98KhVmSkAPaFoIQpo9om75FzDyP3rhCUT2giHs+tQVX5Bwc+ivZmxqXk4pvHYyk8UwgeXNOCq9ZCM/7Qo78NCYoZ8LReexpRcsMQSFbX5FuPv1Gx1oGvnNPWqhv5RdomB4/n6mc4MRaWodLT4uK9C1VVfMRFuFXMmjxn8gOWZY4DKBqYI5LAt/Ag3aFUcJ5HAN7QREEXzC1ONAYOQfhAO8HY6H2GUCoCcEkvesR8qgW16bRHhOa+6HyeXRn5/XcfDFun28Pp56fD4bNXw/t7asVDJsbDY7sCoMkE7O2I07WRZcOVwc3/hQh4T3qCLjdaXUlMQ0g2ng3vyMo85yVk9UpCPL1AbvQAAMcGj3fwx9QhYSWCGU2WctWAps4PDCS+2jSU0IN3dvrvNfMMhCd83JKzK45aNt7zQ3rDElDwwxElAQ1Qgns7fK+vfKKnTDeOq8bIhsbdmMdwzaRU7sHHThE2h4qlHH0m/9o6IuP8iiOCD7zSI6sA+SBb8AM2PbeSlUXEO8oeeDFRX3q8qbFAqp6bDgx4V0gab+ilwLP5i1xwuHC0COCCrPVHeSQfuOXeEiNWeBUDoAgHAp+YZeRiAfFbHhBie1KQjXtlkTeKrzzg6LZas9D6mlWhMAEczIwK9EDyXL1E5SAXDcivOVINbHpAnJf0nFFkGtUZ4kJ3WDsz2gAwxJmyaMoGYfSnnpRpCDP4J15w3LlbjkK+p3HSx7PT3HBl0UHm7ZA98xSDT2iGnMA3HJ7bRzdYRusssK1hzBCNA+WbNNI7ylQN0bfUja/I03mI8Nee44TsZcOAIRvB1+KV5pbKtuzuPFJXaW1VcH1vbzjfZ0RDsAX28kiT3OmRbLBjh0GFd9VTpjIL/TTm9T57u9D4vdQqoLUK3OCM8jGRFdAr6njL2jom/HFClC9a7fLZhgT7NOM9NyiJ6KWOoC1eAcvEiIn8iGM1JK+0tF6NhdeXL4c9bZ2AXSAum9m9puOC/PkTjK/twKChO1oipyLjFue2BPfkq5fDR0+Oh0+/+NReCLx1Ja8fLgzEbTL+ZudHSq0KiDNtpsJeXZQ2qM1YjwKiYIopCIpKmZ1UXXhVQdm4REn0DYIwdjGYwE9wYYfR9pKq8PR5lGetGc9SMOLiCLhL0nFd7xZ8GTwUlUBLlfX8ZiQbmyki9pUQ2LnWW2DQMwUtZdTIA897MnQodRUK4MJn06U/Jldt+cTlVvh1V4o0VeAYIGjhR94ev25esvGkUoEPzfiRL45o9nVhGSP05jfhXb1NLHmjFwk5oojgCv4Frzxx8FvEkbk3SadPbhWVEfbVmRQNkC40bWR9wxfjSyGBHxhYFX7tXZJv4GE6RDNLXj1MgDw81IOuKKYqvSucY4yH3gGT+BkCjLwvtES7D5ZBfqRRPufHWmkkvd+6dzBsyWGhEF9tSw/2NXNfjg0r2C70Y3LhHfF7U7sHM+fr6o66plVAXVJXBAzQtud5lE6caxWAd89VoLJ2i1XJS+7Fw3FbAX1ncn2Pc5+NTbPw915O9IaIp+gU3bauOEUnW6SUc6moeo6ThB7hvHivCuHDEHMqZvKI/roVhk5reuxOW2rNtzMZzgvJ5rUmJJbvUnx1Txmy15VK82D/oJwdyflSlTVpwQv9ovXPzssiQCmwGdqbRA0a4GkdiFZAqv9EEwBRLrQDGbvkoGQKvGNIId+hDadqgQ69S68A7zfVMt7SIZJly2oFZs/T+T2V56aGEdhBlODhCI66UCjnBT2vVGDlVTpSUHgL/RdayTj2oKHXyLqil9xlN2uFkuIzF6LpsZg2lvle/ny3jVE+2K2tHU0ERX5q4aPLvQ2NDD1sot6XOPOXsrnw1g64cEzjsXdgMPxUQtgPD8PpZ53CQYR2lyFsHnpV+TLEg14RUhYZoidEv8E/P97vUfegl8KdIXwmjdqWNjlb5iODcVZlA1T3FAzJQ7oe/XNGLfh7gxFbkDzoySAQJ7rifNo71xfX0kf9eTfwLpj2JsEr8BCPLAdtCeENG2XLkAO9Qxf6/kr7oZxIv8/UC3MuJ2bY1UotxXtxJb2Q/dqXvlO6Ugcx6T1lxJrCUIxysW4zAgLD9c/Dmna2qBOrPCwg2h4o16WTVcc6PTREftjhxuPUM3xDZ1y2ZmGURYNx/lo9aErvcq9GCIN+yOOK3mRd6QF+oF6YO9rv6+xCu6xrPzmW/3/x5bPhh997Z9jbLj8AZ4nwtRwYkpRL0IgSMa9Oj4a/+du/GX7+978Z/v7//Ho4fv1AE1WluMqY7iIqJ9p5G22bdwtLSpSJVSiLlxq21TypeMM4hJONcxBgjHXGJvuKGGbxPBaGZpTNML13yxbnI88zQZAu+8BkfLocjKpiETyVn+c/KDBhDY+ZdMT3ZkS6BnfizO+PtSSMwg1d0EB3ocfBhTtwkibPFNK8x4I9fPgOUEe4pVhVGZA2+0nE2DDmDHzoJ09ObA4/iI8cWGUGLdy/q30MggPx+E1K2AqccAKv8BtDFz6NuIJlS887y5yKuPHfRgJ56Of89DM8FBqZK42Nhd6ne5qkVzKkZTom+IkPzWx0BV/RqWnZa9HgnhQpMBUAoa+II2+3YIT3PIAbBe3Fq5duZe3JuOzuatt1ORsbqlR37m8O9+9qiFUbee3o+474g1O7p6HW3btMRlP6U1XgTw+1quUm/ORnPWq4w4OTE5b+Vnz091zOY3oA4J1pld6F1qfPyhGJXvR0wFsqHebBsOQYOs8ll7OzcuZquEL8kWz0sSqJVml5PxPtgcI+KLVvSaWxIdLP8rL+4lxoiq7oIC54kafUftg5FQMlROxIdIr0li/lU/fvPtZqA+XJpmtn4lfKivVD9uaiNceYarB/oJUZMnbgyp4wSqLer8lAl4nzZ8PmeUfOJEpFHQe6rGqLw0IckhOf79xvyVHd260Kg/lZpye04OfaMT0zpLYv3fB+MQrgdHZW5bMc0IINT0yKdHqbyZs4xHqQOrUKtmyteQXxQgoKNjTxeVvyQU+iq6XHtK7LMbCuNj5ER6qCka6wWlR8PZYjTaPCvVviPxUeaRxf+OyK5m31PBEutLIMHblkF1g3PkofszqT5/To3bvHURtsAMgEXZxPg1CgDMLzavBttjw4GgR9s6N3cUd2qGyghZSUll893LtXw0bIjviXXilTOIF76X3FtaOgHgPggyM9ICeiu3pgRvC+CU2kYYNG+AU/zs7oda8yVT05zV4FIfGDORoce8EKU/iavjDj0mXDEz047Cy7q4YNfMbisWT5WHpI38rdjf3hVHxnCfHFvsrRXTWY1Fv28vlXw/HhyfBw496wp7mlsemRdco75RBa0AlPB9B9bAMewtgbtUj++MS+Ob3OTDxFh5GnHPTmqODsUHeQN3lgI2JbAdhTH14cq74EBzZFZDpBOcOyH3Le6C/auGQzQ/FeDcGT42fDnZ2L4fjF8+HvfvG3KqwfDP/xP/zbpqelEF/LgQEpjwOLAJJjUF5pt7xf/P0vhr/5n//XvTAvTmSsNx/JgXkg70nr+hVxcmDwzGntNe9chMcRSQUI02EaPxsdxUEoqdCohMadePH6MLbg0gotTHSFKThJA6yxgm3e/xw+lSsKm/zBi01/ks6ZiGqWUHullIIdGLV4UZZUPNlUqeJPBcOpRQ8K0jsw3rGyOTDkT76E0E1c6OCZ/J+//MrXyYiUcazvtXOojYH4DI2p3MxLwSePGkIoGoBNr0U2Ynp5uLiPQejg6ta4CmA/eRn+2DjqSn7AS+CZEHnAY7bARikc387gRIuIdHxwZAihjDBGvvSBpNJiIJZBammJFz7RssyETPja64fBy4hFfqSBdnhXjkA5kjZ2+hGig9wT70KTdBl7vau5L3uaC3Pv7mOvELirivuB0hy8f3fYE+931frZkdOyf6DNz/RT9T5cqZK9en5fq5Qm4+xMugAecTotG+kYsiGg92fsHyE6wAv+Gu/m8EDr41e106gNRuNnwJPrhXBA57LhHboCD5BtjC3LL4FvvgoH8gGnXc352dUqiRN5I+h9DCQyJC6T+t37pXydBrzaJm52SFgPiU6o5g5umY9CfODc006p7hFsxtFlmGFD5KFyJ+sju1MVOK1xlzfpUTkw7NBMWcF4lrz6OTEMDTHGnh4sYPflK7LONeXRhhm6hMfF6b5HDVYF0niDPOFGQHYx8ugdreNx7psECc0Ycpcj/U5PmSNU/EEiTWUNyzLXN4aB4sDwvhyYqYekl310BD3ZkP6wmVvZrdqvx3zvyil49GUa+OGTh0cw6A2XPp8+XfDpbYETiZqaP1GOUio98qcyRJ+ur2sVVvQDmvMDwsGevosHc9mFDt4nbU+79Ue8Pz2uHtYbZcPfy3kPb5Fl7CLxMyyIUAzPIGvYBlpId3i8O8qPNMiSeMSn2J/KMaH+PBCfd3FY9flMenUk1r5STXmiozKeSi+O5GRuygk+eHwwnGlDt+NXXw6ff/L58JU2S91Vx0DyA+fIoacJXsJT3k0OjMqRl0CuVuCsIku9HN2oPJTWw8BVd8AbGjN8o4ywOnPO1/4ZXpxoFSBzfuLAFE9xYDjGRQ0R2U43Sq7VQ3j6cnikHULPXn0+/N198eT5L4e/+NmPq3zDV4Wv5cCQhEJAoD1gIWL4ZKz5XZ5rC+ZTKSIevY+P1IQlhAfRMj0aC5Li1Q/lIP2lunw3L6vy8zOVnK4wrpSuKjTiwwzGuvmWAtMzGLzOzqvrvTdMic8V4wXc/Ehj49sUvwRFixJnoKtcFa8mP9Kb0bXgZZRJc0ctC/ZiONeko+BtPsGjFkKfjTJ5SqNfq2vQxhFl1zvu53TznkC+r47g4xyvyYkBtgu3+Fz5qdITTwzT/KsKiXzCOxsahmXUc3aI1zvjT/D3HBY5MPSIhV+9HEhX/CvlChzwRx6jAWzyJf/ywFsO8FHffIZVk7fpHuOjf+hB0TaHH9oUS+VMetgchfAWnd9ow0qlS8Un8/1ClYf4hAM00t85ioUhwxxUMidajrylra23ht/73sPh4bv3tP+LHGBV7GyMtq9l3jsa+mHfiW226deO1LQvXm+eD9uPmJwWjt68VuVBy1+VG/ZCLeEN5UVgqIGdlqDDOtfkJFFadnQR72eSu74Tpw/E31ErmorSU8mAqXkdG5ow54nXzkO61coefLliKwS3Smvb8s1tdjRVGdPSxi21gMuGl44Tvz9vjB4FT1kR3A0NteG4CWI5wg2xeQ+MtrP2PCzy2dujXJQdcNnFgZHuZ57Ttuar3BFPS670+GpXZMVxxa+XOHr0Y1A/W9dxnHdUwTU9ZT+VDU9KdNEQPxevvKc9sbMDr5VO5YR5reWWNwJmF1rrW7tysrerotyQ7LfV7Q0+oODVVIILbFeEer8pQbuhp7KlKYXGG9Q9FAAtukd2vKFc0IIHDOfEWA/YxXRLeQq/cWuKJnsm35Z+kD9utIYIdl+rEiQtFXb1IBQZZTvryIcJFvv6cFTGlXgvSkZcSFN8o0GCzYbPokU9L5vSMxp7hMKduPpmW1e2v3pt4I3m9WyxeZl6LcXw0tvebpZs0LYt8ZMvLNpgnxpMl74qX2wifCVfC974MO+DHbwTNIdciFRv0PgSCOZv0qAzbXm36tItJp8oDypb95zFLqAv+kIe6CLb4e9LX8geHKpMpZwKV3phJeNNle0dOfFyi8VXwRfO15okd6mye8ZcGv3tqvflijInmV0evRxOv/h8OPniMyG4rzjlwMCrhrbl0Ifegdk+T0MOG4GbMPFjMRWbi9dROrZDXR1hmXj4HXpLrjhIODw4JpeX6rjQL3UVcHv7wz0onsqBAQYOjBsvemAxAj0wDCNdim8np7JT4uP1xdFwLSfp4uiperbeG56/KH1HFglfy4Gx4jSOcY+heaSzH372738i4d0fTs5+Lp9FS7AHtaI27kpP6E6mlSHhyoFB/SE2lSxEpQJMxc23KBNXEz77xXCnAk68MM3OgQzzVPFXK8OHP1KaFZJH0oTZrswVkmfyqivDUCwnLAFeMZ5/pRad8HNlrB959rDn96QJbGek0MfJc2iKo5D8Nxn/l+D70POH/PvnOfxNrwQpB2jKt2oz0oX/ibOYjxSfuRzM4bEFpsAX3YHFtVfivOedW8dSnFSQo/wExzhLeUfV1LM1vgU7Osp7g3HjrgD2fCKPwJxSLhYkzENkzTX8SvxHu3XGF3CBNfGoYhxrtRG7Z7GfyNPnahV9eaAhmY3hoXon7shpenZ0yvqCYV/3W+fqPVGLa1eGi3kxHpNWjQ4PVoXkS96RR/jpVUf6Nfs80hFZcY2+zHWM/OCh50+0Mhwc0kqE3bn3txbPQ6/wQpUEZSjl12UFOQGbOJT2pheQOBp6gyr54SAiv8jAuOsvQ0gecrIuTHoc+nA8mHPNSp3xXdMYy9KoYHG4x24YNTsN1gvwP8Pbq/fwNfxyPMHnnXFViD5xRIhloTk5OJ/rHFDSHJ0VvwJjhOlyW5Wn+SNYXP1WeUYuUw9MFQH3GBkjlQ8aEeAAPS0AP3oMnPCWz+GT5QNdXd2Vb4nHdVn5jy6VMyX4iLLlwzdgp0HEtedreGn5qPxX5ZdKfbLvoYF9BXv8F2gQ/+AZepb8k878azzpeWG62/uiY4KffILj/JrvPT4+TVp5Je6IX6tbiMs2BYVX6WHivJbjcr6Dg6cKX04Lc1621IC/lPNyLM/qRD0rhzpH8EK9TMA5Ozrz0RfPPvzlsP305fAeK8Duaw6Qykh6vYFNID440VAkbGuIiqEw3jO8hVxogHvi+xoHhi39w8u6TrRSslCh8JOpA9uah0YeNHBo2LBXU/DxjcLIR6Xd0nAqCkwtbKcdaUquzFnEgWH+GLb1QMOw11qwci0H6eGD+8Of/MkfD3/wg0cj38P/r+3AXIn5tS+CxvrUTXVfXaX/+S/+Ynj86PvDZ5/rnJF/eKIZ0/tyV9QV6vHw5sC48NJiYrfAxc2F0tUPYyA2vxDfP/eKU+y5+T/xo8R8JU0cpFWVR+CiAMkvgqxWcW3KdMksR4Uezz6vzbb0MPn2V+7xWsdlng1O8okhCC4LFYXi4jj5SPVWgIE3KkfjG2mTnm+9gUb7eh6Dd2AkDQoYGHk35YMxwLCXnHgfAxE8eO750RsPWiTuFKEiUTznI33ueRmjbsQUiJ5AxYQBZOJl8gNG5E2+yc9pGy+CI3yvbuqpwAc2fCJ9aA5+PTzi3peDs6MhoZc69Oz5q+fDh7+SPshJ+dH772up39bwkskeGHg5MDtamrehnWPRe6/EkwOvk1+8K++qMM9vMR4rbnhTldcks0WAc50gBXHR3GsqmDY8Rzw79ZS7llH2iPFj0xfKbMlI/MHq6J953nrKiJoWG2e8xBkBq6zysSzQHWTHX6+vWAnrgyi7qB6mqgCmitnx9d36Y1hl+EAG/FyBqmxQfr0KpsHnu+lrdLIsPTw2nygDukZXVGAM2+TzTXldtUqZPZRqiMyflwbgIKKcdk4ky0k/3PM6bLQqYTuUeofjRRxkkKvp1V9xSx/oYeA7AOG9LyW1XP0tcdo9F2Ihe+aws79IhmQtQ9G4YCNIL1yi/07f4sFTd6pATwu8s2NEz4n4Rj6R3RipexcnJvCDe55TAY80CXZkA//KeezsmPC3swue8JMGavcOg5Vl5uWcF5/N38a/UfahifTtG3iNZRK9kn4Yj6YjgeOhceWPY5H5RLYpgjPir8YX+5tQBphPdKZGNiMQrzVJ/FRbkZxu62DPXU1i10IN5ntyMOazT54Mz/Xb1zyk7/+b94Znckwum0NivW6yCa9fj8O/7PlSvBuH0j1MzITylPZeQnW/y4Z3CsF5UReKZxH/pUZOXmvHfXBY5lABJ3z0vX7Mb+GOsmVTglNFr7HqHSbpe5sJ2dO7GqrW1tpqsJwO33vn3eHPf/az4d/90Q8AsxCWOjBkCuIJ8cph2I66CsFkk8mLGqei9DFd7R0dOfCQCaPsfaHuN7ou6S42srQa2DtEf69tvTUGRkVcvDIMWqcof59v8q8UhU+WR/fx+nvjbgUL8AbFMtN/K2SHsSDQrVVWIrkrCWPfqpAqseJRy3YBQYxpoLWFVgYWsqzhwy592MxqCOrC8o8W4FM2KoiDGqq4gWAXmzx77BZwUzy+IVp+rQy21CsY076WOgAcg9WjgAGZEAj+I1ndt6Qjp9aQXGBlyExaoM7vkX+rXipTo109C6rBFgqMI/CdCts1v/TCLxsDfF/BjqFUpi9w/pLuDm5JJgDshXNPrQIMw6l6ZH75q481ueRq+KPvf19jtveHK81zOjvWFgPqSt/W8oJNOa0c+MhBhuwUwcnZc6OZfNljJ6E3ItZxM2NUBt1HZpPs4pSOQMYbyoXrwcbTqlApokwsTPAwnwL5eYdMRZigV+sy+Ro/4vp/9S7pt+vyV/B47+9WHkvdxnvCW7cj9Kb4miS7KmTHzmqEUJEQWllv/GGRduVU34raRpNeeRfhRtBc1jzP393AxcteVwfzTXB6J553Y4VdHKn/Bcj8adcRsF6ahtmVXF2Gmk4G1+Jv8Tnzkoib9yNNwsvneAlwvvXxuMfWrwrGRwgsawTe0eoXQs+/m/c4j0q/ZKVR8NhBf8rY3MSfsg/uirwKf4aLkm/Jc2qQGkHD5rc89HArxsQPpxIO8/wdz+WFSeEnHqUAjmGJ3iJHOqHG7wPZgUs5+dgFJuNSHA41YXVrXzvca17dcxmZS00cPpJd+fQ3nw1PP/5Ec+quh0f3tJmsDPaebM8Za4qZC6hiBi5UyQk1w0PfmSQt+1ShxZeiVZ20mn4buAQrIbocHkTz6woUb95J0Ctv0ZERjvC4ydJRSGAzXE6vtzUwKuBFPcLwlibmaxj+XFNRNsWcbY04sELv4f3HnuC/pR4qaEe2NEhXOjBEiJcZpFyqQEATGTWI596AaxnrX3/40fDxk+fD8fNnPi7crSz2fTF2zaA1w+URxJ5J4N+FNaytWK22LDVuilxSad/D5BlgHtd8WhL75itbPgmzz+9mrG/3zTeggaQlkbdDsXStCvBbQRCApq9j8gV5C8H+OXGndwGwkGoBldVfiIabSow1TFwj24JdvUAquioLmrQm48K8rKfaA+ZXrz8ddr7/wfBYY9S7u3qvLuBL/bZUJjh/Z9BKvH11IzMWPhq4GSPnFUji1RXjwm81lX2lMQNtsufDRyMnArI3OADQ+55bFzRQ4GKL58q3TyMDHQfBOAOi+17LH9fw3zV0hRux9Mmr35xBpNFVFhg0egKU35R2gudkGgbqcR7p6HAcEZjdkNzDoKsigBV52+hPFSnvbEvdYmj4wDc90aPgN+3qrn6e9ZIrTnOeec1EaeLP5Rw61G6dZNNoGuOi21TAHQFz+uf6R54JroBwQPqXuu9xiQM9hzvpQFVWgEi6Pi7yI/Au74nHD22iYmMQJGGCW2/mPSPJJ3ntaKh3jv8ITDfr6IdvLOzgmgavcVO6XI1aw924cT/qtJwXHVaKhLc0aZXv9ML4/B8WR8h53zm4Pzx5eTh8/PkXw5dfPVPb63q4K4XGDx4AACAASURBVJzZwe2Oeke8jcTU3uhR930vixsf9YKFE2vDOuaU5in5xP8bsJbs4zbGUbLIrvZkKv0vq4x8zck2DM1cLw2D0Ssjf+PpF18Nv9y9Gv74D2uVbGAudWD4OGeEu9fx+GAALQDyUmE7PzoePvno18MTnRZ5oiWmG3hRTLKUw+IuLgOj0mdsDdLp+l3NpVbmRpoXb8i3iOwVd0GJ11RAE6w1AliRs19bc/JbF/Fb/Gb63g5/eEvyt0sNTc15WS2+9YRXeZ4QmOFivFa8K8BtvHRNLnODdjNqnJibX5z9WtpkPliaKL3fkfO+JYNCw/NUm0s9f6Fel1fHw0Pts7H78P5wV0aJuv7slZZOA1QVz7V2sN6ni1Z6FAPNtS9r6UIPdn28om29AVpLv4vOcgL91voR01wYZE5MUu22spt8FpwBJbGdaJGR5yI++uAGyE0c8mahImhMGL8JIPlP/Gq9AfSq2HBQWRR/rKmjoteNhx/U+rfTQMWiX3pGguec/w0FX0jOjspr6g/DNA3tR7rk5W8NqcK2OTAdv3r+4zDEgakoY7NtQWeSh3Fs8k2eecd7Kg27UF0cvhNC/+oePMEGafE3fXLJq6e1d2CW8dcLARQmGS7mH1yCT31t8YX3tno6GXZISLx5/OTR44gE2Xtmmf4t5DNCX7whV+8krquH0+g1aHJ2OVHw0Ka7OTvHWu9BmUnjm5oDhu1gyORIO7pfsajg/qNhU7N/OTzxlQ6I/eSLL4ePP/tsONQcunvqmVGXhIaYpLpMwqYebXktRXPdN8qHeTfxbw7DR3vcGlIil0Rcl7/LKAE9BhfuSh+8uR+6Ae9MI6tlVT4V50xnMD75zSeazPuFHJj/tJDpUgcmY2vEREBpTUC8u6vcTaTMGA+Uw2J5STlec/Q2Qxwsn5CRZuil+NG8VBk3o7/GgVnAbslD7/8vVd51DAy8N5HRkrzL+BZtyz7/i7x7E/pWIEJSSF+jfitS1utJ/dZGW/2R/AESQA2fJPDrZe8SwelR7tWV+DJDNiKkDKB9nfjnhnWBGCpPrTSr+RTVtYkxeq2lqRca2z5RS+HXTz4rI6Uzkh7q/YbGsy8Pj7WviSbzam8MemI2WxNqXsmQV5W1KdeU+WpZrsO80qyj37JvXeA9XdEHV5itjI7vmtLwbN6J9fmW3pwyRw1i089lRZyyWzvs9rnXPXk7j5a+t6PJD4vHahcC0UYcMYauMLrKdYmUwYnTj2kFwtfwv7cjHCK3Ktj1ZWLk7WJY6sCU5k2JwcearCtvefZ8lMYLXmIxp/xquCzD6OFVj3+G+wGb96NOi2lUCuscmHX6Dx7eywY5Clb/Mxmdbepx6vUcvs+dmEX+194leQfcETam15vBlbzzbR53Ic0MrzoJe9SoRH2jKzJKD8INHrR8jAs8LgUb4cI7Vhztqy2/pfrxWBu1eUNBTb1g7geOzImcsw8//XR4oo4AtinY10aZ9x8cCJz2g9JGkJy+7V2b16C/Tn4gU/UnlKwK674l49Vx1uVPakZgUPg40mluWNOtG+07Do18iyvNIbxQr9XZsRqI2kSzr/+h4IYDgwFLq4QIMWju2isMyktSPiwb3VCB/sEPf6Bx/X3t0vm/Vdi0YyB/8qDYTdUFEEAupPxVS4BXy8I6BgCklLUxEpguEUsK6zLgFbUhtCzCbe/It+V9W9Rv6XtnI752DsE+leLbAEC9Vqvveojh3MhB5NYl8f2yd4kj4jGf62SAhq0Mgn2b9NbpH/2J3k2aSl4VIa2hDXUFM9ZMz+KVJit9/uqFJ/DuvvNYp7bfH3YfPdRseu1JpN+Oxna3ZIhYAlp6m/a48IpgJZxy9ycqxrhh0EoC17LGnJnLz/zQy/Blg63CAcM74yR8Gm48MVdtxA9ZCV/D5NqeDbKJgbRxZog57iFFpBZ6HIg/VuD6vugswDcSIQeJIUjzypUGHQR0s1fmE3crI4wl02IX3V8BCe91u982b2uoLVwKT/Gj0bY0TserkQmKGIwqTeMV7xsNAcnpv708wovkyXSEib4Rmm8siZoEUfrVIWg5IFn0V9HKjk7XMeobGIcM0YH6+INupe2HcEaYfDNf2vArOt7iJ07w2Vk3hCQZVwdeSXAlDQ3ovCzjOG1Lv9eIb1zF07Fu4TZLiHvZEqF0g45WRhrQxapqvds130Uvp1xoFb/yl46ymlJ155WclBMND312ejz86uUr9bw80UR/nUWoPVXuyblhwzu2/2fyrZeEq8pe10sytx2LdMA/sMGGvk1AxqQztUvDNFx28zOpWCYNDPYzwtK418Wh9APfgTaKmgn6zjwfbY2wszG8/+6j4Uc/ZBPXxbxvODB48FFCwI7zX3RPN9mlvMSdNlOZDQl29u8NP5JhHrQ645GM9vXHL9ztyV4NuVaWKI4m+QjhEmmhPf9/vQAohHCwIC5T4LXplaw3jvO83/h5tfzeGMRbR/wGeZtz+s+25C0C6WNw3yK5k1Ql0qUWLi4TLfi+4Zf343cr/S2F7y1pGxFYwxx6Dvd91o4KoiboXuhHS4yl7dvaF+VC3841fPpUQ0WfvhiG9zV2/VjvOcCP3konPfE6URNdhq7lHJpt3IkyEZI6Zapb3o7IyC/8BAr36MTIY5p3DT+uo/PCPYJpG2Gl7FlYINbwzTYFeTb81utTuhNCG939pSHhCyDzbUROFWT76G8dj0wLePh7w2mCYEiOToXSAPc8Hulc17wlOY6Soa0II3nLYvGu3tvZa0+LTkxZML4tOEpOJvpZEdY8t9DR28FxCGieveUH+Qy3TbhPcqx380p/ilnIjmmNf3S1cOP/qfe+Mun1x/jjILsOIG0xa9GON/70SLa4biR4PulEwLI6YAHn7sFrvm6pf8bN6lYAgYtVSU+4N5H7/Z0sMRSK9FBaho3OK/bGEQ4cNvmaI0i0VPhctuGJji/5x+dPhw9fah81xdnRSqTtHc2jAwdOL1eDiMnJezg851T6c+FOyN6incIn2K4gcO1r0q5PvxqzSple22pmyJ4LH2umy67uZN435MHg3HhrOzltD3Qe1O//8HvDn/3Zj9GEBQxvODC9w5KYKBpbtL+Uh7itMf7Hjx5oh01lzq5LGk1iZv/uwb66vO42pwUHRj/mwAix2uXT6mMEarHdck5VMVv+jbcLeu3nRWW+Lf03c2DIS781CrQa83+eL+vV55Y8QF1R3haGqee/twRg3jccRkz1DEjrcHu5aCQnmrzB1i0UrDXAZJNMJrALd+v0x+OyPs6itsF20WOolHkRjI3LO9vbvjdcaHn1Z0cvhg+/uBoO1AvzgVYfsWX60dmxN0VjbYDLawifY0Blk9rJ32S0HJm5MzDq7QQwVpotuS+dPEo3agiFxgo45EdU3DUb6VmZa2AsP48uG1BlMlZSBdyNP2/l3slhAQ8zpoEATBePt2yOV0uzpzjkTyJv4qb07qEwjIXEFW3J/0VPxZ1WXNyMCP9YhbkOaj8HpIcwytOTKAtGRAk8wxR8pzfu7cd9eyaKl5wWazsHoHKCdUwoJ0BT5DTJcBqCSxxzqZNnNoEriIv/F90t84VPE0fgXw8v0WrhBlNQ7YGs0O+artDjnvRFg9K2HrYpj+BfeOX9UhxEK5vlTdjepLJvvN/8Wj0so3yi40RsMrqTo6KbHpvWRi9LrS9VZ55JB15qo7rnOqTxIy0T/icthPlQxwR8qSHmvXvvqjGk0QyWnmo3Xs5H39LY0xZ2RqsZL9lHbBli7d16/G2xFHN1I/A2+zlp5nIk1k0SxnpnbTClYOyBUUGIzDkfiTzwEVhOzXVHPL2rrSse3N9TP5S2qejCDQdm3gUIYJbmPXv2bPjNJ58ODx+/w15aw3vvqmsca6XMn528Gr48OxmO5CWeaiOcSy2jvryj7byaMbGcEYCXSdHt/rYMxGMD+8VC1yvrbQK4UYEusOO2BzIvA3RbzG/reyaLvS38GPe3St9KzjoDsA6uC/KaxKmX51Hy7EmIKPtC5b6Y41r5C5A1b55BB2JteundqcZkd3REBnMBruWM2KlgR1gjr504tX/B9cXG8EJnHn14pkm7erf16PFwxgaCr18N76rlxQ6iVWBr8mmfZyqbZXiUTTQXF4nunpY1QPKZqp2ljiE/UEZo+pBVMOQfJ4YaM3qH/Lr6bqysgLlQ8Yy9BA26YOC4cMDmXACOIQBcgdE/8yn4kUdtRY9jpffg1b56Myx9Z0vzin9TyOB+xvbqpoFWXlXy843JyLPPNzrrPSvoTVqjxJHbvALt5dnruZ2Ylh9X9pEKvVzJanwWzqxKMW6zMpD8NjhMSaGXRXSq0pUD4UgtXn9dN4kZ/NyCBoXGwx5X4CR98bQ2z8NdC37s4URYhb8/KqziX/ln4dhivJ7meXrDFOIsvJ234pMn1zle/Tffa8O56F346ucmD7ZWIO/oWGB60i8V5/b+8EoyfKHbZ5rb8iudJfjh8YvhKenv6SBdnUCxoc3urrVFydUFB9Nq2GuX/VY0b4ZzhHbZIHZ1/XmbA9OX3Ru06cXYg7fs44JmLo1wQ259LLhPjwc6T2MIReLeOq4byvIG++jIT7jQfFodMKE9cnSYpfaUOxQ/DvWOleG903LDgSHDzIPh3J67Gofj+aOPPtK26R/oMDlNKNJM6lfe9nl3eCrm/8PHvxl+/g//NLyQQT+9p71etJ2iJzkJAU6N3dCKjOq65LRORqEnBVzOhuVvUTyUZZ0CrluiHagpdMtzue3t2+F+G9Q3/Y7YzVvxYVVhYzdTtnh+8OCBes1e+vyl9957T8aFDZSA8Nul4U1pJZ4xbQLDEHoFyRtUIMvycEFhCOEtyXf7RUYIrS686A4HOZ2aqj+2ET89/nK4d19nBt3/nibvHg0/P/xy+EedY/Leg4fDDx/fHT5Qq2JfB5aVgZ0QKTjVWKhD0upUWypkztapbcO1R4QqYLq5cTSAwZBvztuhoUH8/owZvmdpKMMfnKJ9xlEIHCypcl1xa2fP8CzGH6NLWlZeMbmVJcTnuucMIuwCxtrGm5VHwsWGu+klaeqA0DrB+ECTmjlp2juZIkdWC4l80nJGFhUfeaGr0AodHI6XZbXEcz5s8qU8iA/d55pbRL57e3UuUu3sKcDg0/UWGS8R+FwOKHQwgcYHTuow1V3Oa8KoCj54eRhdGzaRP1ufv1AZYoO/PbWM72uZK4jPK8iURQ6DRX7gR5w6Q0pnwkGv8sTgjk5A4695zAZ8uh6opWnc9SONeYpg0F0u2vX5SEOUR5rUSODMJX7EjRyCC7zjPbDBK+e24WQjD+RHGvInjXGUXhG/aChnow4r5MBd5l/QC9Q2d5PTeCm+cIAmcz/4HWmyOpv9wdMdnVfBMlhXUk0vNtSDD33kCz7gFTrQKULwj24RF+k5jXQXnqD/0MdusFx5Dr+i78kDnSKg649kE9cFdAq9hX7gglMOPgXuqOcAkUx4Rxro4PrOO2rgt7+q8yTHtsndueCdiO9PtRDgC82V+/TLp8OXkuO5vu8+fOgRDIZMdB51QxGnR3moQ4BduDfUm3s+biOwnArLcG2wNn3DsA7G6m/ogffxsQFmOK36YUqzsa3sUKxeF43ubB3IV1B9pVXzw5FU5r/+r/8xHG6dDj/7wx8PdzUMucWycunBDQcGgaQgo+AECmEpvHa61CQ+TtGkO0wmcHgqI/35C3mQR6+Go8vjYf+hDAxTcDRb3GcHeR2gNdiwNjF6qZG+JhtpY9F7AyNWhblhWRXvu/geubMLRd+939NhYyc+12618PpqeKxzeu4/5HA5OZtPnw13NWnMvTDfwWB1p/diDe4xfsuioDa3LYNdli7vwn/guAjqhms5VXXdkIFiqeW1Ct+xtgg/0tbZL2UQnx9eDl+cvxieqDXFuUk42tHVrni47OEkcBgn0Hd09suufpvasZO8qOR8CGYzVMT3uSdqnbBHyq4chG1VQDs2euXgEMdGH+dN3y/UsjtTRc77bbVwVM34PDIC/IuR5pk4rmA560kVsI9G0Dj9vs5B2tI5SamYiJtKlHeuBDmPSmvJN2QL9kTOnpaBUon3e9EEfuzOOV3mWBDoYEPMdhYS8dzKlRDiWJ1rX50LndRLhaEtIvTjtPVyqjAx1xru6ytDGHis+Qau4ARrS3zbVyt4VzBMe+MTFTH82FR3PYfPHWpzMvLcky3b4Ygj7Jr42Yfkc6o5C8gD+uHHjuBvgyPxZbvoQc400lTQ4BP6d89KbqmM+3w8f0G8Pz7XqoyrdgqwHLjdO2fOq8p+zjNSxckeI6rYgX2qE9NPRTvy2JUzuq9t2tEp81U/QvIiPjSYTwqbmqiOjrDt/R16oIhLfrph2w9sEk4hnUMnykfuhGKrp1L820JXqajEP8qNamMyUlwdlIgeig4Cmz7u6STqvgKObk3LldULcXlUuiycwGtTZQw6wq9eH4FLHtBN2FHddVDtAj8vC2eSt8sSK34Ed098gr/wJuWoT8c7nwmkibYXKhuPGn7E6WVI+gvp1LHqyBeKfyjH5Vjl41oO64Ecyj2dWL+tYSU6aVj8QoC/8DpzyOij2Fcr6ZvMY3mTBv4yvvxzvMN52VAZmlaR9mUIY1rzCV+rXLOP3JYm726r8baxvzk8P9U+W08+Hv78T/7A9sM6qN8NByYFAYR7heb5+OjQB9kdsDb9Am+R/pXXw0NVjr//wfvDO48fDj/64AOxmR1RcX7EbBW460u1DrThF8qFgGo/FSB+vVCb39DtVAJelnpuWJbF+c6+w2B0Dgx0xHCGbgwWPwwQV1odaU28ePFSzqi3uvpOssAOA7812K+TP1rjttw6AGtgk/6OWuY2LHqogsRQRFVKfqd77+asCvhMu2keHarMqKVpI6TW1YZq2mt5YYuGBMezDBXlj8qP3jLiuJWpn+lqes996ET+djBowcuYJj6yJ/COOMAtByY9Kpz8O20BDrwYf+5jfAPDFazis/Rzi9a19Cq2wuW6pYk+km/RURUyjSFa5KaBmq7DLTgmrXFtLWruE5AdvUZ4AcQFfipZ4KfBlUo5TsEIV9nusR8PvBUOnrtHLwHbY5v/VZH7BG410Db1bU+O256cEnru6IHZVa+zpY08upA8yDP5EgecoIXvPgKDrNCflj645hpZR8Z9Pu5m1++gyRuY8Cc9LaDTy4T7PMepgmfhVWRO3skPmDyHhsC0XcFpEe8ISBA6uLqNiv6oZNJTh4NGXJyXTXoORpdN8ZCd0oRPXMk7vSjBw5m0AE71uxruyyGBdYkXGsOn6EP0hmdo5xm6b6vAiduXmR6vOU7hH3lE1+kN62WWe66bOMCqC891IvaJdEo9AcOBdvQ+uH9v2NRkf3jDnlGxT+Yx5Rd5oLeyXtS56zoAwH1d6MvTunjfxjfcjjs6i6Lcj+TQl6M6t+lMh0JfyRlkQR1mbFuLhh48uDc84ABZ8XHkrxh0w4Hh45xI3tGVRuvhWssMt/GUVBi3Nd763kNN6NXZDH/w4x+pcaApR5y2xoFO7C6o0ooDw+7odmDEXJk1xPJW/KkigqVZnb5XnrfK5Hc5kfjvTdGQQyvUc3RTUOO4UGi/+uqr6pJX67TOcuqVZhHC7zL/wBonYV24Df/qjF4HYfU3ssaBgf8Uwsyd8JAIBQvRUKnwlcitMvB+SLp/LcflcEPjutqN1xCwxERrNgfRIj96OqpCrK7yVEIYJ+5bskrb9KDil8NCnD4NEVMB4Q7Qi4PRTQUIHr0+VR4dfi2PODCsNEqcpEuePf9TEZI/3xlasPPS+JKKwoQo9LYncHp4cI2WfjarS6WfdNDYV4yphMHRceA5+WPkdeV5G1roDQMBBEAe4g1MxolheORCTgxDSrsa/tjWHJUMDThyC+FDnJXwNnwyL4Q7DgyZjbLv5Bc8Acn3/JJHOd9UX6nQoyfF317mI83Wl+o9CL/jHAI3FV54mDi9PgQPdJw5VPAJToGPlVF5MLkW56AcCPEOXYbf+uNq50dp3GtDPdAq2jmN5Bv6c8077x9TBSssGfmYF8ANLbyLjsAb6L5sxxiMAGY3ffrIKHjkObzpcU8+fRrSBXfuWUL9WHNornTg65l6WK1TdzWUt6dRC/EFPYuDbr6SHtuB7uCs08tVTTB/WxbC12XfeAcfflsBijJ8VDj4TYcODSoN0WsDvyv1WuJX7KjH2os35Hzs65tPsda9bS3lSAwujenAoIQIG2aEYMYRr+WJeI8LAd4S0/Fo1I7zr+a1bPme9UZMloJVVlpgYzP0a9sUdLl9vdue3GUpb/u+LM135V14WdfJePX4p2I6UCv5SN2hdzXG/6qNG99V74t6ateGVm7WxvltfrxNvrfh3xr/b0UCfKfLPF27OPTgg56nKI46TwFrJSs4wfq0Wud0tKiG098nHu9IT/2X77odQ+L14iUevzmOfR4B0MOf40Yc4ObXfw8u4QFx5997ehIvsLA+NkSzdMDp6QzOtP+X4Zf0XAOb6V4jfH1w5dm+93zpcSdf+zhE0AfzRf/V3hT1nCogeARPrtXvBZTlwXNgln/y28BaRqNx0a//xjPveTfqXgdnTht59GFdfvO4Pb3BhThzXIMP38i/p5dvyKDHOfn09AGzh7sKz7wPDK7r0vXlo0+Te743H3P8PM+b5+C/jHYS9njlHriazuEBCNsR4qFjAkK7n3fxLyI34BMPXfYKMeIvQCe3706Y+DWXcNEA/eWEyZnRQ+l0eRe+1/ASg+kbNZSz3IEJO+KNxqt8re47JgFWk5EKlBYF64rqpFuET/8KPrc33GmqYKRbSaMRtije5PZm1xJerx6L6fD4/zUEt8JmigzteOiHGragS5OJ1z/9yU/Njpr1XUMV6zi0bhnc7wJfV0v+zbBbR/ttEGxIxEmu0bO0MpMW+PCaXg5C3xrEUrnYcp0hkmZEX+FGvP03G7AZE+wAtF//LffJC4fLoaVfgNs+VflsD0RV3PxckbdOFINpcAKfa2tYL6dP8VsH1ggTOMG9h7mMDmdnBnKzPPQNzOAd+LFPwOEXMAGZ5zgFjTxn1Ge5DIXEXYOaYXAO33yrmV4Xev7lfXgB/7lnhDLfEt84KoN5mv6dCVFYJvfE6/me+Lm61dvSm7fc6+fz/BrhxqfFIx1pRr1TnNE55FvDd46z061g5By/+XNPL7jwHZ3gyrNGY9eG1vk2OhKmEyI7nAKLvIC9ClfS9PhBEofKOo2YAlisCT2b6c0ijm1Gc/smNlSDtYaXGkLGajH8rtd/i3WWqW0EcA1dXOsHZ1gWVDOpavisGoaVdq04YSQzq+mNYSiCpVw+tddKqgzQXHGU7Y3JEA+p+l0KKarTdCFGsVhKPSHacH/ji8hPs3ZFmnkX3opo39nX8NOuSysZ8y5XbMmGuief/PrXw3/5y78cDp9+NfzkJz8ZHj9+7G5IxqQnpbnJht9mF+NNbBbfWL2nEn1b9OXfBeSbgNhq1njuPBZqTJplDgBGGyelhpai715qnabXgtUTRpQpAkS6huqe260vpFdA7qOu97D6dHMY1hkY0Monz7GwgeEWSEtIHjxWhtW7oEmTroD7dIWS8drMex5c6P266HJ+egEK/Nqn8TtJGh8W2DPmpxutQGi2rVL3QByvAe1wCq62TyNtidciBtceX2rb/r1539HUxwVc+2zIfOtxSNx1aZTEvE3aFtcmTz+3/Qg01xufPSF6gVktfeIGXpdvwWvIzWR0g+/ASdoG8448gYrXPvSbt5Xfntzr2tHDJPzRyWx0RcmW5t3TASopJzOcRhz5jqAVNuETAcC63WDuk72t1cEVIjCQtdLNs4lsNvGGjLB+oY/sWt7JYSG9HjY1qbtC2Qew8dYnyWkskyFUnxoZ3HifohtIJTdQWvORXG75PkH6Nu7S6A5BjX8zgsJ1djqnE6XmvZSyUH/hA8TM3HBgMnxklopYnBcmMhF2NCP4SsMS3m1TE9ySPaARRGVRhINEfQ86hfQ34t8yhars/hX93yoVF8oqZCa+MfZCDicCf655L//9r/96ONYGhLuS309/+lMvg9zUbo4LhnXOufX6P4/9L/r8RrrTV6DLsMMBGQ3Csgi3vHMTrbNZXX6AtfPCsslWKN2C0Ng9Dodn4eOcEBb4rJR+3XBrG7K5sjeyLUM/lmFz8hHGjCDrBd9J1yLJENBj6q3q4y2NxlKvUqv0/AsM8nLQCx8lAFblQNkgNl20U0UXyxiWMBoDnNdLBdoqhnlXCvi3PE1bcF+AAd0dzS1OHH6voHGjq0dxREZpm3M0fhYu/gzdurHsG31z3MO3dGEFrGWh9Dw3UZRsOhxuu026yJXKkx+B/Prvft/xIMQ6f97X59F2JC2wgqsBLwuNqL4ROeZNfB7gkfiYvDr2jnn3eYaOlIul2QpI+Nun7WWddC4fKWNNl8wP0AKZxrdl+fDO9kHx4qDM9TBydxbIdsy4Pbe8l8JXfG/HDT1NTvN47fOo37Pv66A7avg0h5vnud6uivctve/FV4XCSOvHlxBfmXu1ZWdLRxIULw3IGw4MDksfMrO/3skAa4tjAlnyS+ifg0quJWg9mbmLJHQg/v/t1+XAEmVknJS9MR5p87Qvv/xq+Ku/+m/aRfnQPWd/+qd/Ojx8tK+JYbVixSezCsZ1hjss+99x+UiHqht1ObNuW2WwPNXXeJsWnNg06fdi+nm5YA+HiKoK3rLSAoy+fCTOVKin9kty6HMqHFKwb1CEaL2LbNdEXhB1Gfbbejg9CXUMN/O/rYJI/X8Dv7wY4c+a8u09M+4cVqjpQpt5FseTSResVo8FtMzyHD+HTiHh22WZt3dto7Ye8nivKHRWLONa4ixp8y+A8kKGsZuGT7MK2XyK7syxmOc8f57Hv+056YO1iHOFs5xGYtfASZfvKO9bHIulqCyh0/AarOra6J7BbUmaZbBHPq7SiWWJePcm8cUnGYRlWjQqRxzAG9kI9KezNwAAACBJREFU/6UJb0T8DrzoCeE+P1DPt/kV2aoxaIf3zvD/AIaZJASClVfrAAAAAElFTkSuQmCC;" parent="wV1D7h4lFDxGgGAu4bmc-10" vertex="1">
          <mxGeometry x="5" y="120" width="448.48" height="136.95" as="geometry" />
        </mxCell>
        <mxCell id="wV1D7h4lFDxGgGAu4bmc-14" value="" style="endArrow=classic;startArrow=classic;html=1;rounded=0;exitX=1.001;exitY=0.5;exitDx=0;exitDy=0;exitPerimeter=0;entryX=0;entryY=0.5;entryDx=0;entryDy=0;" parent="1" source="wV1D7h4lFDxGgGAu4bmc-10" target="wV1D7h4lFDxGgGAu4bmc-5" edge="1">
          <mxGeometry width="50" height="50" relative="1" as="geometry">
            <mxPoint x="253" y="357" as="sourcePoint" />
            <mxPoint x="303" y="307" as="targetPoint" />
          </mxGeometry>
        </mxCell>
        <mxCell id="wV1D7h4lFDxGgGAu4bmc-15" value="&lt;font size=&quot;1&quot;&gt;&lt;b style=&quot;font-size: 16px;&quot;&gt;QM&lt;/b&gt;&lt;/font&gt;" style="rounded=0;whiteSpace=wrap;html=1;fillColor=#e1d5e7;strokeColor=#9673a6;" parent="1" vertex="1">
          <mxGeometry x="624" y="150" width="120" height="60" as="geometry" />
        </mxCell>
        <mxCell id="wV1D7h4lFDxGgGAu4bmc-16" value="" style="endArrow=classic;html=1;rounded=0;entryX=-0.058;entryY=0.483;entryDx=0;entryDy=0;entryPerimeter=0;" parent="1" target="wV1D7h4lFDxGgGAu4bmc-3" edge="1">
          <mxGeometry width="50" height="50" relative="1" as="geometry">
            <mxPoint x="470" y="180" as="sourcePoint" />
            <mxPoint x="260" y="240" as="targetPoint" />
          </mxGeometry>
        </mxCell>
        <mxCell id="wV1D7h4lFDxGgGAu4bmc-17" value="" style="endArrow=classic;html=1;rounded=0;exitX=0.5;exitY=1;exitDx=0;exitDy=0;entryX=0.139;entryY=-0.025;entryDx=0;entryDy=0;entryPerimeter=0;" parent="1" source="wV1D7h4lFDxGgGAu4bmc-3" target="wV1D7h4lFDxGgGAu4bmc-4" edge="1">
          <mxGeometry width="50" height="50" relative="1" as="geometry">
            <mxPoint x="210" y="290" as="sourcePoint" />
            <mxPoint x="260" y="240" as="targetPoint" />
            <Array as="points">
              <mxPoint x="304" y="270" />
              <mxPoint x="469" y="270" />
            </Array>
          </mxGeometry>
        </mxCell>
        <mxCell id="wV1D7h4lFDxGgGAu4bmc-19" value="&lt;b&gt;&lt;font style=&quot;font-size: 14px;&quot;&gt;Test case&lt;/font&gt;&lt;/b&gt;" style="shape=note;whiteSpace=wrap;html=1;backgroundOutline=1;darkOpacity=0.05;fillColor=#FFFFCC;" parent="1" vertex="1">
          <mxGeometry x="193" y="537" width="80" height="100" as="geometry" />
        </mxCell>
        <mxCell id="wV1D7h4lFDxGgGAu4bmc-20" value="" style="endArrow=classic;html=1;rounded=0;exitX=0.5;exitY=0;exitDx=0;exitDy=0;exitPerimeter=0;" parent="1" source="wV1D7h4lFDxGgGAu4bmc-19" target="wV1D7h4lFDxGgGAu4bmc-5" edge="1">
          <mxGeometry width="50" height="50" relative="1" as="geometry">
            <mxPoint x="179" y="357" as="sourcePoint" />
            <mxPoint x="229" y="447" as="targetPoint" />
          </mxGeometry>
        </mxCell>
        <mxCell id="wV1D7h4lFDxGgGAu4bmc-21" value="&lt;b&gt;&lt;font color=&quot;#000000&quot; style=&quot;font-size: 14px;&quot;&gt;CPU&lt;/font&gt;&lt;/b&gt;" style="rounded=0;whiteSpace=wrap;html=1;fillColor=#FF6666;fontColor=#ffffff;strokeColor=#B20000;" parent="1" vertex="1">
          <mxGeometry x="425" y="391" width="171" height="60" as="geometry" />
        </mxCell>
        <mxCell id="wV1D7h4lFDxGgGAu4bmc-24" value="&lt;b&gt;&lt;font style=&quot;font-size: 14px;&quot;&gt;Memory&lt;/font&gt;&lt;/b&gt;" style="rounded=0;whiteSpace=wrap;html=1;fillColor=#FFFF66;fontColor=#000000;strokeColor=#B09500;" parent="1" vertex="1">
          <mxGeometry x="604" y="390" width="171" height="60" as="geometry" />
        </mxCell>
        <mxCell id="wV1D7h4lFDxGgGAu4bmc-26" value="" style="endArrow=classic;html=1;rounded=0;entryX=0;entryY=0.5;entryDx=0;entryDy=0;exitX=1;exitY=0.5;exitDx=0;exitDy=0;" parent="1" source="wV1D7h4lFDxGgGAu4bmc-5" target="wV1D7h4lFDxGgGAu4bmc-25" edge="1">
          <mxGeometry width="50" height="50" relative="1" as="geometry">
            <mxPoint x="210" y="410" as="sourcePoint" />
            <mxPoint x="260" y="360" as="targetPoint" />
          </mxGeometry>
        </mxCell>
        <mxCell id="wV1D7h4lFDxGgGAu4bmc-27" value="" style="endArrow=classic;html=1;rounded=0;exitX=0.25;exitY=1;exitDx=0;exitDy=0;startArrow=classic;startFill=1;" parent="1" source="wV1D7h4lFDxGgGAu4bmc-3" target="wV1D7h4lFDxGgGAu4bmc-7" edge="1">
          <mxGeometry width="50" height="50" relative="1" as="geometry">
            <mxPoint x="210" y="410" as="sourcePoint" />
            <mxPoint x="260" y="360" as="targetPoint" />
            <Array as="points">
              <mxPoint x="274" y="240" />
              <mxPoint x="233" y="240" />
            </Array>
          </mxGeometry>
        </mxCell>
        <mxCell id="wV1D7h4lFDxGgGAu4bmc-28" value="" style="endArrow=classic;startArrow=classic;html=1;rounded=0;entryX=0.511;entryY=1.025;entryDx=0;entryDy=0;entryPerimeter=0;exitX=0.5;exitY=0;exitDx=0;exitDy=0;" parent="1" source="wV1D7h4lFDxGgGAu4bmc-5" target="wV1D7h4lFDxGgGAu4bmc-7" edge="1">
          <mxGeometry width="50" height="50" relative="1" as="geometry">
            <mxPoint x="200" y="420" as="sourcePoint" />
            <mxPoint x="250" y="370" as="targetPoint" />
          </mxGeometry>
        </mxCell>
        <mxCell id="wV1D7h4lFDxGgGAu4bmc-29" value="notify deadline" style="text;html=1;align=center;verticalAlign=middle;whiteSpace=wrap;rounded=0;" parent="1" vertex="1">
          <mxGeometry x="388" y="150" width="60" height="30" as="geometry" />
        </mxCell>
        <mxCell id="wV1D7h4lFDxGgGAu4bmc-30" value="Loading testcase" style="text;html=1;align=center;verticalAlign=middle;whiteSpace=wrap;rounded=0;" parent="1" vertex="1">
          <mxGeometry x="233" y="480" width="60" height="30" as="geometry" />
        </mxCell>
        <mxCell id="wV1D7h4lFDxGgGAu4bmc-31" value="UI rendering" style="text;html=1;align=center;verticalAlign=middle;whiteSpace=wrap;rounded=0;" parent="1" vertex="1">
          <mxGeometry x="100" y="389" width="60" height="30" as="geometry" />
        </mxCell>
        <mxCell id="wV1D7h4lFDxGgGAu4bmc-32" value="Applying load on device" style="text;html=1;align=center;verticalAlign=middle;whiteSpace=wrap;rounded=0;" parent="1" vertex="1">
          <mxGeometry x="310" y="389" width="80" height="30" as="geometry" />
        </mxCell>
        <mxCell id="wV1D7h4lFDxGgGAu4bmc-34" value="Database" style="text;html=1;align=center;verticalAlign=middle;whiteSpace=wrap;rounded=0;" parent="1" vertex="1">
          <mxGeometry x="127" y="288" width="69" height="32" as="geometry" />
        </mxCell>
        <mxCell id="gzZPO4UEwu3EKTpnqGoq-1" value="resource&amp;nbsp;&lt;div&gt;utilisation below&amp;nbsp;&lt;div&gt;threshold&amp;nbsp;&lt;/div&gt;&lt;/div&gt;" style="rhombus;whiteSpace=wrap;html=1;" vertex="1" parent="1">
          <mxGeometry x="110" y="130" width="107" height="100" as="geometry" />
        </mxCell>
        <mxCell id="gzZPO4UEwu3EKTpnqGoq-2" value="" style="endArrow=classic;html=1;rounded=0;exitX=0;exitY=0.5;exitDx=0;exitDy=0;entryX=1;entryY=0.5;entryDx=0;entryDy=0;" edge="1" parent="1" source="wV1D7h4lFDxGgGAu4bmc-3" target="gzZPO4UEwu3EKTpnqGoq-1">
          <mxGeometry width="50" height="50" relative="1" as="geometry">
            <mxPoint x="77" y="100" as="sourcePoint" />
            <mxPoint x="127" y="50" as="targetPoint" />
          </mxGeometry>
        </mxCell>
        <mxCell id="gzZPO4UEwu3EKTpnqGoq-3" value="" style="endArrow=classic;html=1;rounded=0;exitX=0.5;exitY=1;exitDx=0;exitDy=0;entryX=0.25;entryY=0;entryDx=0;entryDy=0;" edge="1" parent="1" source="gzZPO4UEwu3EKTpnqGoq-1" target="wV1D7h4lFDxGgGAu4bmc-4">
          <mxGeometry width="50" height="50" relative="1" as="geometry">
            <mxPoint x="140" y="410" as="sourcePoint" />
            <mxPoint x="190" y="360" as="targetPoint" />
            <Array as="points">
              <mxPoint x="164" y="250" />
              <mxPoint x="509" y="250" />
            </Array>
          </mxGeometry>
        </mxCell>
        <mxCell id="gzZPO4UEwu3EKTpnqGoq-4" value="False" style="text;html=1;align=center;verticalAlign=middle;whiteSpace=wrap;rounded=0;" vertex="1" parent="1">
          <mxGeometry x="160" y="230" width="60" height="30" as="geometry" />
        </mxCell>
      </root>
    </mxGraphModel>
  </diagram>
</mxfile>
